<svg width="38" height="30" viewBox="0 0 38 30" fill="none" xmlns="http://www.w3.org/2000/svg">
<path d="M11.7647 26.4706C11.7647 28.42 10.1847 30 8.23529 30C6.28588 30 4.70588 28.42 4.70588 26.4706C4.70588 24.5212 6.28588 22.9412 8.23529 22.9412C10.1847 22.9412 11.7647 24.5212 11.7647 26.4706ZM29.4118 22.9412C27.4624 22.9412 25.8824 24.5212 25.8824 26.4706C25.8824 28.42 27.4624 30 29.4118 30C31.3612 30 32.9412 28.42 32.9412 26.4706C32.9412 24.5212 31.3612 22.9412 29.4118 22.9412ZM34.1129 26.3759C34.0612 23.8253 31.9747 21.7647 29.4118 21.7647C26.8171 21.7647 24.7059 23.8759 24.7059 26.4706H12.9412C12.9412 23.8759 10.83 21.7647 8.23529 21.7647C5.64059 21.7647 3.52941 23.8759 3.52941 26.4706C1.58 26.4706 0 24.8906 0 22.9412V11.1765C0 9.22706 1.58 7.64706 3.52941 7.64706H19.4118V5.88235C19.4118 4.90765 20.2018 4.11765 21.1765 4.11765C22.1512 4.11765 22.9412 4.90765 22.9412 5.88235V7.64706H29.68C31.6418 7.64706 33.3971 8.86412 34.0865 10.7006L37.6159 20.1124C38.6606 22.8965 36.8929 25.84 34.1129 26.3759ZM11.7647 15.2941H9.41177V12.9412H7.05882V15.2941H4.70588V17.6471H7.05882V20H9.41177V17.6471H11.7647V15.2941ZM33.5294 16.4706L31.7394 11.5471C31.4012 10.6182 30.5188 10 29.53 10H25.8824V16.4706H33.5294ZM24.7059 5.88235C24.7059 6.20706 24.9688 6.47059 25.2941 6.47059H26.4706C26.7959 6.47059 27.0588 6.20706 27.0588 5.88235C27.0588 5.55765 26.7959 5.29412 26.4706 5.29412H25.2941C24.9688 5.29412 24.7059 5.55765 24.7059 5.88235ZM24.5041 3.38647L25.3353 2.55471C25.5659 2.32471 25.5659 1.95294 25.3353 1.72294C25.1053 1.49294 24.7341 1.49294 24.5041 1.72294L23.6724 2.55471C23.4418 2.78471 23.4418 3.15647 23.6724 3.38647C23.8976 3.61412 24.2724 3.61824 24.5041 3.38647ZM21.1765 2.35294C21.5018 2.35294 21.7647 2.08941 21.7647 1.76471V0.588235C21.7647 0.263529 21.5018 0 21.1765 0C20.8512 0 20.5882 0.263529 20.5882 0.588235V1.76471C20.5882 2.08941 20.8512 2.35294 21.1765 2.35294ZM17.8488 3.38647C18.0788 3.61647 18.4512 3.61647 18.6806 3.38647C18.9106 3.15647 18.9106 2.78471 18.6806 2.55471L17.8488 1.72294C17.6188 1.49294 17.2471 1.49294 17.0171 1.72294C16.7871 1.95294 16.7871 2.32471 17.0171 2.55471L17.8488 3.38647ZM15.8824 6.47059H17.0588C17.3841 6.47059 17.6471 6.20706 17.6471 5.88235C17.6471 5.55765 17.3841 5.29412 17.0588 5.29412H15.8824C15.5571 5.29412 15.2941 5.55765 15.2941 5.88235C15.2941 6.20706 15.5571 6.47059 15.8824 6.47059Z" fill="black"/>
</svg>
