<svg width="35" height="30" viewBox="0 0 35 30" fill="none" xmlns="http://www.w3.org/2000/svg">
<path d="M24.1682 12.052L18.6738 6.60582C18.6738 6.60582 18.0302 5.81245 17.0405 5.91254C17.0405 5.91254 15.9504 5.96574 15.3085 6.95334L12.4353 11.4077H8.12725C6.593 11.4077 6.593 13.4389 8.12725 13.4389H13.1286C13.5251 13.4389 13.9213 13.238 14.2163 12.7946L15.9028 10.1216L19.4164 13.5866L16.1491 15.2706C16.1491 15.2706 14.863 15.9149 15.0601 17.0544V24.3816C15.0601 25.2254 15.7022 25.8672 16.5443 25.8672C17.3383 25.8672 18.0306 25.2254 18.0306 24.3816V18.5414L23.6255 15.4197C24.2711 15.0725 24.717 14.3324 24.717 13.5362C24.7166 12.9972 24.5669 12.4474 24.1682 12.052Z" fill="black"/>
<path d="M33.4192 0.180232C32.9401 1.31062 32.1383 1.86426 31.0552 1.86426C29.9129 1.86426 28.9484 1.18883 28.6369 0C28.3248 1.18883 27.361 1.86426 26.2187 1.86426C25.0337 1.86426 24.2008 1.36661 23.7703 0.179182C23.2888 1.30957 23.0088 2.0018 23.0088 3.40726C23.0088 9.42736 28.5298 11.6622 28.5298 11.6622C28.5298 11.6622 34.0502 9.42736 34.0502 3.40726C34.0505 2.12989 33.821 1.23678 33.4192 0.180232ZM29.8146 6.26858L30.5799 8.70188L28.5151 7.19878L26.4381 8.68053L27.229 6.25248L25.2689 4.73713H27.7298L28.5414 2.31957L29.3274 4.74623L31.9105 4.73853L29.8146 6.26858Z" fill="black"/>
<path d="M11.3872 17.726L12.6803 15.6455C12.9232 15.2556 12.8028 14.7419 12.4126 14.4983C12.0231 14.2575 11.5086 14.3751 11.2654 14.7657L9.9866 16.8217C9.06095 16.3678 8.0247 16.1047 6.92581 16.1047C3.10734 16.1047 0 19.2316 0 23.0805C0 26.8955 3.10734 30 6.92511 30C10.7695 30 13.8989 26.8955 13.8989 23.0805C13.8989 20.9296 12.92 19.0055 11.3872 17.726ZM6.92511 28.4455C3.96685 28.4455 1.56014 26.0395 1.56014 23.0802C1.56014 20.0932 3.96685 17.6651 6.92511 17.6651C7.72233 17.6651 8.47371 17.8468 9.15544 18.1589L6.35082 22.6703C6.10759 23.0616 6.22763 23.575 6.61854 23.8175C6.75608 23.9029 6.90761 23.9446 7.0574 23.9446C7.33527 23.9446 7.60754 23.8032 7.76573 23.5491L10.543 19.0804C11.6377 20.0722 12.3391 21.4903 12.3391 23.0798C12.3398 26.0395 9.91136 28.4455 6.92511 28.4455Z" fill="black"/>
<path d="M27.5558 16.0449C23.7104 16.0449 20.582 19.1523 20.582 22.9697C20.582 26.8133 23.71 29.9427 27.5558 29.9427C31.3736 29.9427 34.4812 26.8137 34.4812 22.9697C34.4812 19.1523 31.3736 16.0449 27.5558 16.0449ZM27.5558 28.3798C24.5716 28.3798 22.1404 25.9517 22.1404 22.97C22.1404 20.0118 24.5713 17.6058 27.5558 17.6058C30.5147 17.6058 32.9232 20.0118 32.9232 22.97C32.9232 25.9514 30.5147 28.3798 27.5558 28.3798Z" fill="black"/>
<path d="M10.6538 4.54368C10.6615 5.97748 11.8451 7.15582 13.2775 7.15582C14.6536 7.15582 15.8347 5.98238 15.8483 4.55383L15.8508 4.55523L15.8539 3.12842L10.6538 4.54368Z" fill="black"/>
<path d="M15.8554 2.4529L15.8599 0.481201L8.54038 0.481551L10.4585 3.02825L8.46094 3.57419L8.68527 4.39731L15.8554 2.4529Z" fill="black"/>
</svg>
