<svg width="32" height="30" viewBox="0 0 32 30" fill="none" xmlns="http://www.w3.org/2000/svg">
<path d="M30.6675 20.2986H20.24V15.2508H27.88L27.0257 13.6984C26.948 13.5529 26.8328 13.4308 26.692 13.345C26.5512 13.2591 26.39 13.2126 26.2251 13.2102H25.4879V13.0003C25.4879 12.3853 25.2436 11.7954 24.8087 11.3606C24.3739 10.9257 23.7841 10.6814 23.1691 10.6814H23.0031C22.3881 10.6814 21.7983 10.9257 21.3634 11.3606C20.9285 11.7954 20.6842 12.3853 20.6842 13.0003V13.2102H7.27878L7.81089 13.0198L9.24126 12.4877L11.8384 11.5113L13.259 10.9694L15.8561 9.99306L16.5347 9.73433L19.869 8.46505L21.2896 7.92806L23.8867 6.95169L25.0144 6.52209L26.9085 5.79959L26.3618 4.34969L24.7556 4.95992L23.6328 2.03083L25.2389 1.42061L24.7019 0L23.0958 0.610226L22.676 0.771326L15.0604 3.66136L13.9034 4.1056L11.0573 5.16495L10.779 5.26747L7.03957 6.68808L5.62384 7.22996L3.02672 8.20632L1.60612 8.74332L0 9.36331L0.536999 10.7839L2.14311 10.1737L3.26593 13.1272L3.00719 13.2248H1.80627C1.56286 13.2248 1.32942 13.3215 1.1573 13.4936C0.985184 13.6657 0.888489 13.8992 0.888489 14.1426V26.0933C0.889779 26.3358 0.987043 26.568 1.15902 26.7391C1.331 26.9101 1.5637 27.0062 1.80627 27.0062H3.82246C3.80649 27.3934 3.86897 27.7799 4.00616 28.1424C4.14334 28.5048 4.35239 28.8359 4.62074 29.1155C4.88909 29.3951 5.21121 29.6176 5.56773 29.7696C5.92425 29.9216 6.30783 30 6.6954 30C7.08297 30 7.46655 29.9216 7.82307 29.7696C8.17959 29.6176 8.50171 29.3951 8.77006 29.1155C9.03841 28.8359 9.24746 28.5048 9.38464 28.1424C9.52182 27.7799 9.58431 27.3934 9.56834 27.0062H21.48C21.464 27.3934 21.5265 27.7799 21.6637 28.1424C21.8008 28.5048 22.0099 28.8359 22.2782 29.1155C22.5466 29.3951 22.8687 29.6176 23.2252 29.7696C23.5818 29.9216 23.9653 30 24.3529 30C24.7405 30 25.124 29.9216 25.4806 29.7696C25.8371 29.6176 26.1592 29.3951 26.4276 29.1155C26.6959 28.8359 26.905 28.5048 27.0421 28.1424C27.1793 27.7799 27.2418 27.3934 27.2258 27.0062H30.3258C30.4461 27.0068 30.5653 26.9837 30.6766 26.9381C30.788 26.8925 30.8892 26.8253 30.9745 26.7405C31.0598 26.6557 31.1274 26.5548 31.1736 26.4437C31.2198 26.3327 31.2436 26.2136 31.2436 26.0933V21.5874C31.2441 21.4337 31.2055 21.2825 31.1313 21.148L30.6675 20.2986ZM22.222 2.54342L23.3448 5.49692L20.7477 6.47328L19.6249 3.51978L22.222 2.54342ZM18.2091 4.07143L19.332 7.02492L16.7348 8.00128L15.612 5.0722L18.2091 4.07143ZM14.1914 5.59455L15.3142 8.54805L12.7171 9.52441L11.5943 6.56603L14.1914 5.59455ZM10.1786 7.11768L11.3014 10.0712L8.70426 11.0475L7.58145 8.11845L10.1786 7.11768ZM3.56372 9.63669L6.16084 8.66033L7.28366 11.6187L4.68654 12.5951L3.56372 9.63669ZM6.69296 28.3633C6.42454 28.3633 6.16215 28.2837 5.93897 28.1346C5.71579 27.9855 5.54184 27.7735 5.43912 27.5255C5.3364 27.2775 5.30953 27.0047 5.36189 26.7414C5.41426 26.4781 5.54351 26.2363 5.73331 26.0465C5.92311 25.8567 6.16493 25.7275 6.42819 25.6751C6.69145 25.6227 6.96433 25.6496 7.21232 25.7523C7.4603 25.855 7.67226 26.029 7.82138 26.2522C7.97051 26.4754 8.0501 26.7377 8.0501 27.0062C8.0501 27.3661 7.90712 27.7113 7.6526 27.9658C7.39809 28.2203 7.05289 28.3633 6.69296 28.3633ZM24.3553 28.3633C24.0869 28.3633 23.8245 28.2837 23.6014 28.1346C23.3782 27.9855 23.2042 27.7735 23.1015 27.5255C22.9988 27.2775 22.9719 27.0047 23.0243 26.7414C23.0766 26.4781 23.2059 26.2363 23.3957 26.0465C23.5855 25.8567 23.8273 25.7275 24.0906 25.6751C24.3538 25.6227 24.6267 25.6496 24.8747 25.7523C25.1227 25.855 25.3346 26.029 25.4838 26.2522C25.6329 26.4754 25.7125 26.7377 25.7125 27.0062C25.7125 27.3661 25.5695 27.7113 25.315 27.9658C25.0605 28.2203 24.7153 28.3633 24.3553 28.3633Z" fill="black"/>
</svg>
