<svg width="32" height="30" viewBox="0 0 32 30" fill="none" xmlns="http://www.w3.org/2000/svg">
<path d="M2.99707 29.2031C2.99707 29.6353 3.62505 29.9999 4.36901 29.9999C5.11218 29.9999 5.74056 29.6353 5.74056 29.2031V27.6997H2.99707V29.2031Z" fill="black"/>
<path d="M25.9908 13.3353H26.1568L24.1871 7.09717H7.1919L5.22217 13.3353H5.3886H25.9908Z" fill="black"/>
<path d="M25.6382 29.2031C25.6382 29.6353 26.2662 29.9999 27.0093 29.9999C27.7533 29.9999 28.3817 29.6353 28.3817 29.2031V27.6997H25.6382V29.2031Z" fill="black"/>
<path d="M5.13705 19.2029C4.02687 19.2029 3.12402 20.1053 3.12402 21.2155C3.12402 22.3257 4.02726 23.2285 5.13705 23.2285C6.24724 23.2285 7.15008 22.3257 7.15008 21.2155C7.15008 20.1053 6.24724 19.2029 5.13705 19.2029Z" fill="black"/>
<path d="M25.9906 13.7322H5.38847C2.41698 13.7322 0 16.1492 0 19.1202V27.3026H31.3791V19.1202C31.3791 16.1492 28.9617 13.7322 25.9906 13.7322ZM5.13704 23.6257C3.80799 23.6257 2.7268 22.5441 2.7268 21.2159C2.7268 19.8868 3.80799 18.8057 5.13704 18.8057C6.46608 18.8057 7.54727 19.8872 7.54727 21.2159C7.54727 22.5441 6.46608 23.6257 5.13704 23.6257ZM21.1177 24.2025H10.2614V23.8053H21.1177V24.2025ZM21.1177 20.7162H10.2614V20.319H21.1177V20.7162ZM26.2417 23.6257C24.9126 23.6257 23.8318 22.5441 23.8318 21.2159C23.8318 19.8868 24.913 18.8057 26.2417 18.8057C27.5703 18.8057 28.6515 19.8872 28.6515 21.2159C28.6519 22.5441 27.5703 23.6257 26.2417 23.6257Z" fill="black"/>
<path d="M17.8189 4.92057C17.8189 4.23937 16.8429 3.66382 15.6883 3.66382C14.5348 3.66382 13.5601 4.23937 13.5601 4.92057V6.70004H17.8189V4.92057Z" fill="black"/>
<path d="M26.2416 19.2029C25.1315 19.2029 24.229 20.1053 24.229 21.2155C24.229 22.3257 25.1315 23.2285 26.2416 23.2285C27.3518 23.2285 28.2543 22.3257 28.2543 21.2155C28.2543 20.1053 27.3518 19.2029 26.2416 19.2029Z" fill="black"/>
<path d="M12.9142 3.56539L10.3789 1.43628L10.1235 1.74046L12.6588 3.86956L12.9142 3.56539Z" fill="black"/>
<path d="M21.2568 1.74322L21.0015 1.43896L18.4649 3.56792L18.7202 3.87218L21.2568 1.74322Z" fill="black"/>
<path d="M15.8879 0H15.4907V2.3999H15.8879V0Z" fill="black"/>
</svg>
