<svg width="31" height="30" viewBox="0 0 31 30" fill="none" xmlns="http://www.w3.org/2000/svg">
<path d="M26.948 26.238C27.7205 26.238 28.3466 25.6118 28.3466 24.8393V12.1557C28.3466 11.3833 27.7205 10.7571 26.948 10.7571H3.72335C2.95093 10.7571 2.32471 11.3832 2.32471 12.1557V24.8393C2.32471 25.6118 2.95093 26.238 3.72335 26.238H16.6124C17.0138 26.238 17.3392 25.9126 17.3392 25.5112V15.2334C17.3392 14.9097 17.6016 14.6472 17.9252 14.6472H23.1411C23.4648 14.6472 23.7272 14.9097 23.7272 15.2334V25.5113C23.7272 25.9126 24.0526 26.2381 24.4539 26.2381H26.948V26.238ZM12.7982 19.8565C12.7982 20.1771 12.5383 20.4368 12.2179 20.4368H7.58903C7.26845 20.4368 7.00868 20.177 7.00868 19.8565V15.2276C7.00868 14.9071 7.26852 14.6473 7.58903 14.6473H12.2179C12.5384 14.6473 12.7982 14.9072 12.7982 15.2276V19.8565Z" fill="black"/>
<path d="M30.5161 29.5432V28.5757C30.5161 28.3235 30.3115 28.1189 30.0592 28.1189H0.456825C0.204575 28.1189 0 28.3235 0 28.5757V29.5432C0 29.7954 0.204575 30 0.456825 30H30.0592C30.3115 30 30.5161 29.7954 30.5161 29.5432Z" fill="black"/>
<path d="M21.5796 6.42531V6.244C21.5796 2.79556 18.7841 0 15.3356 0C11.8872 0 9.09162 2.79556 9.09162 6.244V6.42531H0.523696C0.254903 6.42531 0.0371094 6.64318 0.0371094 6.9119V8.38936C0.0371094 8.65808 0.254975 8.87594 0.523696 8.87594H30.0292C30.2979 8.87594 30.5157 8.65808 30.5157 8.38936V6.9119C30.5157 6.64318 30.2978 6.42531 30.0292 6.42531H21.5796ZM17.7666 4.18446L16.9206 5.00911C16.8416 5.08619 16.8055 5.19722 16.8242 5.30593L17.0239 6.47032C17.0709 6.74424 16.7834 6.95322 16.5374 6.82392L15.4917 6.27412C15.3939 6.22276 15.2772 6.22276 15.1795 6.27412L14.1338 6.82392C13.8879 6.95322 13.6002 6.74431 13.6472 6.47032L13.847 5.30593C13.8657 5.19714 13.8296 5.08619 13.7505 5.00911L12.9046 4.18446C12.7055 3.99043 12.8154 3.65243 13.0904 3.61249L14.2596 3.44259C14.3688 3.42669 14.4632 3.35814 14.5121 3.25918L15.0349 2.19975C15.1579 1.95046 15.5133 1.95046 15.6363 2.19975L16.1592 3.25918C16.208 3.35814 16.3024 3.42669 16.4117 3.44259L17.5808 3.61249C17.8559 3.65243 17.9657 3.9905 17.7666 4.18446Z" fill="black"/>
</svg>
