<svg width="15" height="30" viewBox="0 0 15 30" fill="none" xmlns="http://www.w3.org/2000/svg">
<path d="M12.7212 14.207V15.6762C13.0885 15.6094 13.3556 15.2421 13.3222 14.8414C13.2888 14.5409 13.0551 14.3072 12.7212 14.207Z" fill="black"/>
<path d="M2.07008 4.59082C2.0033 4.82454 1.93652 5.2586 1.93652 5.49233C1.93652 6.99484 3.17192 8.23024 4.67443 8.23024C6.17695 8.23024 7.41234 6.99484 7.41234 5.49233C7.41234 5.2586 7.34557 4.82454 7.27879 4.59082C7.27879 4.59082 5.97661 5.02488 4.67443 5.02488C3.37226 5.02488 2.07008 4.59082 2.07008 4.59082Z" fill="black"/>
<path d="M7.67948 3.75617C5.67613 2.92144 3.67278 2.92144 1.66943 3.75617C1.66943 3.88973 1.70282 3.9899 1.70282 4.09007C1.70282 4.15684 1.73621 4.19023 1.80299 4.22362C3.63939 4.95818 5.44241 4.99157 7.3122 4.32379C7.67948 4.19023 7.67948 4.19023 7.67948 3.75617Z" fill="black"/>
<path d="M1.76973 3.38885C2.10362 3.28868 2.40412 3.15512 2.73802 3.08834C3.60613 2.85462 4.47425 2.75445 5.37576 2.85462C6.11032 2.9214 6.84488 3.08834 7.54605 3.38885C7.61283 3.42224 7.64622 3.42224 7.713 3.32207C7.91333 3.02157 8.11367 2.72106 8.314 2.42056C8.44756 2.22023 8.41417 2.05328 8.18045 1.95311C7.98011 1.85295 7.77978 1.78617 7.57944 1.686C6.94505 1.35211 6.37743 0.951439 5.8766 0.450602C5.60948 0.216878 5.30898 0.0833214 5.00848 0.0165431C4.54103 -0.0502352 4.04019 0.0833215 3.63952 0.450602C3.17207 0.817883 2.73802 1.18516 2.27057 1.45228C1.93668 1.65261 1.5694 1.81956 1.2355 1.9865C1.06856 2.05328 1.00178 2.22023 1.06856 2.35378C1.30228 2.72106 1.53601 3.05496 1.76973 3.38885ZM3.87325 0.884661C3.94003 0.851272 3.97341 0.884661 4.0068 0.951439C4.07358 0.951439 4.14036 0.91805 4.20714 0.91805C4.27392 0.91805 4.3407 0.884661 4.40747 0.884661H4.44086C4.50764 0.751104 4.57442 0.617548 4.6412 0.51738C4.57442 0.483991 4.57442 0.417213 4.60781 0.383824C4.6412 0.350435 4.70798 0.350435 4.74136 0.383824C4.77475 0.417213 4.77475 0.483991 4.70798 0.51738C4.74137 0.584159 4.77475 0.617548 4.77475 0.684326C4.80814 0.751104 4.84153 0.817883 4.87492 0.884661C4.87492 0.884661 4.87492 0.91805 4.90831 0.91805C5.04187 0.951439 5.17542 0.951439 5.30898 0.984828C5.37576 0.884661 5.40915 0.851272 5.47593 0.884661C5.50932 0.91805 5.5427 0.984828 5.50931 1.01822C5.47593 1.05161 5.40915 1.085 5.37576 1.01822C5.34237 1.05161 5.30898 1.085 5.30898 1.085C5.20881 1.18516 5.14203 1.25194 5.07526 1.31872V1.35211C5.10865 1.48567 5.10865 1.61922 5.14203 1.75278C5.20881 1.75278 5.2422 1.81956 5.2422 1.85295C5.2422 1.91972 5.17542 1.91972 5.14203 1.91972C5.07526 1.91972 5.07526 1.85295 5.07526 1.78617C5.04187 1.75278 4.97509 1.71939 4.90831 1.71939C4.84153 1.686 4.77475 1.65261 4.67459 1.61922H4.6412C4.50764 1.686 4.40747 1.75278 4.27392 1.81956C4.27392 1.88634 4.27392 1.95311 4.20714 1.95311C4.17375 1.95311 4.10697 1.91972 4.10697 1.88634C4.10697 1.81956 4.14036 1.78617 4.20714 1.78617C4.20714 1.75278 4.20714 1.71939 4.24053 1.65261C4.24053 1.55244 4.27392 1.45228 4.27392 1.35211V1.31872C4.17375 1.21855 4.07358 1.11839 3.97341 1.01822C3.90664 1.05161 3.87325 1.05161 3.83986 0.984828C3.80647 0.951439 3.83986 0.884661 3.87325 0.884661Z" fill="black"/>
<path d="M9.94997 14.0065V12.2035V11.8029C9.94997 10.3003 8.71457 9.06494 7.21206 9.06494H6.81139H3.13858H2.73791C1.2354 9.06494 0 10.3003 0 11.8029V19.883C0 20.2837 0.333891 20.651 0.76795 20.651C1.16862 20.651 1.5359 20.3171 1.5359 19.883V12.4372C1.5359 12.3371 1.63607 12.2369 1.73624 12.2369C1.8364 12.2369 1.93657 12.3371 1.93657 12.4372V19.7495V20.05V21.085V21.5859V28.9315C1.93657 29.5325 2.40402 29.9999 3.00502 29.9999H3.40569C4.0067 29.9999 4.47415 29.5325 4.47415 28.9315V22.3538V21.2186V19.2486C4.47415 19.0149 4.64109 18.7478 4.87482 18.7144C5.17532 18.681 5.44243 18.9147 5.44243 19.1819V21.4189V22.4874V28.9315C5.44243 29.4991 5.90988 29.9665 6.4775 29.9665H6.94494C7.54595 29.9665 8.0134 29.4991 8.0134 28.8981V22.1869V21.0516V16.9448V12.3705C8.04679 12.3037 8.11356 12.2369 8.21373 12.2369C8.3139 12.2369 8.41407 12.3371 8.41407 12.4372V14.9748C8.41407 15.4089 8.74796 15.7428 9.18202 15.7428H9.94997C9.94997 15.7428 9.94997 15.7428 9.94997 15.7094H11.6528V14.1735H10.1169C10.0167 14.1735 9.94997 14.1067 9.94997 14.0065ZM7.379 11.1351C7.34561 11.1685 7.27884 11.2018 7.24545 11.1351C7.21206 11.1685 7.17867 11.2018 7.17867 11.2018C7.11189 11.2686 7.04511 11.3354 6.97833 11.4022V11.4356C7.01172 11.5691 7.01172 11.7027 7.04511 11.8362C7.11189 11.8362 7.14528 11.903 7.14528 11.9364C7.14528 12.0032 7.0785 12.0032 7.04511 12.0032C6.97833 12.0032 6.97833 11.9364 6.97833 11.8696C6.94494 11.8362 6.87817 11.8029 6.81139 11.8029C6.74461 11.7695 6.67783 11.7361 6.57766 11.7027H6.54427C6.41072 11.7695 6.31055 11.8362 6.17699 11.903C6.17699 11.9698 6.17699 12.0366 6.11021 12.0366C6.07683 12.0366 6.01005 12.0032 6.01005 11.9698C6.01005 11.903 6.04344 11.8696 6.11021 11.8696C6.11021 11.8362 6.11022 11.8029 6.1436 11.7361C6.1436 11.6359 6.17699 11.5357 6.17699 11.4356V11.4022C6.07683 11.302 5.97666 11.2018 5.87649 11.1017C5.80971 11.1351 5.77632 11.1351 5.74293 11.0683C5.70955 11.0349 5.74293 10.9681 5.77632 10.9347C5.8431 10.9013 5.87649 10.9347 5.90988 11.0015C5.97666 11.0015 6.04344 10.9681 6.11021 10.9681C6.17699 10.9681 6.24377 10.9347 6.31055 10.9347H6.34394C6.41072 10.8012 6.4775 10.6676 6.54427 10.5675C6.4775 10.5341 6.4775 10.4673 6.51088 10.4339C6.54427 10.4005 6.61105 10.4005 6.64444 10.4339C6.67783 10.4673 6.67783 10.5341 6.61105 10.5675C6.64444 10.6342 6.67783 10.6676 6.67783 10.7344C6.71122 10.8012 6.74461 10.868 6.778 10.9347C6.778 10.9347 6.778 10.9681 6.81139 10.9681C6.94494 11.0015 7.0785 11.0015 7.21206 11.0349C7.24545 10.9681 7.31222 10.9347 7.34561 10.9681C7.41239 11.0349 7.41239 11.1017 7.379 11.1351Z" fill="black"/>
<path d="M14.0902 12.8381H12.621V5.09177C12.621 4.85805 12.4207 4.65771 12.187 4.65771C11.9533 4.65771 11.7529 4.85805 11.7529 5.09177V16.1102C11.7529 16.3439 11.9533 16.5443 12.187 16.5443C12.4207 16.5443 12.621 16.3439 12.621 16.1102V13.6728H14.0902C14.3239 13.6728 14.5242 13.4724 14.5242 13.2387C14.5242 13.005 14.3239 12.8381 14.0902 12.8381Z" fill="black"/>
</svg>
