<svg width="59" height="30" viewBox="0 0 59 30" fill="none" xmlns="http://www.w3.org/2000/svg">
<path d="M30.5652 6.07867C30.5652 5.0568 29.7439 4.24512 28.7317 4.24512C27.7195 4.24512 26.9077 5.06637 26.9077 6.07867V7.53021H30.5652L30.5652 6.07867Z" fill="black"/>
<path d="M46.7133 20.0112C43.9726 20.0112 41.7476 22.2458 41.7476 25.0056C41.7476 27.7654 43.9726 30 46.7133 30C49.4636 30 51.6886 27.7654 51.6886 25.0056C51.6886 22.2458 49.4636 20.0112 46.7133 20.0112ZM46.7142 27.854C45.1577 27.854 43.8913 26.5774 43.8913 25.0078C43.8913 23.4383 45.1577 22.1616 46.7142 22.1616C48.2707 22.1616 49.5371 23.4383 49.5371 25.0078C49.5371 26.5774 48.2707 27.854 46.7142 27.854Z" fill="black"/>
<path d="M46.7142 26.4216C47.4821 26.4216 48.1047 25.7886 48.1047 25.0078C48.1047 24.227 47.4821 23.594 46.7142 23.594C45.9463 23.594 45.3237 24.227 45.3237 25.0078C45.3237 25.7886 45.9463 26.4216 46.7142 26.4216Z" fill="black"/>
<path d="M12.7401 26.4216C13.508 26.4216 14.1305 25.7886 14.1305 25.0078C14.1305 24.227 13.508 23.594 12.7401 23.594C11.9721 23.594 11.3496 24.227 11.3496 25.0078C11.3496 25.7886 11.9721 26.4216 12.7401 26.4216Z" fill="black"/>
<path d="M12.7363 20.0112C9.9955 20.0112 7.77051 22.2458 7.77051 25.0056C7.77051 27.7654 9.99551 30 12.7363 30C15.4865 30 17.7115 27.7654 17.7115 25.0056C17.7115 22.2458 15.4865 20.0112 12.7363 20.0112ZM12.7398 27.854C11.1834 27.854 9.91694 26.5774 9.91694 25.0078C9.91694 23.4383 11.1834 22.1616 12.7398 22.1616C14.2963 22.1616 15.5627 23.4383 15.5627 25.0078C15.5627 26.5774 14.2963 27.854 12.7398 27.854Z" fill="black"/>
<path d="M33.149 4.90528L34.2102 4.29258C34.5525 4.09488 34.67 3.65656 34.4723 3.31432C34.2755 2.973 33.8381 2.85363 33.494 3.05227L32.4328 3.66497C32.0905 3.86267 31.973 4.30098 32.1707 4.64323C32.3687 4.98622 32.8076 5.10276 33.149 4.90528Z" fill="black"/>
<path d="M23.2536 4.29258L24.3139 4.90528C24.6553 5.10277 25.0942 4.98621 25.2922 4.64323C25.4899 4.30097 25.3724 3.86267 25.0301 3.66497L23.9698 3.05227C23.6257 2.85363 23.1883 2.973 22.9915 3.31432C22.7938 3.65656 22.9113 4.09488 23.2536 4.29258Z" fill="black"/>
<path d="M28.7314 2.65783C29.1268 2.65783 29.4476 2.33702 29.4476 1.94161V0.716215C29.4476 0.320807 29.1268 0 28.7314 0C28.3359 0 28.0151 0.320807 28.0151 0.716215V1.94161C28.0151 2.33703 28.3359 2.65783 28.7314 2.65783Z" fill="black"/>
<path d="M56.0911 16.9173C52.3477 15.3034 48.4133 14.8928 44.4407 15.3894C41.7395 13.087 34.8928 9.00073 32.351 9.00073H21.8274C18.082 9.00073 11.8247 11.0457 7.95196 14.7019C7.57951 15.0551 7.04474 15.2556 6.48129 15.2556H4.3995C3.06261 15.2556 1.83068 16.01 1.19087 17.2324C-0.0601182 19.6676 -0.327534 21.9308 0.39824 24.1463C0.608358 24.7574 1.06672 25.2826 1.64923 25.5691C2.8143 26.1899 4.44723 26.6388 6.62455 26.9156C6.44311 26.314 6.33808 25.6743 6.33808 25.0057C6.33808 21.4628 9.21249 18.5789 12.7363 18.5789C16.2695 18.5789 19.144 21.4628 19.144 25.0057C19.144 25.8174 18.9912 26.591 18.7142 27.3072H40.745C40.4681 26.591 40.3153 25.8174 40.3153 25.0057C40.3153 21.4628 43.1897 18.5789 46.7135 18.5789C50.2468 18.5789 53.1212 21.4628 53.1212 25.0057C53.1212 25.8174 52.9684 26.591 52.6915 27.3072H55.3558C57.0556 27.3072 58.4307 25.932 58.4307 24.2323C58.4307 23.9266 58.4307 19.4861 58.4307 19.4861C58.4307 17.8532 57.1416 17.4043 56.0911 16.9173ZM20.1372 15.5517L16.9476 13.6609C17.4442 12.6964 18.0458 11.7797 18.7525 10.9106C19.4304 10.7674 21.1303 10.4332 21.8274 10.4332H26.0961C26.478 11.6841 26.9555 13.4795 27.3184 15.5135L20.1372 15.5517ZM28.7795 15.5039C28.4548 13.6131 28.0155 11.8656 27.5858 10.4332H32.351C34.0372 10.4332 39.7981 13.634 42.187 15.4371L28.7795 15.5039ZM57.0079 20.059H55.8428C55.1075 20.059 54.5155 19.4575 54.5155 18.7318V17.8245C55.3558 18.1396 56.1866 18.5217 57.0079 18.9609L57.0079 20.059Z" fill="black"/>
</svg>
