<svg width="31" height="30" viewBox="0 0 31 30" fill="none" xmlns="http://www.w3.org/2000/svg">
<path d="M21.1013 21.7167C21.2131 21.7167 21.3186 21.7229 21.4242 21.7354L20.6542 17.7986L17.8228 18.2146L18.7107 22.7413C19.313 22.1079 20.1637 21.7167 21.1013 21.7167Z" fill="black"/>
<path d="M3.09419 12.1356C2.57879 12.2164 2.21868 12.6945 2.2994 13.2099L2.83962 16.8796C2.92034 17.395 3.39844 17.7489 3.92005 17.6744L4.55338 17.5813L3.73995 12.0425L3.09419 12.1356Z" fill="black"/>
<path d="M29.0682 14.7808L28.7391 12.5764L9.7321 15.3955C9.63277 15.4141 9.53339 15.4203 9.44028 15.4203C8.77587 15.4203 8.16114 15.0912 7.79477 14.5386L4.77079 9.99951C4.38581 10.223 4.15607 10.6639 4.22436 11.1296L5.29236 18.3077C5.38552 18.9224 5.95677 19.3509 6.5715 19.2578L28.1181 16.0599C28.7329 15.9667 29.1551 15.3955 29.0682 14.7808Z" fill="black"/>
<path d="M4.82191 8.95116L8.31303 14.1943C8.60345 14.6305 9.1196 14.8597 9.63791 14.7828L28.8831 11.9256C29.6223 11.8159 30.1325 11.1278 30.0228 10.3886L29.1859 4.75144C29.0761 4.01229 28.388 3.50205 27.6489 3.61177L5.74941 6.86295C4.76828 7.0086 4.27218 8.12553 4.82191 8.95116Z" fill="black"/>
<path d="M30.038 21.0833C29.8664 21.0833 29.7275 21.2221 29.7275 21.3937V24.0885H24.2805C24.3675 24.3865 24.4172 24.697 24.4172 25.0261C24.4172 25.7588 24.175 26.4419 23.7651 26.9945H29.7275V29.6894C29.7275 29.861 29.8664 29.9999 30.038 29.9999C30.2096 29.9999 30.3485 29.861 30.3485 29.6894V21.3937C30.3485 21.2221 30.2096 21.0833 30.038 21.0833Z" fill="black"/>
<path d="M21.103 27.7213C22.5899 27.7213 23.7953 26.5159 23.7953 25.029C23.7953 23.5421 22.5899 22.3367 21.103 22.3367C19.616 22.3367 18.4106 23.5421 18.4106 25.029C18.4106 26.5159 19.616 27.7213 21.103 27.7213Z" fill="black"/>
<path d="M7.84367 1.18874C7.998 1.26727 8.18385 1.20299 8.25996 1.04957C8.33666 0.896157 8.27421 0.709693 8.12079 0.633288C5.14495 -0.850844 1.51693 0.363143 0.0328002 3.33929C-0.0439079 3.49271 0.01855 3.67917 0.171966 3.75557C0.216535 3.77801 0.263834 3.78832 0.310222 3.78832C0.424223 3.78832 0.533979 3.72526 0.588251 3.61641C1.91957 0.947093 5.17436 -0.141675 7.84367 1.18874Z" fill="black"/>
<path d="M2.6361 4.6375C3.00751 3.89255 3.64816 3.33619 4.4398 3.0712C5.23144 2.80651 6.07765 2.86473 6.8229 3.23614C6.97723 3.31436 7.16308 3.25069 7.23919 3.09697C7.31589 2.94356 7.25344 2.75709 7.10002 2.68069C5.25357 1.75989 3.00145 2.51333 2.08065 4.36038C2.00394 4.5138 2.0664 4.70026 2.21982 4.77667C2.26439 4.7991 2.31169 4.80941 2.35807 4.80941C2.47207 4.80941 2.58183 4.74635 2.6361 4.6375Z" fill="black"/>
<path d="M5.80213 5.28437C5.95706 5.3629 6.14231 5.29832 6.21842 5.1452C6.29512 4.99179 6.23267 4.80533 6.07925 4.72892C5.36038 4.37085 4.48597 4.66404 4.1285 5.38139C4.0518 5.53481 4.11425 5.72127 4.26767 5.79768C4.31224 5.82011 4.35954 5.83042 4.40593 5.83042C4.51993 5.83042 4.62968 5.76736 4.68395 5.65851C4.88891 5.24677 5.39039 5.07911 5.80213 5.28437Z" fill="black"/>
</svg>
