<svg width="22" height="30" viewBox="0 0 22 30" fill="none" xmlns="http://www.w3.org/2000/svg">
<path d="M18.7493 15.9389C18.9273 15.9389 19.0868 15.84 19.1659 15.6805L21.5099 10.9924C21.585 10.8474 21.5758 10.6734 21.4914 10.5336C21.4071 10.3978 21.2568 10.3135 21.0933 10.3135H17.812V7.96946H18.7493C18.9273 7.96946 19.0868 7.87058 19.1659 7.71107L21.5099 3.02294C21.585 2.87793 21.5758 2.70391 21.4914 2.56415C21.407 2.42837 21.2568 2.34399 21.0933 2.34399H17.8119V1.40667C17.8119 0.6328 17.1791 0 16.4053 0H7.0307C6.25683 0 5.62403 0.6328 5.62403 1.40667V7.50012H3.74935V6.09345C3.74935 5.05724 2.91088 4.21877 1.87467 4.21877C0.838468 4.21877 0 5.05724 0 6.09345V29.5307C0 29.7891 0.210934 30 0.469319 30H3.28131C3.53971 30 3.75063 29.7891 3.75063 29.5307V18.7495H5.62531V24.8429C5.62531 25.6168 6.25811 26.2496 7.03198 26.2496H16.4065C17.1804 26.2496 17.8132 25.6168 17.8132 24.8429V23.9056H18.7505C18.9285 23.9056 19.088 23.8067 19.1671 23.6472L21.5111 18.9591C21.5863 18.814 21.577 18.64 21.4927 18.5003C21.4083 18.3645 21.258 18.2801 21.0945 18.2801H17.8132V15.9361H18.7505L18.7493 15.9389ZM11.7186 17.8136C13.5274 17.8136 15 19.2849 15 21.0949C15 22.9037 13.5287 24.3763 11.7186 24.3763C9.90988 24.3763 8.43729 22.905 8.43729 21.0949C8.43729 19.2862 9.90856 17.8136 11.7186 17.8136ZM8.43729 13.1268C8.43729 11.3181 9.90856 9.84547 11.7186 9.84547C13.5274 9.84547 15 11.3167 15 13.1268C15 14.9356 13.5287 16.4082 11.7186 16.4082C9.90988 16.4082 8.43729 14.9369 8.43729 13.1268ZM11.7186 8.43869C9.90988 8.43869 8.43729 6.96743 8.43729 5.15735C8.43729 3.34858 9.90856 1.876 11.7186 1.876C13.5274 1.876 15 3.34727 15 5.15735C15 6.96611 13.5287 8.43869 11.7186 8.43869ZM3.75076 11.252H5.62543V15.0012H3.75076V11.252ZM5.62543 8.43869V10.3134H3.75076V8.43869H5.62543ZM2.81344 29.0639H0.938763L0.937444 6.09446C0.937444 5.57901 1.35931 5.15714 1.87476 5.15714C2.39022 5.15714 2.81209 5.57901 2.81209 6.09446V29.0626L2.81344 29.0639ZM3.75076 17.8133V15.9386H5.62543V17.8133H3.75076ZM20.3342 19.2199L18.4595 22.9691H17.8122V19.2199H20.3342Z" fill="black"/>
</svg>
