<svg width="9" height="12" viewBox="0 0 9 12" fill="none" xmlns="http://www.w3.org/2000/svg">
<path d="M3.86192 0.986142C4.37669 0.986142 4.7958 1.40526 4.7958 1.92003C4.7958 2.43481 4.37669 2.85293 3.86192 2.85293C3.34715 2.85293 2.92804 2.43481 2.92804 1.92003C2.92804 1.40526 3.34715 0.986142 3.86192 0.986142ZM3.86192 0C2.80378 0 1.94189 0.860932 1.94189 1.92003C1.94189 2.97817 2.80378 3.83907 3.86192 3.83907C4.92005 3.83907 5.78194 2.97817 5.78194 1.92003C5.78194 0.860932 4.92005 0 3.86192 0Z" fill="black"/>
<path d="M0.506878 11.9999C0.221053 11.9999 0.0147939 11.7128 0.0138069 11.4416L0 8.15281C0 6.18644 1.73266 4.58789 3.86175 4.58789C5.42183 4.58789 6.85864 5.49516 7.43849 6.8442C7.54598 7.09468 7.4306 7.3846 7.18012 7.4921C6.9326 7.5976 6.6407 7.4842 6.53124 7.23274C6.10621 6.24068 5.03329 5.57403 3.86175 5.57403C2.27701 5.57403 0.986145 6.7298 0.986145 8.15083L0.999952 11.4377C1.00094 11.7098 0.780857 11.9999 0.508852 11.9999H0.506878Z" fill="black"/>
<path d="M8.0099 10.2598H3.82828C3.5561 10.2598 3.33521 10.0987 3.33521 9.82652C3.33521 9.55436 3.5561 9.26538 3.82828 9.26538H8.0687C8.34088 9.26538 8.56178 9.55436 8.56178 9.82652C8.56178 10.0987 8.34088 10.2598 8.0099 10.2598Z" fill="black"/>
<path d="M4.83207 11.7056L3.38046 10.1662C3.2 9.97686 3.2 9.68001 3.38046 9.49068L4.83207 7.95131C5.01747 7.7531 5.33008 7.74227 5.52829 7.9316C5.7265 8.11797 5.73538 8.42958 5.54801 8.62782L4.4169 9.82795L5.54801 11.0291C5.73538 11.2263 5.72067 11.5329 5.52829 11.7253C5.27315 11.9804 4.92773 11.8081 4.83207 11.7056Z" fill="black"/>
</svg>
