<?xml version="1.0" encoding="UTF-8" standalone="no"?>
<svg
   xmlns:dc="http://purl.org/dc/elements/1.1/"
   xmlns:cc="http://creativecommons.org/ns#"
   xmlns:rdf="http://www.w3.org/1999/02/22-rdf-syntax-ns#"
   xmlns:svg="http://www.w3.org/2000/svg"
   xmlns="http://www.w3.org/2000/svg"
   xmlns:sodipodi="http://sodipodi.sourceforge.net/DTD/sodipodi-0.dtd"
   xmlns:inkscape="http://www.inkscape.org/namespaces/inkscape"
   version="1.1"
   id="svg2"
   xml:space="preserve"
   width="4000"
   height="2666.6667"
   viewBox="0 0 4000 2666.6667"
   sodipodi:docname="Mar-Business_1.eps"><metadata
     id="metadata8"><rdf:RDF><cc:Work
         rdf:about=""><dc:format>image/svg+xml</dc:format><dc:type
           rdf:resource="http://purl.org/dc/dcmitype/StillImage" /></cc:Work></rdf:RDF></metadata><defs
     id="defs6" /><sodipodi:namedview
     pagecolor="#ffffff"
     bordercolor="#666666"
     borderopacity="1"
     objecttolerance="10"
     gridtolerance="10"
     guidetolerance="10"
     inkscape:pageopacity="0"
     inkscape:pageshadow="2"
     inkscape:window-width="640"
     inkscape:window-height="480"
     id="namedview4" /><g
     id="g10"
     inkscape:groupmode="layer"
     inkscape:label="ink_ext_XXXXXX"
     transform="matrix(1.3333333,0,0,-1.3333333,0,2666.6667)"><g
       id="g12"
       transform="scale(0.1)"><path
         d="M 0,0 H 30000 V 20000 H 0 Z"
         style="fill:#ffffff;fill-opacity:1;fill-rule:nonzero;stroke:none"
         id="path14" /><path
         d="m 27698.1,4325.7 c -338.5,1833.9 -1925.6,3475.7 -3790.1,3511.8 -207.8,4 -419,-10.2 -629.9,-24.3 -492.2,-33.1 -983,-66.2 -1425.6,131.9 -467.6,209.3 -792.2,641.8 -1208.4,940.4 -635.1,455.5 -1461.7,577 -2238.9,494.4 -777.2,-82.6 -1520.7,-351.6 -2255.2,-618.6 -1130,1325.6 -2897.8,2081 -4636.8,1981.5 C 9774.22,10643.2 8104.2,9691 7132.87,8245.1 5200.09,8269.2 3365.04,6740.3 3039.78,4834.9 2872.89,3857.3 3114.59,2841.8 3636.15,2000.7 H 27490.7 c 262.3,765.1 341.3,1599.5 207.4,2325"
         style="fill:#f6f5f5;fill-opacity:1;fill-rule:nonzero;stroke:none"
         id="path16" /><path
         d="m 25537.5,1981.9 -21.7,37.6 c 437,252 837.5,631.4 1190.2,1127.7 334.1,470 612.2,1034.2 804.2,1631.5 381.9,1188.3 516.6,2455.2 644.8,3681.8 C 27134.8,8148.9 26174.4,7331 25516.1,6211.7 24850.4,5079.7 24502.2,3654 24560.7,2300.1 l -43.3,-1.9 c -58.9,1362 291.5,2796.4 961.3,3935.4 670.5,1140.2 1652.8,1970.4 2695.1,2277.8 l 31.1,9.2 -3.3,-32.3 C 28072.1,7249.5 27938.2,5968.5 27551.5,4765.4 27358.2,4164 27078,3595.7 26741.4,3122 26385,2620.6 25979.9,2237 25537.5,1981.9"
         style="fill:#dadada;fill-opacity:1;fill-rule:nonzero;stroke:none"
         id="path18" /><path
         d="m 24661.6,2230 -43.2,3.7 c 39.3,456.2 181.8,914.6 435.5,1401.3 244.9,469.7 560.6,898.8 808.3,1220.2 60.4,78.3 122.5,158 182.5,235 524.4,673.3 1066.7,1369.5 1320.6,2218.5 l 41.6,-12.5 c -256.3,-856.7 -801.1,-1556.2 -1328,-2232.7 -60,-77 -122,-156.6 -182.3,-234.8 -246.6,-319.9 -560.9,-747 -804.2,-1213.8 -251.1,-481.5 -392,-934.5 -430.8,-1384.9"
         style="fill:#dadada;fill-opacity:1;fill-rule:nonzero;stroke:none"
         id="path20" /><path
         d="m 25808.7,4470.7 c -60,0 -119.6,3.9 -178.5,11.9 l 5.8,43 c 259.3,-34.9 533.3,10.1 792.4,130 259.6,120.2 491.3,309.7 670.2,547.9 l 34.7,-26 c -183.2,-244 -420.6,-438.1 -686.7,-561.2 -207.8,-96.3 -425.3,-145.6 -637.9,-145.6"
         style="fill:#dadada;fill-opacity:1;fill-rule:nonzero;stroke:none"
         id="path22" /><path
         d="m 26236.1,5325.6 c -142.1,499.5 -44.7,1099.8 248.1,1529.5 l 35.8,-24.4 c -285.8,-419.5 -380.9,-1005.6 -242.2,-1493.2 l -41.7,-11.9"
         style="fill:#dadada;fill-opacity:1;fill-rule:nonzero;stroke:none"
         id="path24" /><path
         d="m 27019.8,1976.5 -15.3,40.6 c 491.7,185.7 934.7,565.3 1247.5,1068.8 265.4,427.3 445.1,948.8 534.2,1550.5 -545.3,-24.4 -1090.6,-244.1 -1499.8,-604.9 l -28.7,32.5 c 423.2,373.1 989.2,597.9 1553,616.8 l 25.9,0.9 -3.7,-25.6 c -88.6,-618.6 -271.6,-1154.6 -544,-1593.1 -317.8,-511.6 -768.5,-897.4 -1269.1,-1086.5"
         style="fill:#dadada;fill-opacity:1;fill-rule:nonzero;stroke:none"
         id="path26" /><path
         d="m 25701.3,2091.4 -18.5,39.2 c 980.4,460.8 1887.6,1124.6 2623.3,1919.6 l 31.9,-29.4 C 27598.4,3221.7 26686.7,2554.5 25701.3,2091.4"
         style="fill:#dadada;fill-opacity:1;fill-rule:nonzero;stroke:none"
         id="path28" /><path
         d="m 21914.2,1950 c -380.2,142.7 -726.5,409.1 -1001.6,770.4 -253.3,332.5 -442.2,736.6 -546.6,1168.7 -206.4,854.9 -108.7,1766.8 -0.9,2554.3 l 4.8,35.3 29.2,-20.4 c 692.5,-485.3 1408.6,-987.1 1928,-1679.3 578.4,-770.8 783.8,-1677 549.6,-2424 l -41.4,12.9 c 230.1,733.8 27.1,1625.4 -542.9,2385.1 -508,677 -1208.5,1172.3 -1889.1,1649.3 -105.3,-775.5 -196.7,-1668.1 4.9,-2503 102.9,-426.3 289.3,-824.9 538.9,-1152.6 270.1,-354.8 609.8,-616.2 982.3,-756.1 l -15.2,-40.6"
         style="fill:#dadada;fill-opacity:1;fill-rule:nonzero;stroke:none"
         id="path30" /><path
         d="m 22473,2252.6 -1672.9,3386.1 38.9,19.2 1672.8,-3386.1 -38.8,-19.2"
         style="fill:#dadada;fill-opacity:1;fill-rule:nonzero;stroke:none"
         id="path32" /><path
         d="m 21709.9,3709.6 c -221.2,0 -443.8,58.7 -645.7,170.4 -210.5,116.5 -384.2,282.8 -502.1,480.9 l 37.2,22.2 c 114,-191.5 282.1,-352.3 485.9,-465.2 203.9,-112.8 429.6,-169.6 652.3,-164.6 l 1,-43.4 c -9.5,-0.2 -19.1,-0.3 -28.6,-0.3"
         style="fill:#dadada;fill-opacity:1;fill-rule:nonzero;stroke:none"
         id="path34" /><path
         d="m 5443.64,2011.9 c -494.03,101.5 -955.8,347.2 -1372.49,730.3 -374.78,344.5 -696.14,789.6 -929.31,1287.1 -451.81,964.1 -589.54,2031.5 -722.73,3063.8 l -4.61,35.7 33.73,-12.6 c 1286.05,-481.3 2184.8,-1035 2828.44,-1742.5 822.56,-904.4 1170.65,-2091.3 908.41,-3097.8 l -41.98,10.9 c 258.58,992.5 -85.71,2164.1 -898.52,3057.7 -633.2,696.1 -1516.44,1242.6 -2777.83,1718.4 131.37,-1017.9 270.64,-2068.4 714.38,-3015.1 230.79,-492.5 548.71,-932.9 919.38,-1273.7 410.82,-377.7 865.65,-619.8 1351.86,-719.7 l -8.73,-42.5"
         style="fill:#dadada;fill-opacity:1;fill-rule:nonzero;stroke:none"
         id="path36" /><path
         d="m 5893.81,2264.9 c -353.58,690.9 -776.02,1353.5 -1255.61,1969.5 -479.6,616 -1018.42,1188 -1601.52,1700.2 l 28.63,32.6 c 585.14,-514 1125.85,-1088 1607.11,-1706.2 481.27,-618.1 905.19,-1283 1260.01,-1976.3 l -38.62,-19.8"
         style="fill:#dadada;fill-opacity:1;fill-rule:nonzero;stroke:none"
         id="path38" /><path
         d="m 4365.99,4475.1 c -414.74,144.9 -825.38,315.7 -1220.51,507.7 l 18.96,39 C 3558.06,4830.5 3967.13,4660.4 4380.3,4516 l -14.31,-40.9"
         style="fill:#dadada;fill-opacity:1;fill-rule:nonzero;stroke:none"
         id="path40" /><path
         d="m 5079.73,3755.8 -43.16,4.4 96.88,963.7 43.16,-4.3 -96.88,-963.8"
         style="fill:#dadada;fill-opacity:1;fill-rule:nonzero;stroke:none"
         id="path42" /><path
         d="m 3686.07,2023.6 c -254.26,0 -516.08,75.7 -761.3,220.5 -243.23,143.6 -464.09,349.8 -638.72,596.3 -139.35,196.7 -290.42,549.8 -448.99,1049.4 -117.85,371.3 -195.98,689.3 -196.75,692.4 l -8.15,33.3 33.57,-6.9 c 45.12,-9.2 1109.3,-230.4 1490.06,-571.9 l -28.97,-32.3 c -153.36,137.6 -455.8,278.3 -874.64,406.9 -252.69,77.6 -478.18,129.4 -561.26,147.6 51.91,-203.8 334.03,-1274.9 630.53,-1693.4 171.12,-241.5 387.37,-443.5 625.38,-584.1 258.67,-152.7 535.92,-226.3 801.56,-212.8 l 2.21,-43.3 c -21.45,-1.1 -42.96,-1.7 -64.53,-1.7"
         style="fill:#dadada;fill-opacity:1;fill-rule:nonzero;stroke:none"
         id="path44" /><path
         d="m 3543.96,2568.3 c -428.05,595.4 -923.4,1143.9 -1472.27,1630.2 l 28.77,32.5 c 551.27,-488.5 1048.8,-1039.3 1478.73,-1637.3 l -35.23,-25.4"
         style="fill:#dadada;fill-opacity:1;fill-rule:nonzero;stroke:none"
         id="path46" /><path
         d="m 9020.39,1962.6 -28.31,32.9 c 553.1,476.2 948.05,1130.2 1112.12,1841.4 162.7,705.6 96.4,1460.2 -186.51,2126.8 -369.51,-65.2 -728,-250.9 -1037.78,-537.6 -289.9,-268.4 -529.89,-615.3 -694.04,-1003.3 -310.01,-732.6 -369.22,-1553.6 -406.59,-2400.7 l -43.34,1.9 c 37.55,851.2 97.16,1676.4 409.98,2415.7 166.53,393.6 410.14,745.7 704.52,1018.2 320.7,296.9 693.09,487.6 1076.9,551.4 l 16.77,2.8 6.72,-15.6 C 10243.1,5317.7 10312.5,4547.3 10146.4,3827.1 9980.34,3107 9580.43,2444.8 9020.39,1962.6"
         style="fill:#dadada;fill-opacity:1;fill-rule:nonzero;stroke:none"
         id="path48" /><path
         d="m 8342.48,2116 -41.3,13.3 c 304.95,946.5 732.64,1850.2 1271.18,2686.1 l 36.47,-23.5 C 9072.33,3959.2 8646.27,3058.9 8342.48,2116"
         style="fill:#dadada;fill-opacity:1;fill-rule:nonzero;stroke:none"
         id="path50" /><path
         d="m 8982.03,3738.8 -24.71,35.7 c 273.31,189.4 591.06,318.8 918.88,374.4 l 7.26,-42.7 c -321.6,-54.6 -633.31,-181.6 -901.43,-367.4"
         style="fill:#dadada;fill-opacity:1;fill-rule:nonzero;stroke:none"
         id="path52" /><path
         d="m 19055.4,3649.2 c -77.7,0 -141,-63.3 -141,-141 0,-77.7 63.3,-141 141,-141 77.8,0 141,63.3 141,141 0,77.7 -63.2,141 -141,141 z m 0,-325.4 c -101.6,0 -184.4,82.7 -184.4,184.4 0,101.7 82.8,184.4 184.4,184.4 101.7,0 184.4,-82.7 184.4,-184.4 0,-101.7 -82.7,-184.4 -184.4,-184.4"
         style="fill:#dadada;fill-opacity:1;fill-rule:nonzero;stroke:none"
         id="path54" /><path
         d="m 26322,8941.9 c -77.8,0 -141,-63.3 -141,-141 0,-77.8 63.2,-141 141,-141 77.7,0 141,63.2 141,141 0,77.7 -63.3,141 -141,141 z m 0,-325.4 c -101.7,0 -184.4,82.7 -184.4,184.4 0,101.6 82.7,184.3 184.4,184.3 101.6,0 184.3,-82.7 184.3,-184.3 0,-101.7 -82.7,-184.4 -184.3,-184.4"
         style="fill:#dadada;fill-opacity:1;fill-rule:nonzero;stroke:none"
         id="path56" /><path
         d="m 28914.1,5861.7 c 0,-89.8 -72.9,-162.7 -162.7,-162.7 -89.9,0 -162.7,72.9 -162.7,162.7 0,89.9 72.8,162.7 162.7,162.7 89.8,0 162.7,-72.8 162.7,-162.7"
         style="fill:#dadada;fill-opacity:1;fill-rule:nonzero;stroke:none"
         id="path58" /><path
         d="m 2852.07,8898.5 c 0,-89.9 -72.84,-162.7 -162.68,-162.7 -89.85,0 -162.69,72.8 -162.69,162.7 0,89.8 72.84,162.7 162.69,162.7 89.84,0 162.68,-72.9 162.68,-162.7"
         style="fill:#dadada;fill-opacity:1;fill-rule:nonzero;stroke:none"
         id="path60" /><path
         d="m 1290.3,6208.8 c -77.74,0 -140.99,-63.3 -140.99,-141 0,-77.8 63.25,-141 140.99,-141 77.75,0 141,63.2 141,141 0,77.7 -63.25,141 -141,141 z m 0,-325.4 c -101.66,0 -184.37,82.7 -184.37,184.4 0,101.6 82.71,184.3 184.37,184.3 101.67,0 184.38,-82.7 184.38,-184.3 0,-101.7 -82.71,-184.4 -184.38,-184.4"
         style="fill:#dadada;fill-opacity:1;fill-rule:nonzero;stroke:none"
         id="path62" /><path
         d="m 11322.5,4072.2 c -77.8,0 -141,-63.3 -141,-141 0,-77.8 63.2,-141 141,-141 77.7,0 141,63.2 141,141 0,77.7 -63.3,141 -141,141 z m 0,-325.4 c -101.7,0 -184.4,82.7 -184.4,184.4 0,101.7 82.7,184.4 184.4,184.4 101.7,0 184.4,-82.7 184.4,-184.4 0,-101.7 -82.7,-184.4 -184.4,-184.4"
         style="fill:#dadada;fill-opacity:1;fill-rule:nonzero;stroke:none"
         id="path64" /><path
         d="m 4529.53,13685 c 0,351.4 -485.57,636.3 -1084.56,636.3 -598.99,0 -1084.56,-284.9 -1084.56,-636.3 0,-351.4 485.57,-636.3 1084.56,-636.3 130.78,0 256.15,13.6 372.25,38.5 81.14,-97.6 221.6,-184.8 458.41,-235.1 0,0 -86.94,159.5 -140.11,342.3 240.65,116.7 394.01,293.1 394.01,490.6"
         style="fill:#ffffff;fill-opacity:1;fill-rule:nonzero;stroke:none"
         id="path66" /><path
         d="m 3829.65,13123.2 12.59,-15.2 c 77.57,-93.3 202.79,-163.2 372.82,-208.1 -30.67,64 -77.09,169.5 -110.78,285.4 l -7.68,26.4 24.72,11.9 c 238.75,115.8 375.67,284 375.67,461.4 0,332.9 -471.94,603.8 -1052.02,603.8 -580.09,0 -1052.03,-270.9 -1052.03,-603.8 0,-332.9 471.94,-603.7 1052.03,-603.7 125.63,0 248.57,12.7 365.43,37.7 z m 508.35,-317.6 -69.13,14.6 c -209.77,44.6 -365.65,122.3 -463.73,231.3 -115.65,-23.4 -236.72,-35.3 -360.17,-35.3 -295.4,0 -573.6,67.8 -783.36,190.8 -215.22,126.3 -333.74,296 -333.74,478 0,182 118.52,351.7 333.74,478 209.76,123 487.96,190.8 783.36,190.8 295.4,0 573.6,-67.8 783.36,-190.8 215.21,-126.3 333.74,-296 333.74,-478 0,-196.8 -140.8,-380.6 -387.49,-507.5 51.85,-166.1 128.81,-308.4 129.62,-309.9 l 33.8,-62"
         style="fill:#86a7ff;fill-opacity:1;fill-rule:nonzero;stroke:none"
         id="path68" /><path
         d="M 4055.93,13800.7 H 2819.54 v 43.4 h 1236.39 v -43.4"
         style="fill:#86a7ff;fill-opacity:1;fill-rule:nonzero;stroke:none"
         id="path70" /><path
         d="m 3730.57,13562.1 h -911.03 v 43.4 h 911.03 v -43.4"
         style="fill:#86a7ff;fill-opacity:1;fill-rule:nonzero;stroke:none"
         id="path72" /><path
         d="m 25175.9,14422.5 c 0,351.4 485.6,636.3 1084.6,636.3 599,0 1084.6,-284.9 1084.6,-636.3 0,-351.4 -485.6,-636.3 -1084.6,-636.3 -130.8,0 -256.1,13.6 -372.2,38.5 -81.2,-97.6 -221.6,-184.8 -458.5,-235.1 0,0 87,159.5 140.2,342.3 -240.7,116.7 -394.1,293.1 -394.1,490.6"
         style="fill:#ffffff;fill-opacity:1;fill-rule:nonzero;stroke:none"
         id="path74" /><path
         d="m 26260.5,15026.3 c -580.1,0 -1052,-270.9 -1052,-603.8 0,-177.4 136.9,-345.6 375.7,-461.4 l 24.7,-11.9 -7.7,-26.4 c -33.7,-115.9 -80.1,-221.4 -110.8,-285.4 170,44.9 295.3,114.8 372.8,208.1 l 12.6,15.2 19.3,-4.2 c 116.8,-25 239.8,-37.7 365.4,-37.7 580.1,0 1052,270.8 1052,603.7 0,332.9 -471.9,603.8 -1052,603.8 z m -893,-1483.2 33.8,62 c 0.8,1.5 77.8,143.8 129.6,309.9 -246.7,126.9 -387.5,310.7 -387.5,507.5 0,182 118.5,351.7 333.7,478 209.8,123 488,190.8 783.4,190.8 295.4,0 573.6,-67.8 783.4,-190.8 215.2,-126.3 333.7,-296 333.7,-478 0,-182 -118.5,-351.7 -333.7,-478 -209.8,-123 -488,-190.8 -783.4,-190.8 -123.4,0 -244.5,11.9 -360.2,35.3 -98.1,-109 -253.9,-186.7 -463.7,-231.2 l -69.1,-14.7"
         style="fill:#86a7ff;fill-opacity:1;fill-rule:nonzero;stroke:none"
         id="path76" /><path
         d="m 26885.9,14538.2 h -1236.4 v 43.4 h 1236.4 v -43.4"
         style="fill:#86a7ff;fill-opacity:1;fill-rule:nonzero;stroke:none"
         id="path78" /><path
         d="m 26560.6,14299.6 h -911.1 v 43.4 h 911.1 v -43.4"
         style="fill:#86a7ff;fill-opacity:1;fill-rule:nonzero;stroke:none"
         id="path80" /><path
         d="m 13036.4,2000.7 h 3774.3 v 4251.4 h -3774.3 z"
         style="fill:#d3dfff;fill-opacity:1;fill-rule:nonzero;stroke:none"
         id="path82" /><path
         d="m 13068.9,2033.2 h 3709.2 V 6219.6 H 13068.9 V 2033.2 m 3774.3,-65.1 h -3839.3 v 4316.6 h 3839.3 V 1968.1"
         style="fill:#86a7ff;fill-opacity:1;fill-rule:nonzero;stroke:none"
         id="path84" /><path
         d="m 13068.9,4440.3 h 3709.2 v 1779.3 h -3709.2 z"
         style="fill:#afbee7;fill-opacity:1;fill-rule:nonzero;stroke:none"
         id="path86" /><path
         d="m 16810.7,4440.3 h -32.6 V 6219.6 H 13068.9 V 4440.3 h -32.5 v 1811.8 h 3774.3 V 4440.3"
         style="fill:#7192e7;fill-opacity:1;fill-rule:nonzero;stroke:none"
         id="path88" /><path
         d="m 15928.6,4856.7 c 0,-555.1 -450,-1005 -1005.1,-1005 -555,0 -1005,449.9 -1005,1005 0,555 450,1005 1005,1005 555.1,0 1005.1,-450 1005.1,-1005"
         style="fill:#ffffff;fill-opacity:1;fill-rule:nonzero;stroke:none"
         id="path90" /><path
         d="M 22716.8,5092.5 H 7130.23 c -184.11,0 -333.35,149.3 -333.35,333.4 v 11078.2 c 0,184.1 149.24,333.4 333.35,333.4 H 22716.8 c 184.2,0 333.4,-149.3 333.4,-333.4 V 5425.9 c 0,-184.1 -149.2,-333.4 -333.4,-333.4"
         style="fill:#d3dfff;fill-opacity:1;fill-rule:nonzero;stroke:none"
         id="path92" /><path
         d="m 7158.42,16804.9 c -181.42,0 -329.01,-147.6 -329.01,-329 V 5454.1 c 0,-181.5 147.59,-329.1 329.01,-329.1 H 22688.7 c 181.4,0 329,147.6 329,329.1 v 11021.8 c 0,181.4 -147.6,329 -329,329 z M 22688.7,5060 H 7158.42 c -217.3,0 -394.08,176.8 -394.08,394.1 v 11021.8 c 0,217.3 176.78,394.1 394.08,394.1 H 22688.7 c 217.3,0 394,-176.8 394,-394.1 V 5454.1 c 0,-217.3 -176.7,-394.1 -394,-394.1"
         style="fill:#86a7ff;fill-opacity:1;fill-rule:nonzero;stroke:none"
         id="path94" /><path
         d="M 22755.1,6778.2 H 7091.93 v 9645.1 H 22755.1 V 6778.2"
         style="fill:#ffffff;fill-opacity:1;fill-rule:nonzero;stroke:none"
         id="path96" /><path
         d="M 7124.47,6810.7 H 22722.6 v 9580.1 H 7124.47 Z M 22787.7,6745.6 H 7059.4 v 9710.2 H 22787.7 V 6745.6"
         style="fill:#86a7ff;fill-opacity:1;fill-rule:nonzero;stroke:none"
         id="path98" /><path
         d="m 16556.2,15165.1 h -3542.8 v 414.1 h 3542.8 v -414.1"
         style="fill:#d3dfff;fill-opacity:1;fill-rule:nonzero;stroke:none"
         id="path100" /><path
         d="m 19377.9,14605.8 h -9186.2 v 154.9 h 9186.2 v -154.9"
         style="fill:#d3dfff;fill-opacity:1;fill-rule:nonzero;stroke:none"
         id="path102" /><path
         d="m 21145,9970.7 h -3544.3 v 154.9 H 21145 v -154.9"
         style="fill:#86a7ff;fill-opacity:1;fill-rule:nonzero;stroke:none"
         id="path104" /><path
         d="m 20652.7,9585.8 h -3052 v 154.9 h 3052 v -154.9"
         style="fill:#86a7ff;fill-opacity:1;fill-rule:nonzero;stroke:none"
         id="path106" /><path
         d="m 19525.7,9200.9 h -1925 v 154.9 h 1925 v -154.9"
         style="fill:#86a7ff;fill-opacity:1;fill-rule:nonzero;stroke:none"
         id="path108" /><path
         d="m 20718.1,8484.5 h -3117.4 v 154.9 h 3117.4 v -154.9"
         style="fill:#d3dfff;fill-opacity:1;fill-rule:nonzero;stroke:none"
         id="path110" /><path
         d="m 20285.1,8099.6 h -2684.4 v 155 h 2684.4 v -155"
         style="fill:#d3dfff;fill-opacity:1;fill-rule:nonzero;stroke:none"
         id="path112" /><path
         d="M 9939.73,8147.3 H 8435.34 v 2358.1 H 9939.73 V 8147.3"
         style="fill:#d3dfff;fill-opacity:1;fill-rule:nonzero;stroke:none"
         id="path114" /><path
         d="m 12012.7,9730.2 h -1691.1 v 778.9 h 1691.1 v -778.9"
         style="fill:#86a7ff;fill-opacity:1;fill-rule:nonzero;stroke:none"
         id="path116" /><path
         d="m 12012.7,8144 h -1691.1 v 1206.6 h 1691.1 V 8144"
         style="fill:#d3dfff;fill-opacity:1;fill-rule:nonzero;stroke:none"
         id="path118" /><path
         d="m 13219.1,10145.8 c -112.5,0 -204.1,-91.5 -204.1,-204 V 8369 c 0,-112.5 91.6,-204 204.1,-204 h 3131.3 c 112.6,0 204.1,91.5 204.1,204 v 1572.8 c 0,112.5 -91.5,204 -204.1,204 z m 3131.3,-2018.7 h -3131.3 c -133.4,0 -241.9,108.5 -241.9,241.9 v 1572.8 c 0,133.4 108.5,241.9 241.9,241.9 h 3131.3 c 133.4,0 242,-108.5 242,-241.9 V 8369 c 0,-133.4 -108.6,-241.9 -242,-241.9"
         style="fill:#86a7ff;fill-opacity:1;fill-rule:nonzero;stroke:none"
         id="path120" /><path
         d="m 13353.5,8563.1 -33.9,17 213.9,427.8 264.4,-276.9 314.8,679.9 422.2,-396.6 464.4,464.5 454,-277.4 582.5,607.3 27.4,-26.2 -603.6,-629.3 -454.6,277.8 -469.3,-469.4 -410.6,385.8 -316.2,-682.8 -265.6,278.2 -189.8,-379.7"
         style="fill:#3a6bea;fill-opacity:1;fill-rule:nonzero;stroke:none"
         id="path122" /><path
         d="m 15305,8461.2 h -359.6 v 189.3 h 359.6 v -189.3"
         style="fill:#86a7ff;fill-opacity:1;fill-rule:nonzero;stroke:none"
         id="path124" /><path
         d="m 16166.2,8536.9 h -624.6 v 37.8 h 624.6 v -37.8"
         style="fill:#3a6bea;fill-opacity:1;fill-rule:nonzero;stroke:none"
         id="path126" /><path
         d="m 16196.4,12713.7 c -127,473.1 -485.4,851.2 -946.6,1005.9 l -465,-1385.7 1411.6,379.8"
         style="fill:#d3dfff;fill-opacity:1;fill-rule:nonzero;stroke:none"
         id="path128" /><path
         d="m 14784.8,12333.9 -647,-1310.9 c 195,-96.4 414.6,-150.9 647,-150.9 807.3,0 1461.7,654.4 1461.7,1461.8 0,131.4 -17.6,258.6 -50.1,379.8 l -1411.6,-379.8"
         style="fill:#86a7ff;fill-opacity:1;fill-rule:nonzero;stroke:none"
         id="path130" /><path
         d="m 15249.8,13719.6 c -146.1,49.1 -302.4,76 -465,76 -807.3,0 -1461.8,-654.4 -1461.8,-1461.7 0,-575 332.1,-1072.1 814.8,-1310.9 l 647,1310.9 465,1385.7"
         style="fill:#3a6bea;fill-opacity:1;fill-rule:nonzero;stroke:none"
         id="path132" /><path
         d="M 11253.5,11152.5 H 9194.52 v 154.9 h 2058.98 v -154.9"
         style="fill:#d3dfff;fill-opacity:1;fill-rule:nonzero;stroke:none"
         id="path134" /><path
         d="m 8454.27,11684.4 h 3539.43 v 2014.2 H 8454.27 Z m 3577.33,-37.9 H 8416.42 v 2090 h 3615.18 v -2090"
         style="fill:#86a7ff;fill-opacity:1;fill-rule:nonzero;stroke:none"
         id="path136" /><path
         d="m 11766.7,13280.2 c -120,24.1 -238.8,-54 -314.7,-150.3 -36,-45.7 -65.7,-95.7 -94.9,-146.1 -32.4,-56 -64.3,-112.3 -103.4,-163.6 -74.4,-97.5 -189.9,-179 -310.8,-160.6 -196.2,29.9 -303.5,299.2 -501.9,295.7 -92.6,-1.6 -172,-65.7 -235.2,-133.8 -63.1,-68.1 -120.8,-145.5 -202.9,-188.5 -114.9,-60.1 -256.69,-40.6 -375.79,10.6 -119.09,51.1 -223.54,130.8 -336.76,194 -189.65,105.8 -405.24,161.8 -622.09,167.5 v -1022.4 h 3111.44 v 940.5 353.6 c -4.3,1.2 -8.5,2.5 -13,3.4"
         style="fill:#d3dfff;fill-opacity:1;fill-rule:nonzero;stroke:none"
         id="path138" /><path
         d="m 9627.11,12643.6 c 119.1,-51.2 260.89,-70.7 375.79,-10.6 82.1,43 139.8,120.4 202.9,188.5 63.2,68.1 142.6,132.2 235.2,133.8 198.4,3.5 305.7,-265.8 501.9,-295.7 120.9,-18.4 236.4,63.1 310.8,160.6 39.1,51.3 71,107.6 103.4,163.6 -120.5,-5.6 -241,-11.5 -345.5,44.2 -103.8,55.4 -172,163.5 -275.5,219.5 -185.9,100.5 -413.3,4.6 -598.5,-97.2 -110.7,-60.9 -234.17,-126.2 -356.79,-96.2 -138.71,33.9 -219.99,175.2 -335.5,259.5 -221.16,161.3 -553.35,83 -742.39,-115.3 l -0.36,-0.4 c -22.62,-23.7 -34.3,-54.2 -34.3,-85.4 v -107.4 c 216.85,-5.7 432.44,-61.7 622.09,-167.5 113.22,-63.2 217.67,-142.9 336.76,-194"
         style="fill:#86a7ff;fill-opacity:1;fill-rule:nonzero;stroke:none"
         id="path140" /><path
         d="m 17585.7,10852.9 h 3533.9 v 2843 h -3533.9 z m 3577.3,-43.3 h -3620.7 v 2929.7 H 21163 v -2929.7"
         style="fill:#86a7ff;fill-opacity:1;fill-rule:nonzero;stroke:none"
         id="path142" /><path
         d="m 18141.3,11244.4 h 378.5 v 1274.4 h -378.5 v -1274.4"
         style="fill:#86a7ff;fill-opacity:1;fill-rule:nonzero;stroke:none"
         id="path144" /><path
         d="m 18141.3,13162.4 v -643.6 h 378.5 v 643.6 h -378.5"
         style="fill:#d3dfff;fill-opacity:1;fill-rule:nonzero;stroke:none"
         id="path146" /><path
         d="m 18822.7,13162.4 v -955.9 h 378.5 v 955.9 h -378.5"
         style="fill:#d3dfff;fill-opacity:1;fill-rule:nonzero;stroke:none"
         id="path148" /><path
         d="m 18822.7,11244.4 h 378.5 v 962.1 h -378.5 v -962.1"
         style="fill:#86a7ff;fill-opacity:1;fill-rule:nonzero;stroke:none"
         id="path150" /><path
         d="m 19504.1,11244.4 h 378.5 v 1496.8 h -378.5 v -1496.8"
         style="fill:#86a7ff;fill-opacity:1;fill-rule:nonzero;stroke:none"
         id="path152" /><path
         d="m 19504.1,13162.4 v -421.2 h 378.5 v 421.2 h -378.5"
         style="fill:#d3dfff;fill-opacity:1;fill-rule:nonzero;stroke:none"
         id="path154" /><path
         d="m 20185.5,12182.9 v -938.5 h 378.5 v 938.5 h -378.5"
         style="fill:#86a7ff;fill-opacity:1;fill-rule:nonzero;stroke:none"
         id="path156" /><path
         d="m 20564,13162.4 h -378.5 v -979.5 h 378.5 v 979.5"
         style="fill:#d3dfff;fill-opacity:1;fill-rule:nonzero;stroke:none"
         id="path158" /><path
         d="m 7468.68,2000.7 -708.58,737.5 1.52,544.1 -860.68,-25.6 71.04,-1256 h 1496.7"
         style="fill:#102048;fill-opacity:1;fill-rule:nonzero;stroke:none"
         id="path160" /><path
         d="m 6767.33,5326.7 -976.1,-130.2 38.51,-680.9 935.39,22.7 2.2,788.4"
         style="fill:#e28b6d;fill-opacity:1;fill-rule:nonzero;stroke:none"
         id="path162" /><path
         d="m 6765.13,4538.3 -935.39,-22.7 71.2,-1258.9 860.68,25.6 3.51,1256"
         style="fill:#f9b384;fill-opacity:1;fill-rule:nonzero;stroke:none"
         id="path164" /><path
         d="m 6409.82,2525.4 -36.94,78.5 368.75,173.5 36.94,-78.5 -368.75,-173.5"
         style="fill:#ffffff;fill-opacity:1;fill-rule:nonzero;stroke:none"
         id="path166" /><path
         d="M 8828,5550.8 7888.04,5587 7764.62,4867.7 8665.07,4736.2 8828,5550.8"
         style="fill:#e28b6d;fill-opacity:1;fill-rule:nonzero;stroke:none"
         id="path168" /><path
         d="m 9037.68,2730.9 -578.43,976.2 74.79,373.9 c -255.06,58.5 -648.86,148.4 -870.47,197.9 l -194.89,-1135.8 1569,-412.2"
         style="fill:#102048;fill-opacity:1;fill-rule:nonzero;stroke:none"
         id="path170" /><path
         d="m 8665.07,4736.2 -900.45,131.5 -101.05,-588.8 c 221.61,-49.5 615.41,-139.4 870.47,-197.9 l 131.03,655.2"
         style="fill:#f9b384;fill-opacity:1;fill-rule:nonzero;stroke:none"
         id="path172" /><path
         d="m 8107.95,3543 -27.69,82.2 365.15,123 27.68,-82.3 -365.14,-122.9"
         style="fill:#ffffff;fill-opacity:1;fill-rule:nonzero;stroke:none"
         id="path174" /><path
         d="m 9457.05,5442.2 c 0,0 -390.44,-491.5 -1113.63,-332.3 -722.75,158.8 -592.6,-260.3 -997.79,-347.1 -404.77,-86.7 -1532.71,621.7 -1908.83,-43.3 0,0 -223.86,2518.3 -121.91,4112.2 27.77,430.3 78.96,793.4 165.29,1021.2 l 1730.52,23.8 380.9,5.3 c 0,0 1.31,-8.3 4.34,-24.8 6.51,-34.2 19.52,-104.1 41.21,-203.9 141.43,-656.3 637.73,-2602.9 1819.9,-4211.1"
         style="fill:#fbc343;fill-opacity:1;fill-rule:nonzero;stroke:none"
         id="path176" /><path
         d="m 7637.15,9653.3 c -386.96,-255.5 -1193.88,-694.5 -2322.26,-821.6 27.77,430.3 78.96,793.4 165.29,1021.2 l 1730.52,23.8 385.24,-19.5 c 6.51,-34.2 19.52,-104.1 41.21,-203.9"
         style="fill:#e49b31;fill-opacity:1;fill-rule:nonzero;stroke:none"
         id="path178" /><path
         d="M 3829.84,8058 4246.87,9472.8 6140.23,8914.7 5723.2,7499.9 3829.84,8058"
         style="fill:#ffffff;fill-opacity:1;fill-rule:nonzero;stroke:none"
         id="path180" /><path
         d="M 3856.78,8072.6 5708.53,7526.8 6113.3,8900 4261.55,9445.9 Z M 5737.87,7473 3802.9,8043.3 4232.2,9499.7 6167.17,8929.4 5737.87,7473"
         style="fill:#86a7ff;fill-opacity:1;fill-rule:nonzero;stroke:none"
         id="path182" /><path
         d="m 5686.54,8372.9 -41.62,12.2 124.19,421.3 41.62,-12.2 -124.19,-421.3"
         style="fill:#86a7ff;fill-opacity:1;fill-rule:nonzero;stroke:none"
         id="path184" /><path
         d="m 5251.67,7856.5 -41.61,12.3 298.97,1014.3 41.62,-12.3 -298.98,-1014.3"
         style="fill:#86a7ff;fill-opacity:1;fill-rule:nonzero;stroke:none"
         id="path186" /><path
         d="m 4991.6,7933.2 -41.62,12.3 298.98,1014.3 41.61,-12.3 -298.97,-1014.3"
         style="fill:#86a7ff;fill-opacity:1;fill-rule:nonzero;stroke:none"
         id="path188" /><path
         d="m 4731.52,8009.9 -41.62,12.2 298.98,1014.3 41.61,-12.2 -298.97,-1014.3"
         style="fill:#86a7ff;fill-opacity:1;fill-rule:nonzero;stroke:none"
         id="path190" /><path
         d="m 4541.97,8325.8 -41.61,12.3 228.44,775 41.62,-12.3 -228.45,-775"
         style="fill:#86a7ff;fill-opacity:1;fill-rule:nonzero;stroke:none"
         id="path192" /><path
         d="m 8686.08,12441.4 c 0,0 53.49,515.5 101.61,506.8 48.11,-8.7 42.84,-134.7 42.84,-134.7 0,0 112.49,287.5 164.76,287.2 52.26,-0.3 -1.12,-117.5 -1.12,-117.5 0,0 58.11,117.5 101.5,108.5 43.39,-9.1 7.76,-108.8 7.76,-108.8 0,0 45.37,96.3 89.33,79.2 43.97,-17.1 16.35,-96 16.35,-96 0,0 24.04,62.4 65.01,20.8 40.96,-41.6 -169.31,-645.2 -169.31,-645.2 l -296.35,-84.6 -122.38,184.3"
         style="fill:#f9b384;fill-opacity:1;fill-rule:nonzero;stroke:none"
         id="path194" /><path
         d="m 9106.22,12340 c 0,0 -258.56,-1063.3 -910.59,-1373.9 -152.71,-73.3 -327.11,-105 -524.5,-72 l -116.7,207.8 -765.26,1361.3 267.23,93.7 c 0,0 600.41,-223.8 925.78,-722.7 0,0 303.68,28.6 708.44,636 l 415.6,-130.2"
         style="fill:#3a6bea;fill-opacity:1;fill-rule:nonzero;stroke:none"
         id="path196" /><path
         d="m 8195.63,10966.1 c -152.71,-73.3 -327.11,-105 -524.5,-72 l -116.7,207.8 29.94,508 c 0,0 442.5,-251.2 611.26,-643.8"
         style="fill:#102048;fill-opacity:1;fill-rule:nonzero;stroke:none"
         id="path198" /><path
         d="m 5502.01,8914.7 c 0,0 -58.51,-500.5 -109.72,-492.1 -51.21,8.6 -45.01,134.5 -45.01,134.5 0,0 -121.14,-288 -176.81,-288 -55.67,0.1 1.74,117.6 1.74,117.6 0,0 -62.44,-117.8 -108.61,-109 -46.18,8.9 -7.76,108.8 -7.76,108.8 0,0 -48.77,-96.6 -95.52,-79.7 -46.75,16.9 -16.97,96 -16.97,96 0,0 -25.89,-62.6 -69.33,-21.1 -43.43,41.4 183.32,646.2 183.32,646.2 l 316.03,86 128.64,-199.2"
         style="fill:#f9b384;fill-opacity:1;fill-rule:nonzero;stroke:none"
         id="path200" /><path
         d="M 6539.57,12546.2 C 5256.18,12390.8 4878.38,10612.1 5024.8,8941.9 l 477.21,-29 c 0,0 79.53,1634.1 737.5,2415 l 549.51,1135.2 -249.45,83.1"
         style="fill:#3a6bea;fill-opacity:1;fill-rule:nonzero;stroke:none"
         id="path202" /><path
         d="m 6789.02,12463.1 889.34,-600.2 c 0,0 245.83,-1149.6 231.38,-2169.1 0,0 -1720.84,-636.3 -2574.03,28.9 l 672.42,2183.6 780.89,556.8"
         style="fill:#3a6bea;fill-opacity:1;fill-rule:nonzero;stroke:none"
         id="path204" /><path
         d="m 7299.51,13502.4 c 82.4,287.5 -206.81,623.7 -759.94,338.1 0,0 -549.51,-94 -451.9,-1048.4 l 578.43,-21.7 633.41,732"
         style="fill:#102048;fill-opacity:1;fill-rule:nonzero;stroke:none"
         id="path206" /><path
         d="m 6655.24,13860.3 c 75.61,303.7 -254.33,352.3 -309.32,166.1 -7.34,-24.9 -168.12,63.8 -213.09,-81 -51.55,-166 127.59,-276.5 329.94,-234.9 l 192.47,149.8"
         style="fill:#102048;fill-opacity:1;fill-rule:nonzero;stroke:none"
         id="path208" /><path
         d="m 7056.4,13128.3 v -571.4 l -249.45,-350.5 -267.23,339.7 14.31,593 502.37,-10.8"
         style="fill:#f9b384;fill-opacity:1;fill-rule:nonzero;stroke:none"
         id="path210" /><path
         d="m 7056.4,12933 v -366.5 c -178.73,77.6 -255.52,312.3 -255.52,312.3 l 255.52,54.2"
         style="fill:#102048;fill-opacity:1;fill-rule:nonzero;stroke:none"
         id="path212" /><path
         d="m 7299.51,13502.4 c 0,0 177.67,-938.1 -498.47,-623.6 l -222.08,254.9 138.18,515.2 355.35,86.7 227.02,-233.2"
         style="fill:#f9b384;fill-opacity:1;fill-rule:nonzero;stroke:none"
         id="path214" /><path
         d="m 7299.51,13502.4 c 0,0 -141.74,220.6 -318.88,113.9 -177.15,-106.6 -168.11,-480.8 -352.49,-386.8 -184.37,94 -77.72,383.2 -77.72,383.2 l 271.14,206.1 303.67,-34.4 174.28,-282"
         style="fill:#102048;fill-opacity:1;fill-rule:nonzero;stroke:none"
         id="path216" /><path
         d="m 6692.29,13259.3 c 40.43,-70 23.45,-155.5 -37.93,-191 -61.39,-35.4 -143.93,-7.4 -184.36,62.7 -40.43,70 -23.45,155.5 37.94,190.9 61.38,35.5 143.92,7.5 184.35,-62.6"
         style="fill:#f9b384;fill-opacity:1;fill-rule:nonzero;stroke:none"
         id="path218" /><path
         d="m 6897.48,11899.1 c 0,-47.9 -38.85,-86.8 -86.77,-86.8 -47.92,0 -86.76,38.9 -86.76,86.8 0,47.9 38.84,86.8 86.76,86.8 47.92,0 86.77,-38.9 86.77,-86.8"
         style="fill:#102048;fill-opacity:1;fill-rule:nonzero;stroke:none"
         id="path220" /><path
         d="m 5573.92,9577.6 -42.58,8.3 c 0.62,3.2 63.78,325.1 169.94,685.3 143.21,485.8 292.46,806.4 443.6,953 l 30.2,-31.2 C 5826.1,10854.6 5576.4,9590.3 5573.92,9577.6"
         style="fill:#102048;fill-opacity:1;fill-rule:nonzero;stroke:none"
         id="path222" /><path
         d="m 5413.08,10602 c -79.69,59.7 -266.28,53.5 -268.16,53.5 l -1.61,43.3 c 8.29,0.3 203.95,6.8 295.81,-62.1 l -26.04,-34.7"
         style="fill:#102048;fill-opacity:1;fill-rule:nonzero;stroke:none"
         id="path224" /><path
         d="m 24236,3323.8 -14.5,-824.2 -188,-498.9 H 25053 l -57.8,1344.8 -759.2,-21.7"
         style="fill:#102048;fill-opacity:1;fill-rule:nonzero;stroke:none"
         id="path226" /><path
         d="m 22735.7,3237.1 v -683.3 l -802.6,-553.1 h 1616 l -97.6,1312.3 -715.8,-75.9"
         style="fill:#102048;fill-opacity:1;fill-rule:nonzero;stroke:none"
         id="path228" /><path
         d="m 22951.6,2334.9 -242.2,184.4 52.6,69 242.2,-184.4 -52.6,-69"
         style="fill:#ffffff;fill-opacity:1;fill-rule:nonzero;stroke:none"
         id="path230" /><path
         d="m 24091.3,9939.7 -4.4,-16.5 -144,-567.9 -314.1,-1237.7 c -43.8,-197.4 -76.8,-410.4 -101.1,-633.4 -153.1,-1408.6 44.7,-3209 147.5,-3985.5 26.9,-203.9 -131.9,-384.4 -337.5,-384.4 h -571.4 c -131.4,0 -251.1,75.9 -308,194.4 -728.4,1525.3 -609.9,3803.3 -463.7,4360.8 231.2,881.9 390.4,2197.7 390.4,2197.7 l 485.5,20.8 1220.8,51.7"
         style="fill:#3a6bea;fill-opacity:1;fill-rule:nonzero;stroke:none"
         id="path232" /><path
         d="m 25184.9,3512.5 c -4.8,-196 -164.8,-352.6 -360.9,-352.6 h -489.4 c -180.9,0 -334,134 -357.5,313.6 -93.2,711.5 -320.5,2504 -449.4,4010.7 -67.2,790.4 -107.1,1501.9 -86.3,1937.5 7.4,165.3 23.8,290.6 51.2,365.7 l 594.3,135.8 605.2,137.9 c 0,0 150.1,-160.1 288.1,-1012.5 143.6,-889.4 273.3,-2533.1 204.7,-5536.1"
         style="fill:#3a6bea;fill-opacity:1;fill-rule:nonzero;stroke:none"
         id="path234" /><path
         d="m 23466,6280 c -26.8,555.6 -9.8,1029.3 52.2,1448.2 19.9,134.8 91,256.8 200.1,343.5 l 406.6,323.2 27,-34 -406.6,-323.2 c -100.4,-79.8 -165.9,-192 -184.2,-315.9 -61.5,-416 -78.5,-887 -51.8,-1439.7 l -43.3,-2.1"
         style="fill:#102048;fill-opacity:1;fill-rule:nonzero;stroke:none"
         id="path236" /><path
         d="m 22246.7,6100.5 -5.4,43 c 272.4,33.8 505.9,38.6 713.8,14.5 l -5,-43.1 c -204.4,23.7 -434.5,18.9 -703.4,-14.4"
         style="fill:#102048;fill-opacity:1;fill-rule:nonzero;stroke:none"
         id="path238" /><path
         d="m 24198.9,6201.7 -5.3,43 c 272.4,33.9 505.9,38.6 713.7,14.5 l -5,-43 c -204.3,23.6 -434.4,18.9 -703.4,-14.5"
         style="fill:#102048;fill-opacity:1;fill-rule:nonzero;stroke:none"
         id="path240" /><path
         d="m 23001,3629.7 c -371,0 -645.9,66.1 -650.1,67.1 l 10.4,42.2 c 6.3,-1.6 637.6,-153.1 1275.9,8.5 l 10.7,-42.1 c -225.3,-57 -449.7,-75.7 -646.9,-75.7"
         style="fill:#102048;fill-opacity:1;fill-rule:nonzero;stroke:none"
         id="path242" /><path
         d="m 24529.4,3627.2 c -58.6,0 -114.1,1.8 -164.6,4.4 -239.9,12.6 -422.7,47.8 -424.5,48.2 l 8.3,42.6 c 7.2,-1.4 721,-137.3 1196.1,38.4 l 15,-40.7 c -196.8,-72.8 -431.4,-92.9 -630.3,-92.9"
         style="fill:#102048;fill-opacity:1;fill-rule:nonzero;stroke:none"
         id="path244" /><path
         d="m 24980.2,9048.6 c -276.4,147.5 -657.7,243.8 -1037.3,306.7 -170.5,28.6 -341,49.9 -501.5,66.4 -508,51.6 -915.4,51.6 -915.4,51.6 l 344.5,414.7 1220.8,51.7 -4.4,-16.5 605.2,137.9 c 0,0 150.1,-160.1 288.1,-1012.5"
         style="fill:#1f3c88;fill-opacity:1;fill-rule:nonzero;stroke:none"
         id="path246" /><path
         d="m 23342.5,13204.6 v -837.7 h -502 v 837.7 h 502"
         style="fill:#e28b6d;fill-opacity:1;fill-rule:nonzero;stroke:none"
         id="path248" /><path
         d="m 23075.7,12856.3 c 0,0 -50.8,-182.7 -235.2,-307.6 v 365.7 l 235.2,-58.1"
         style="fill:#102048;fill-opacity:1;fill-rule:nonzero;stroke:none"
         id="path250" /><path
         d="m 22581.7,13632.1 -35.3,-352.6 c 0,0 -164.2,-220.4 -61.7,-220.4 110.2,0 92.6,-44 92.6,-44 0,0 -61.7,-458.4 498,-158.7 l 119,687.6 -612.6,88.1"
         style="fill:#e28b6d;fill-opacity:1;fill-rule:nonzero;stroke:none"
         id="path252" /><path
         d="m 22581.7,13632.1 c 0,0 152.1,19.8 191.7,-141 39.7,-160.9 92.6,-260.1 227,-147.7 l 147.7,242.4 -253.5,105.8 -312.9,-59.5"
         style="fill:#102048;fill-opacity:1;fill-rule:nonzero;stroke:none"
         id="path254" /><path
         d="m 22581.7,13632.1 c 0,114.6 135.9,387.9 564.2,315.2 409.3,-69.6 473.8,-643.5 262.2,-905.8 0,0 -108,-169.7 -253.4,141 l -249.1,335 -52.8,105.8 -271.1,8.8"
         style="fill:#102048;fill-opacity:1;fill-rule:nonzero;stroke:none"
         id="path256" /><path
         d="m 23177.2,13203.5 c -40.5,-70.1 -122.8,-98.3 -184,-63 -61.1,35.3 -77.8,120.7 -37.4,190.8 40.5,70.1 122.9,98.3 184,63 61.1,-35.3 77.9,-120.7 37.4,-190.8"
         style="fill:#e28b6d;fill-opacity:1;fill-rule:nonzero;stroke:none"
         id="path258" /><path
         d="m 24127.5,12549.8 c 961.7,-310.9 1720.9,-1612.4 831.5,-1634 -889.3,-21.7 -1431.6,802.5 -1431.6,802.5 l 600.1,831.5"
         style="fill:#e49b31;fill-opacity:1;fill-rule:nonzero;stroke:none"
         id="path260" /><path
         d="m 19872.3,11557.1 c 0,0 -475.1,207.1 -491.2,160.9 -16,-46.2 96.2,-103.5 96.2,-103.5 0,0 -305.6,43.5 -331.1,-2.2 -25.4,-45.7 102.9,-56.9 102.9,-56.9 0,0 -130.9,7.3 -144.4,-35 -13.4,-42.2 90.9,-60.2 90.9,-60.2 0,0 -106.2,7.9 -112.9,-38.8 -6.8,-46.7 75.5,-61.5 75.5,-61.5 0,0 -66.2,9.8 -50.1,-46.3 16.1,-56.2 645,-170.1 645,-170.1 l 219.5,216.4 -100.3,197.2"
         style="fill:#e28b6d;fill-opacity:1;fill-rule:nonzero;stroke:none"
         id="path262" /><path
         d="m 24621.4,9647.3 -2147,-234.3 c -180.9,-19.5 -337.5,124.9 -331.9,307.1 l 26.9,885.9 12.6,408.2 0.4,10 c 0,0 -15.6,-18.6 -46.8,-47.7 l -0.9,-0.9 c -20.4,-18.6 -47.3,-41.6 -80.7,-66.8 -285,-215.2 -1045.1,-584.8 -2301,234.7 l 119.3,413.4 1355.7,-55.5 c 0,0 607.8,491.1 1147.5,828.2 352.7,220.4 760.9,342.3 1176.5,331.4 187.8,-4.7 389.6,-34.7 575.7,-111 457.7,-189.2 684.6,-1877.6 759.2,-2573 17.8,-164.5 -101.1,-312 -265.5,-329.7"
         style="fill:#fbc343;fill-opacity:1;fill-rule:nonzero;stroke:none"
         id="path264" /><path
         d="m 21078.3,11102.4 c -39.2,269.4 129,410 136.1,415.8 l 27.5,-33.6 c -0.4,-0.3 -39.8,-33.1 -74.1,-95.7 -45.8,-83.5 -61.5,-177.8 -46.5,-280.2 l -43,-6.3"
         style="fill:#e49b31;fill-opacity:1;fill-rule:nonzero;stroke:none"
         id="path266" /><path
         d="m 22374.2,11176.1 c 0,0 -13.5,-349.7 -204.8,-570.1 l 12.6,408.2 c 71.6,58.2 153.6,126.3 192.2,161.9"
         style="fill:#e49b31;fill-opacity:1;fill-rule:nonzero;stroke:none"
         id="path268" /><path
         d="m 21738.5,10710.1 -8.5,42.6 c 314,62.7 736.9,588.8 741.1,594.2 l 33.9,-27.1 c -1.1,-1.4 -109.7,-137 -256.8,-278.7 -199.1,-191.8 -370.6,-303.2 -509.7,-331"
         style="fill:#e49b31;fill-opacity:1;fill-rule:nonzero;stroke:none"
         id="path270" /><path
         d="M 28642.9,1968.1 H 1528.91 v 65.1 H 28642.9 v -65.1"
         style="fill:#102048;fill-opacity:1;fill-rule:nonzero;stroke:none"
         id="path272" /></g></g></svg>
