<svg width="4267" height="2667" viewBox="0 0 4267 2667" fill="none" xmlns="http://www.w3.org/2000/svg">
<g opacity="0.1" clip-path="url(#clip0_202_2)">
<path d="M4266.67 2666.67H0V0.000484467H4266.67V2666.67Z" fill="white"/>
<path d="M4031.8 2132.83L3311.88 2131.04L2982.6 2130.23L2911.89 2130.05L2655.48 2129.43L2342.97 2128.65L2072.08 2128L2056.73 2127.96L1985.28 2127.79L1358.48 2126.24L1043.79 2125.45L1014.11 2125.39L841.684 2124.96L392.391 2123.85C392.391 2123.85 -164.968 1068.88 588.476 678.28C1559.09 175.107 2251.27 900.027 2623.07 872.561C3169.89 832.161 4240.04 526.334 4031.8 2132.83" fill="#EBF3FA"/>
<path d="M2884.89 1280.97C2884.89 1280.97 3069.92 998.44 3149.13 1035.43C3228.35 1072.4 2884.89 1280.97 2884.89 1280.97Z" fill="#DFEBFD"/>
<path d="M2877.92 1328.61C2877.92 1328.61 3274.56 1026.08 3404.07 1106.37C3533.57 1186.65 3304.03 1226.91 3217.4 1234.87C3130.76 1242.83 2877.92 1328.61 2877.92 1328.61" fill="#DFEBFD"/>
<path d="M2847.89 1284.41C2847.89 1284.41 2847.36 1272.76 2846.36 1255.76C2844.43 1222.6 2840.75 1169.07 2835.92 1141.87C2828.61 1100.73 2854.51 1064.23 2900.07 1097.15C2945.64 1130.08 2859.05 1270.03 2859.05 1270.03L2847.89 1284.41Z" fill="#DFEBFD"/>
<path d="M1510.49 2125.63L1329.74 2125.13C1323.95 2124.19 1318.35 2124.33 1312.68 2125.09L1213.64 2124.83C1178.33 2098.63 1172.89 2019.04 1172.89 2019.04C1202.58 2040.12 1267.8 2041.29 1273.8 2030.65C1279.82 2020 1191.71 1992.4 1179.16 1984.51C1166.6 1976.61 1151.64 1941.41 1184.37 1891.59C1217.1 1841.75 1303.79 1889.07 1303.79 1889.07C1303.79 1889.07 1335.09 2005.31 1352.57 2013.56C1370.07 2021.81 1345.21 1908.96 1345.21 1908.96C1381.65 1917.12 1457.48 1989.89 1457.48 1989.89C1457.48 1989.89 1415.2 2099.68 1434.17 2103.37C1453.16 2107.07 1466.65 2004.25 1466.65 2004.25C1497.48 2025.72 1516.31 2076.04 1516.31 2076.04C1521.13 2096.25 1517.92 2112.56 1510.49 2125.63" fill="#CDE0FB"/>
<path d="M651.472 880.547C696.861 802.574 831.708 867.014 831.708 867.014C831.708 867.014 888.496 1040.09 915.585 1051.13C942.676 1062.17 895.929 893.68 895.929 893.68C951.655 903.027 1072.16 1006.81 1072.16 1006.81C1072.16 1006.81 1017.23 1176.16 1046.21 1180.19C1075.18 1184.23 1087.19 1027.76 1087.19 1027.76C1135.51 1057.67 1168.08 1132.17 1168.08 1132.17C1202.55 1248.53 1051.36 1286.79 1051.36 1286.79C1051.36 1286.79 1033.59 1345.88 1052.01 1424.11H1052.01C1052.01 1424.11 1056.92 1438.95 1059.6 1462.67L1045.27 1458.81C1045.13 1454.65 1044.84 1450.6 1044.37 1446.64C1044.38 1446.61 1044.37 1446.6 1044.36 1446.57C1044.35 1446.52 1044.35 1446.45 1044.34 1446.4C1043.95 1443.92 1043.39 1440.39 1042.66 1436.08C1042.66 1436.08 1042.66 1436.07 1042.66 1436.07C1042.66 1436.05 1042.65 1436.05 1042.66 1436.04C1040.58 1426.29 1039.33 1419.17 1038.69 1414.09C1038.68 1414.08 1038.68 1414.07 1038.68 1414.05C1032.8 1383.63 1023.33 1343.49 1012.7 1332.75C1012.7 1332.75 1014.89 1330.95 1017.53 1327C1015.99 1328.83 1014.39 1330.75 1012.7 1332.75C974.04 1378.71 849.044 1354.49 784.484 1322.11C719.924 1289.72 754.891 1278.45 800.093 1257.07C845.296 1235.68 920.168 1264.65 946.241 1258.52C972.315 1252.37 942.325 1231.16 895.831 1222.41C849.336 1213.67 814.311 1253.09 738.843 1240.32C663.373 1227.55 644.527 1074.05 644.527 1074.05C691.095 1103.49 789.737 1099.96 797.952 1083.37C806.167 1066.8 670.791 1032.28 651.18 1021.36C631.569 1010.45 606.084 958.52 651.472 880.547" fill="#DFEBFD"/>
<path d="M1694.84 1276.03C1747.55 1203.41 1874.53 1280.65 1874.53 1280.65C1874.53 1280.65 1913.43 1457.57 1939.13 1471.21C1964.84 1484.84 1935.41 1313.44 1935.41 1313.44C1989.61 1328.27 2098.48 1443 2098.48 1443C2098.48 1443 2027.21 1605.07 2055.48 1611.96C2083.75 1618.84 2111.27 1465.23 2111.27 1465.23C2156.09 1499.64 2180.87 1576.63 2180.87 1576.63C2203.35 1695.2 2049.93 1717.93 2049.93 1717.93C2049.93 1717.93 2026.45 1774.64 2036.85 1853.88H2036.87C2036.87 1853.88 2040.24 1869.05 2040.52 1892.79L2026.72 1887.55C2027 1883.41 2027.12 1879.37 2027.05 1875.41C2027.05 1875.39 2027.05 1875.37 2027.04 1875.35C2027.04 1875.28 2027.04 1875.23 2027.04 1875.17C2026.91 1872.68 2026.71 1869.13 2026.41 1864.8C2026.41 1864.79 2026.41 1864.79 2026.41 1864.77C2026.41 1864.77 2026.4 1864.76 2026.41 1864.76C2025.33 1854.91 2024.8 1847.73 2024.68 1842.64C2024.67 1842.63 2024.67 1842.61 2024.68 1842.6C2021.89 1811.91 2016.53 1771.24 2007.09 1759.56C2007.09 1759.56 2009.43 1757.99 2012.45 1754.35C2010.73 1756.01 2008.96 1757.75 2007.09 1759.56C1964.24 1801.17 1842.99 1764.72 1782.35 1726.23C1721.69 1687.73 1757.43 1680.08 1804.28 1663.44C1851.15 1646.79 1922.33 1682.93 1948.75 1679.47C1975.16 1676 1947.6 1652.01 1902.48 1638.72C1857.35 1625.41 1818.75 1660.93 1745.35 1640.75C1671.96 1620.56 1668.64 1466.81 1668.64 1466.81C1711.77 1500.59 1809.73 1506.95 1819.52 1491.36C1829.31 1475.77 1698.8 1428.09 1680.49 1415.35C1662.17 1402.59 1642.15 1348.65 1694.84 1276.03" fill="#DFEBFD"/>
<path d="M2046.16 2034.44C2046.16 2034.44 2027.04 2101.47 2030.72 2127.51L1958.35 2127.31C1956.84 2112.61 1960.39 2096.64 1972.61 2080.28C1972.61 2080.28 2009.61 2041.83 2046.16 2034.44" fill="#DFEBFD"/>
<path d="M2320.68 2128.27L2046.27 2127.55C2057.13 2099.91 2060.17 2024.96 2060.17 2024.96C2060.17 2024.96 2157.93 1988.52 2194.35 1995.45C2194.35 1995.45 2127.24 2088.49 2146.41 2087.85C2165.6 2087.24 2239.93 1993.67 2239.93 1993.67C2239.93 1993.67 2337.56 1984.69 2347.75 2043C2356.89 2095.35 2335.65 2121.79 2320.68 2128.27Z" fill="#DFEBFD"/>
<path d="M2896.99 2129.8L2637.24 2129.11C2654.08 2121.91 2676.05 2115.13 2699.65 2107.07C2758.76 2086.87 2839.31 2114.72 2896.99 2129.8Z" fill="#DFEBFD"/>
<path d="M3028.97 2130.88L2793.85 2130.25C2798.76 2119.84 2768.76 2098.53 2725.33 2085.16C2670.05 2068.15 2622.08 2111.23 2532.15 2085.33C2442.23 2059.43 2440.43 1870.37 2440.43 1870.37C2492.95 1912.53 2613.28 1921.81 2625.53 1902.79C2637.8 1883.77 2478.08 1823.23 2455.76 1807.28C2433.44 1791.33 2409.61 1724.72 2475.47 1636.24C2541.33 1547.75 2696.29 1644.57 2696.29 1644.57C2696.29 1644.57 2741.49 1862.65 2772.88 1879.8C2804.27 1896.93 2770.64 1685.8 2770.64 1685.8C2837.07 1704.81 2969.19 1847.48 2969.19 1847.48C2969.19 1847.48 2879.17 2045.65 2913.83 2054.53C2948.48 2063.41 2984.57 1875 2984.57 1875C3039.17 1917.97 3068.48 2012.96 3068.48 2012.96C3078.11 2067.31 3058 2104.99 3028.97 2130.88" fill="#DFEBFD"/>
<path d="M811.077 1523.89C811.08 1523.4 803.904 1508.57 806.187 1507.44C808.468 1506.29 812.556 1506.47 813.032 1509.07C813.508 1511.67 811.077 1523.89 811.077 1523.89" fill="#FFB27D"/>
<path d="M703.997 1339.55C703.997 1339.55 661.935 1289 639.667 1321.35C639.667 1321.35 623.053 1328.23 617.045 1356.51C610.915 1385.36 630.1 1407.29 640.02 1401.87C646.383 1398.4 651.199 1409.53 651.199 1409.53L703.997 1339.55" fill="#233862"/>
<path d="M756.167 1608.51C789.608 1596.19 821.816 1538.97 821.816 1538.97L811.269 1531.59C802.485 1544.44 762.967 1569.11 762.967 1569.11C762.064 1558.28 760.755 1548.45 759.139 1539.56C748.167 1479.08 723.071 1461.16 716.333 1457.36C715.247 1456.73 714.633 1456.49 714.633 1456.49C714.633 1456.49 714.656 1456.95 714.708 1457.79C714.805 1459.6 715.019 1463.28 715.369 1468.29C717.983 1505.75 728.224 1618.81 756.167 1608.51" fill="#FFB27D"/>
<path d="M644.261 1316.21C644.261 1316.21 638.607 1293.59 605.38 1300.67C605.38 1300.67 621.287 1298.65 625.645 1304.79C625.645 1304.79 613.039 1299.01 605.144 1303.84C597.251 1308.68 595.955 1324.93 597.133 1329.88C598.311 1334.83 607.029 1349.56 612.804 1349.56C618.576 1349.56 625.411 1344.49 625.411 1344.49L644.261 1316.21" fill="#233862"/>
<path d="M594.543 1670.27C611.064 1633.21 618.968 1622.73 619.244 1611.08C619.463 1601.87 614.917 1591.92 606.087 1567.53C604.009 1561.79 602.573 1555.87 601.691 1549.89C594.707 1502.88 621.896 1452.05 638.796 1448.59C643.497 1447.35 651.468 1430.36 651.369 1403L653.487 1403.41L689.069 1410.47C689.069 1410.47 688.26 1421.67 688.236 1432.21C688.212 1441 688.744 1449.33 690.735 1450.39C693.296 1450.61 694.807 1450.77 694.807 1450.77C694.807 1450.77 724.477 1491.97 726.972 1530.29C729.468 1568.61 703.213 1585.27 727.171 1661.85C751.631 1740.07 585.417 1690.73 594.543 1670.27" fill="#FFB27D"/>
<path d="M689.071 1410.47C689.071 1410.47 688.26 1421.67 688.236 1432.21C668.324 1431.65 657.799 1413.48 653.487 1403.41L689.071 1410.47Z" fill="#E8945B"/>
<path d="M649.811 1399.55C649.811 1399.55 639.376 1383.05 636.872 1368.96C635.084 1358.89 640.211 1321.59 677.703 1326.95C677.703 1326.95 688.592 1328.03 698.827 1334.95C706.967 1340.44 718.715 1352.31 705.58 1384.87L702.167 1395.87L649.811 1399.55Z" fill="#233862"/>
<path d="M695.72 1420.45C695.72 1420.45 648.608 1421.23 648.576 1391.88C648.543 1362.53 642.441 1342.87 672.519 1341.13C702.597 1339.4 708.453 1350.59 710.847 1360.39C713.24 1370.17 707.973 1419.49 695.72 1420.45Z" fill="#FFB27D"/>
<path d="M693.976 1340.41C693.976 1340.41 681.077 1374.84 661.281 1379.93C641.485 1385.03 632.899 1379.72 632.899 1379.72C632.899 1379.72 648.083 1367.65 651.233 1346.6C651.233 1346.6 684.247 1324.03 693.976 1340.41Z" fill="#233862"/>
<path d="M690.779 1343.21C690.779 1343.21 700.412 1350.89 702.761 1358.37C705.109 1365.84 706.167 1381.23 710.649 1380.71C710.649 1380.71 720.368 1357.31 709.445 1344.07C697.865 1330.03 690.779 1343.21 690.779 1343.21" fill="#233862"/>
<path d="M636.259 2025.79C648.111 2072.95 665.953 2109.09 665.953 2109.09L681.489 2108.01C681.489 2108.01 673.871 2071.77 674.308 2022.8C674.616 1988.56 678.851 1948.09 692.379 1909.47C738.864 1776.71 731.351 1680.08 731.351 1680.08L643.933 1690.31L639.861 1690.79C639.497 1730.93 638.46 1785.44 637.553 1828.07C636.752 1866.4 636.048 1895.11 636.048 1895.11C619.241 1931.31 625.345 1982.4 636.259 2025.79" fill="#163560"/>
<path d="M533.272 1709.63L547.416 1713.87C547.416 1713.87 594.071 1636.45 598.313 1616.31C599.697 1609.75 603.089 1596.63 607.049 1581.92C615.241 1551.48 625.815 1514.23 625.815 1514.23L629.296 1499.13L641.172 1447.71C641.172 1447.71 618.431 1450.03 605.131 1455.59C600.725 1457.43 597.365 1459.63 596.192 1462.2C586.42 1483.68 576.665 1537.91 569.808 1576.59C565.987 1598.15 563.072 1614.88 561.551 1618.43C557.308 1628.32 544.347 1682.76 533.272 1709.63" fill="#FFB27D"/>
<path d="M586.105 2018.27C591.132 2071.91 613.264 2106.6 613.264 2106.6L620.685 2111.99C620.685 2111.99 627.709 2074.2 632.68 2029.23C637.416 1986.49 643.909 1941.28 651.251 1927.47C680.404 1872.72 689.18 1666.07 689.18 1666.07L600.548 1661.67C591.635 1676.65 587.748 1701.23 586.825 1729.17C584.493 1799.71 601.073 1891.68 603.552 1904.97C603.552 1904.99 603.552 1905 603.559 1905.01C603.753 1906.04 603.455 1907.05 602.976 1907.99C585.344 1942.89 582.793 1982.83 586.105 2018.27" fill="#1C468A"/>
<path d="M692.568 1344.37C692.568 1344.37 683.379 1380.43 658.4 1391.97C658.4 1391.97 683.379 1369.83 685.5 1346.03C687.62 1322.23 692.568 1344.37 692.568 1344.37Z" fill="#233862"/>
<path d="M583.433 1697.01C583.279 1700 583.441 1702.39 583.984 1704.09C585.869 1710.04 592.347 1712.73 608.004 1711.12C617.573 1710.12 621.84 1694.08 623.743 1680.4C629.491 1699.97 637.537 1710.96 647.94 1713.27C663.12 1716.65 739.689 1725.96 744.701 1689.56C750.215 1649.52 733.707 1578.64 732.8 1540.41C735.051 1526.87 735.82 1515.11 735.577 1505C734.937 1477.77 726.947 1462.51 720.803 1456.37C719.061 1455.03 717.321 1454.2 710.335 1453C706.764 1452.39 701.819 1451.69 694.807 1450.77C694.807 1450.77 691.947 1450.44 692.012 1450.55C693.307 1452.87 710.651 1479.12 709.299 1485.88C707.881 1492.95 646.379 1486.59 642.136 1482.69C637.893 1478.81 631.183 1449.04 631.183 1449.04C631.183 1449.04 609.404 1451.41 598.751 1459.16C598.751 1459.16 598.791 1459.21 598.864 1459.29C597.577 1460.23 596.613 1461.2 596.063 1462.24C584.696 1483.89 573.345 1538.51 565.363 1577.45C584.712 1588.12 601.616 1584.95 606.863 1583.53C600.005 1628.4 584.453 1676.57 583.433 1697.01" fill="#F99746"/>
<path d="M811.269 1531.59C811.264 1530.13 810.049 1509.08 813.795 1504.67C817.54 1500.24 825.189 1493.96 827.595 1494.15C830.001 1494.35 839.409 1506.84 836.58 1516.43C833.752 1526 821.816 1538.97 821.816 1538.97L811.269 1531.59" fill="#FFB27D"/>
<path d="M794.091 1505.84L815.899 1512.37C816.623 1512.6 817.385 1512.19 817.601 1511.47L830.064 1469.88C830.281 1469.16 829.871 1468.39 829.147 1468.17L807.34 1461.64C806.616 1461.43 805.853 1461.84 805.637 1462.56L793.173 1504.13C792.956 1504.87 793.367 1505.63 794.091 1505.84Z" fill="#F1A34F"/>
<path d="M799.757 1507.55L819.537 1513.47C820.821 1513.85 822.173 1513.12 822.557 1511.84L834.415 1472.28C834.799 1471 834.071 1469.65 832.787 1469.27L813.005 1463.33C811.723 1462.95 810.371 1463.68 809.985 1464.96L798.131 1504.52C797.745 1505.8 798.473 1507.16 799.757 1507.55" fill="#D86713"/>
<path d="M586.105 2018.27C591.132 2071.91 613.264 2106.6 613.264 2106.6L620.82 2113.48C620.82 2113.48 627.709 2074.2 632.68 2029.23C627.443 2029.61 604.353 2030.45 586.105 2018.27" fill="#FFB27D"/>
<path d="M636.259 2025.79C648.111 2072.95 665.953 2109.09 665.953 2109.09L681.489 2108.01C681.489 2108.01 673.871 2071.77 674.308 2022.8C669.037 2025.45 658.157 2028.15 636.259 2025.79" fill="#D9935C"/>
<path d="M657.007 2122.12H666.925C670.248 2121.6 672.7 2120.63 676.108 2120.19C681.283 2119.51 683.665 2121.63 684.139 2122.12C684.203 2122.19 684.231 2122.21 684.231 2122.21H726.364C727.424 2120.71 726.407 2117.2 725.409 2114.61C724.739 2112.87 723.275 2111.53 721.465 2111.01C716.997 2109.72 708.189 2108.56 700.123 2101.27C695.584 2097.16 678.208 2086.19 678.208 2086.19L678.116 2086.16C677.733 2086.17 675.917 2086.73 668.013 2093.4C663.928 2096.84 656.964 2088.53 656.964 2088.53C656.964 2088.53 655.656 2089.61 654.681 2091.64C653.896 2093.23 653.324 2095.41 653.776 2098.11C654.405 2101.89 652.376 2108.96 650.757 2113.72C649.775 2116.61 648.948 2118.67 648.948 2118.67C648.948 2118.67 648.473 2121.05 657.007 2122.12Z" fill="#233862"/>
<path d="M654.681 2091.64C657.049 2093.31 662.047 2096.59 665.363 2097.03C669.837 2097.61 678.208 2086.19 678.208 2086.19L678.116 2086.16C677.733 2086.17 675.917 2086.73 668.013 2093.4C663.928 2096.84 656.964 2088.53 656.964 2088.53C656.964 2088.53 655.656 2089.61 654.681 2091.64Z" fill="#466AA5"/>
<path d="M657.007 2122.12H666.925C670.248 2121.6 672.7 2120.63 676.108 2120.19C681.283 2119.51 683.665 2121.63 684.139 2122.12C684.203 2122.19 684.231 2122.21 684.231 2122.21H726.364C727.424 2120.71 726.407 2117.2 725.409 2114.61C724.131 2113.48 723.769 2119.56 723.063 2120.52C722.356 2121.49 688.692 2120.88 686.748 2119.47C684.804 2118.05 678.972 2115.57 670.841 2117.52C663.765 2119.21 653.337 2114.88 650.757 2113.72C649.775 2116.61 648.948 2118.67 648.948 2118.67C648.948 2118.67 648.473 2121.05 657.007 2122.12" fill="#466AA5"/>
<path d="M604.079 2122.12H613.997C617.319 2121.6 619.773 2120.63 623.18 2120.19C628.355 2119.51 630.737 2121.63 631.211 2122.12C631.275 2122.19 631.303 2122.21 631.303 2122.21H673.436C674.496 2120.71 673.477 2117.2 672.481 2114.61C671.809 2112.87 670.347 2111.53 668.536 2111.01C664.069 2109.72 655.26 2108.56 647.195 2101.27C642.656 2097.16 625.279 2086.19 625.279 2086.19L625.188 2086.16C624.805 2086.17 622.989 2086.73 615.085 2093.4C611 2096.84 604.036 2088.53 604.036 2088.53C604.036 2088.53 602.728 2089.61 601.752 2091.64C600.968 2093.23 600.395 2095.41 600.848 2098.11C601.477 2101.89 599.448 2108.96 597.829 2113.72C596.847 2116.61 596.02 2118.67 596.02 2118.67C596.02 2118.67 595.545 2121.05 604.079 2122.12" fill="#233862"/>
<path d="M601.752 2091.64C604.121 2093.31 609.119 2096.59 612.435 2097.03C616.909 2097.61 625.279 2086.19 625.279 2086.19L625.188 2086.16C624.805 2086.17 622.989 2086.73 615.085 2093.4C611 2096.84 604.036 2088.53 604.036 2088.53C604.036 2088.53 602.728 2089.61 601.752 2091.64" fill="#466AA5"/>
<path d="M604.079 2122.12H613.997C617.319 2121.6 619.773 2120.63 623.18 2120.19C628.355 2119.51 630.737 2121.63 631.211 2122.12C631.275 2122.19 631.303 2122.21 631.303 2122.21H673.436C674.496 2120.71 673.477 2117.2 672.481 2114.61C671.201 2113.48 670.841 2119.56 670.135 2120.52C669.427 2121.49 635.763 2120.88 633.819 2119.47C631.875 2118.05 626.043 2115.57 617.913 2117.52C610.836 2119.21 600.409 2114.88 597.829 2113.72C596.847 2116.61 596.02 2118.67 596.02 2118.67C596.02 2118.67 595.545 2121.05 604.079 2122.12" fill="#466AA5"/>
<path d="M718.171 1455.12C718.171 1455.12 747.553 1469.91 757.339 1529.57C757.339 1529.57 747.716 1542.77 734.161 1546.67C732.224 1547.21 730.208 1547.59 728.127 1547.69C711.484 1548.57 718.171 1455.12 718.171 1455.12" fill="#F99746"/>
<path d="M829.845 1495.77C829.845 1495.77 820.764 1481.8 818.545 1482.57C815.377 1483.68 826.779 1501.41 826.779 1501.41C826.779 1501.41 818.331 1488.16 817.011 1489.16C814.004 1491.43 818.791 1499.76 823.536 1506.13C823.536 1506.13 815.041 1498.36 814.765 1499.76C813.795 1504.67 824.091 1516.56 824.091 1516.56L829.845 1503.41V1495.77" fill="#FFB27D"/>
<path d="M836.657 1508.73C836.219 1507.03 834 1473.67 833.052 1476.83C832.104 1480 829.845 1497.49 829.845 1497.49L836.657 1508.73Z" fill="#FFB27D"/>
<path d="M686.516 1403.03C686.516 1403.03 687.331 1406.49 695.933 1405.96C695.933 1405.96 703.157 1405.51 702.936 1401.71C702.936 1401.71 695.932 1399 686.516 1403.03" fill="white"/>
<path d="M533.272 1709.63C533.272 1709.63 516.208 1720.96 513.6 1725.75C510.992 1730.52 504.907 1748.13 504.907 1748.13C504.907 1748.13 509.253 1748.79 513.6 1741.17C517.947 1733.57 532.291 1734.23 537.072 1730.09C541.853 1725.96 547.416 1713.87 547.416 1713.87L533.272 1709.63" fill="#FFB27D"/>
<path d="M545.56 1717.6C545.56 1717.6 542.723 1730.96 539.245 1734.88C535.768 1738.79 530.987 1745.31 529.031 1743.56C527.075 1741.83 531.204 1727.27 531.204 1727.27L545.56 1717.6" fill="#FFB27D"/>
<path d="M515.991 1727.27C515.556 1727.92 500.56 1743.85 500.56 1743.85C500.56 1743.85 505.993 1746.32 507.515 1743.85C509.036 1741.39 515.991 1727.27 515.991 1727.27Z" fill="#FFB27D"/>
<path d="M1750.67 941.253L1889.72 962.84L1798.05 898.693L1793.11 918.827L1759.16 924.546L1750.67 941.253" fill="#9EC3F6"/>
<path d="M1889.72 962.84L1774.53 901.64L1661 894.533L1889.72 962.84Z" fill="white"/>
<path d="M1798.05 898.693L1889.72 962.84L1819.37 863.48L1798.05 898.693Z" fill="white"/>
<path d="M3786.48 1340.44L3672.61 1356.68L3748.17 1305.19L3752.01 1321.69L3779.71 1326.71L3786.48 1340.44" fill="#9EC3F6"/>
<path d="M3672.61 1356.68L3767.37 1307.83L3860.23 1303.16L3672.61 1356.68Z" fill="white"/>
<path d="M3748.17 1305.19L3672.61 1356.68L3731.11 1276.2L3748.17 1305.19Z" fill="white"/>
<path d="M934.744 1214.28H1626.69V1396.03H1134.67V1589.45H1568.27V1771.2H1134.67V2123.01H934.744V1214.28Z" fill="#699FF0"/>
<path d="M2132.51 1752.93L2014.97 1466.07L1897.45 1752.93H2132.51ZM1927.77 1232.28H2107.23L2486.35 2123.2H2282.88L2202 1924.8H1827.95L1747.07 2123.2H1548.67L1927.77 1232.28Z" fill="#699FF0"/>
<path d="M3064.31 1917.99C3064.31 1917.99 3152.6 1872.56 3189.41 1787.83C3205.41 1751 3213.41 1710.75 3213.41 1663.99C3213.41 1512.33 3102.21 1385.97 2945.51 1385.97C2788.81 1385.97 2680.13 1509.81 2680.13 1663.99C2680.13 1815.63 2791.33 1942 2948.04 1942C2991 1942 3030.19 1933.16 3064.31 1917.99ZM3208.36 2045.63C3133.8 2093.65 3044.08 2121.45 2945.51 2121.45C2672.55 2121.45 2476.67 1917.99 2476.67 1663.99C2476.67 1412.51 2675.08 1206.52 2948.04 1206.52C3221 1206.52 3416.88 1409.97 3416.88 1663.99C3416.88 1756.24 3389.08 1844.69 3338.52 1917.99L3429.52 1995.08L3305.67 2132.83L3208.36 2045.63" fill="#699FF0"/>
<path d="M2956.2 1650.73C2956.2 1650.73 2941.28 1672.81 2932.77 1719.21C2925.33 1759.84 2918.8 1774.85 2908.04 1783.19C2897.28 1791.52 2837.33 1816.12 2837.33 1816.12L2841.81 1826.63C2841.81 1826.63 2929.68 1814.65 2939.55 1799.97C2949.41 1785.28 2987.04 1698.52 2984.12 1678.53C2981.2 1658.56 2956.2 1650.73 2956.2 1650.73" fill="#F4A269"/>
<path d="M2712.23 2114.63C2711.33 2123.19 2699.23 2122.91 2685.53 2120.88C2671.85 2118.87 2675.39 2122.45 2656.15 2122.13C2636.91 2121.8 2630.48 2115.24 2629.63 2112.45C2628.88 2110 2638.2 2108.23 2648.19 2106.12C2649.44 2105.87 2650.71 2105.59 2651.96 2105.31C2663.23 2102.81 2670.89 2094.68 2680.68 2087.68C2689.95 2081.04 2702.4 2056.37 2702.4 2056.37L2728.71 2056C2728.71 2056 2716.95 2078.09 2712.49 2087.64C2709.87 2093.25 2710.69 2100.28 2711.59 2105.68C2712.07 2108.61 2712.55 2111.61 2712.23 2114.63Z" fill="#FFB27D"/>
<path d="M2685.53 2120.88C2671.85 2118.87 2675.39 2122.45 2656.15 2122.13C2636.91 2121.8 2630.48 2115.24 2629.63 2112.45C2628.88 2110 2638.2 2108.23 2648.19 2106.12L2648.31 2106.31C2648.31 2106.31 2660.48 2113.33 2676.37 2112.24C2689.32 2111.35 2702.65 2106.36 2711.59 2105.68C2712.07 2108.61 2712.55 2111.61 2712.23 2114.63C2711.33 2123.19 2699.23 2122.91 2685.53 2120.88" fill="#C65447"/>
<path d="M2997.28 1830.31C2997.28 1830.31 2824.83 1831.15 2792.63 1851.47C2760.44 1871.79 2687.16 2081.05 2687.16 2081.05C2687.16 2081.05 2692.87 2088.56 2699.95 2089.53C2711.32 2091.11 2717.77 2086.67 2717.77 2086.67C2717.77 2086.67 2815.97 1988.99 2821.2 1962.32C2826.43 1935.64 2825.15 1911.84 2837.05 1911.2C2848.95 1910.56 2997.31 1929.24 3019.75 1889.71C3042.19 1850.17 3023.64 1811.04 3023.64 1811.04L2997.28 1830.31" fill="#EF7E29"/>
<path d="M2803.84 2110.68C2803.65 2119.28 2791.57 2120.01 2777.76 2119.15C2763.96 2118.28 2767.79 2121.56 2748.59 2122.84C2729.39 2124.12 2722.43 2118.12 2721.35 2115.43C2720.39 2113.04 2729.53 2110.49 2739.31 2107.56C2740.55 2107.2 2741.77 2106.81 2743 2106.44C2754.03 2103 2760.97 2094.27 2770.13 2086.45C2778.83 2079.07 2789.16 2053.44 2789.16 2053.44L2815.35 2050.87C2815.35 2050.87 2805.48 2073.88 2801.84 2083.76C2799.71 2089.57 2801.11 2096.51 2802.45 2101.81C2803.17 2104.69 2803.91 2107.64 2803.84 2110.68" fill="#FFB27D"/>
<path d="M2777.76 2119.15C2763.96 2118.28 2767.79 2121.56 2748.59 2122.84C2729.39 2124.12 2722.43 2118.12 2721.35 2115.43C2720.39 2113.04 2729.53 2110.49 2739.31 2107.56L2739.44 2107.73C2739.44 2107.73 2752.16 2113.72 2767.91 2111.29C2780.73 2109.32 2793.61 2103.24 2802.45 2101.81C2803.17 2104.69 2803.91 2107.64 2803.84 2110.68C2803.65 2119.28 2791.57 2120.01 2777.76 2119.15" fill="#C65447"/>
<path d="M3030.77 1840.91C3030.77 1840.91 2878.87 1848.09 2847.49 1869.65C2816.12 1891.2 2772.05 2072.73 2772.05 2072.73C2772.05 2072.73 2778.65 2081.47 2785.4 2083.88C2793.96 2086.95 2805.51 2083.48 2805.51 2083.48C2805.51 2083.48 2866.49 2010 2870.68 1983.13C2874.85 1956.28 2881.41 1942.47 2893.28 1941.36C2905.15 1940.27 3021.72 1963.03 3075 1912.77C3108.07 1881.57 3030.77 1840.91 3030.77 1840.91Z" fill="#F99746"/>
<path d="M2978.77 1638.59C2975.83 1633.41 2972.29 1624.11 2969.75 1607.28C2970.08 1608.95 2974.43 1630.09 2983.44 1641.63C3018.61 1661.52 3074.2 1736.2 3073.85 1750.28C3073.85 1750.28 3108 1705.08 3108.37 1704.81C3108.37 1704.81 3146.79 1648.64 3095 1621.37C3068.68 1607.52 3067.48 1587.56 3067.37 1570.17C3067.28 1552.77 3054.35 1478.72 3005 1501.61C3005 1501.61 2996.63 1498.53 2993.03 1499.32C2993.03 1499.32 2996.03 1499.69 2997.65 1501.16C2991.76 1501.2 2983.39 1502.19 2976.64 1506.64C2958.77 1518.43 2948.48 1614.21 2978.77 1638.59" fill="#B5453C"/>
<path d="M3037.16 1625.31C3037.16 1625.31 3023.01 1623.97 3008.87 1625.31C2999.25 1626.23 2989.73 1629.21 2984.32 1631.48C2970.93 1637.07 2972.33 1660.77 3000.43 1656.39C3028.52 1652 3039.13 1632.35 3037.16 1625.31Z" fill="#FFB27D"/>
<path d="M2985.51 1642.6C2985.33 1642.68 2981.49 1662.99 2999.89 1662.17C3011.96 1661.64 3038 1647.04 3035.71 1636.69C3034.61 1631.77 3025.49 1619.03 3023.65 1589.93L3021.45 1590.52L2984.49 1600.43C2984.49 1600.43 2986.13 1612.16 2986.89 1623.25C2987.55 1632.59 2987.57 1641.47 2985.51 1642.6" fill="#FFB27D"/>
<path d="M2984.49 1600.43C2984.49 1600.43 2986.13 1612.16 2986.89 1623.25C3007.81 1621.27 3017.63 1601.41 3021.45 1590.52L2984.49 1600.43Z" fill="#F4A269"/>
<path d="M3025.05 1586.17C3025.05 1586.17 3034.88 1568.09 3036.52 1553.08C3037.69 1542.36 3029.68 1503.45 2990.6 1511.73C2990.6 1511.73 2979.21 1513.63 2968.93 1521.63C2960.75 1527.99 2949.21 1541.29 2965.32 1574.64L2969.68 1585.99L3025.05 1586.17" fill="#B5453C"/>
<path d="M2978.2 1611.41C2978.2 1611.41 3027.84 1608.92 3025.81 1578.03C3023.79 1547.13 3028.83 1526.01 2997.05 1526.29C2965.27 1526.57 2959.89 1538.77 2958.05 1549.24C2956.23 1559.72 2965.23 1611.25 2978.2 1611.41" fill="#FFB27D"/>
<path d="M2974.41 1527.04C2974.41 1527.04 2990.41 1562.37 3011.6 1566.35C3032.8 1570.32 3041.47 1564.13 3041.47 1564.13C3041.47 1564.13 3024.63 1552.51 3019.84 1530.56C3019.84 1530.56 2983.51 1509.12 2974.41 1527.04Z" fill="#B5453C"/>
<path d="M2977.97 1529.76C2977.97 1529.76 2968.37 1538.53 2966.43 1546.56C2964.48 1554.59 2964.45 1570.85 2959.69 1570.63C2959.69 1570.63 2947.83 1546.67 2958.39 1531.97C2969.6 1516.39 2977.97 1529.76 2977.97 1529.76" fill="#B5453C"/>
<path d="M2928.53 1832.89C2932.55 1837.69 2945.09 1839.17 2958.49 1841.37C2969.04 1843.12 2980.12 1845.31 2988 1849.93C3005.89 1860.44 3064.36 1895.95 3081.51 1894.33C3088.15 1893.71 3086.91 1881.03 3082.88 1864.2C3076.55 1837.61 3063.28 1800.72 3063.28 1784.67C3063.28 1775.91 3060.37 1755.19 3056.48 1731.49C3056.16 1729.57 3055.84 1727.65 3055.52 1725.71C3047.81 1679.64 3037.16 1625.32 3037.16 1625.32C3037.16 1625.32 3025.27 1651.25 3002.11 1651.25C2978.93 1651.25 2984.32 1631.48 2984.32 1631.48C2984.32 1631.48 2963.17 1633.96 2958.19 1639.35C2953.19 1644.72 2940.52 1667.97 2938.01 1674.32C2938.01 1674.32 2937.49 1682.39 2957.48 1686.23C2957.48 1686.23 2952.61 1708.13 2952.04 1722.73C2951.6 1733.52 2959.4 1767.28 2961.64 1788.28C2962.43 1795.72 2962.53 1801.55 2961.32 1804.2C2959.77 1807.59 2954.77 1810.97 2949.09 1814.28C2937.8 1820.85 2923.76 1827.19 2928.53 1832.89" fill="#2B478B"/>
<path d="M2949.09 1814.28C2936.27 1836.15 2983.87 1842.72 2991.75 1847.35C3009.64 1857.85 3064.36 1895.95 3081.51 1894.33C3088.15 1893.71 3086.91 1881.03 3082.88 1864.2C3076.55 1837.61 3063.28 1800.72 3063.28 1784.67C3063.28 1775.91 3060.37 1755.19 3056.48 1731.49L3035.85 1711.68C3035.85 1711.68 3013.75 1768.81 2992.68 1778.17C2981.64 1783.07 2970.11 1786.31 2961.64 1788.28C2962.43 1795.72 2962.53 1801.55 2961.32 1804.2C2959.77 1807.59 2954.77 1810.97 2949.09 1814.28" fill="#233862"/>
<path d="M3043.49 1642.41C3043.49 1642.41 3061.13 1631.71 3078.19 1652.03C3095.24 1672.33 3066.07 1817.57 3040.8 1825.03C3012.73 1833.32 2931.67 1823.71 2931.67 1823.71L2933.23 1811.04C2933.23 1811.04 3019.53 1794.49 3023.12 1789.88C3026.71 1785.27 3034.53 1644.76 3043.49 1642.41" fill="#FFB27D"/>
<path d="M3037.16 1625.31C3037.16 1625.31 3073.37 1628.59 3083.89 1640.49C3094.41 1652.4 3097.49 1684.68 3097.49 1684.68C3097.49 1684.68 3065.59 1710.44 3027.16 1700.44L3037.16 1625.31" fill="#2B478B"/>
<path d="M2940.27 1810.28C2940.27 1810.28 2912.16 1804.84 2908.99 1806.2C2905.83 1807.56 2888.15 1823.43 2889.96 1826.6C2891.77 1829.77 2899.03 1832.04 2907.17 1829.32C2915.33 1826.6 2933.01 1825.24 2936.19 1821.16C2939.36 1817.08 2940.27 1810.28 2940.27 1810.28" fill="#FFB27D"/>
<path d="M2917.65 1846.97H2965.49V1841.32H2917.65V1846.97Z" fill="#9E332E"/>
<path d="M2927.81 1846.2C2927.35 1844.33 2883.84 1776.01 2883.84 1776.01H2787.03L2835.59 1844.37L2927.81 1846.2" fill="#9E332E"/>
<path d="M2923.73 1846.97C2923.27 1845.11 2879.61 1776.01 2879.61 1776.01H2787.03L2833.23 1846.97H2923.73" fill="#B5453C"/>
<path d="M2842.11 1811.72C2843.07 1814.49 2846.08 1816.73 2848.85 1816.73C2851.61 1816.73 2853.09 1814.49 2852.13 1811.72C2851.19 1808.96 2848.16 1806.71 2845.4 1806.71C2842.63 1806.71 2841.16 1808.96 2842.11 1811.72" fill="#9E332E"/>
<path d="M3601.09 1609.36C3601.09 1609.36 3624.19 1622.49 3630.65 1622.49C3637.12 1622.49 3662.51 1617.59 3669.57 1621.2C3676.65 1624.81 3689.45 1639.36 3691.87 1644.11C3696.19 1652.65 3674.47 1648.88 3664.2 1641.6C3662.72 1640.55 3660.87 1640.16 3659.08 1640.55C3653.76 1641.71 3642.72 1643.71 3637.39 1641.73C3630.21 1639.08 3592.44 1636.13 3592.44 1636.13L3601.09 1609.36" fill="#EA9963"/>
<path d="M3425.36 1430.48C3425.36 1430.48 3449.31 1600.65 3488.96 1615.89C3508.52 1623.41 3594.97 1640.47 3620.55 1642.19C3620.55 1642.19 3626.81 1637.09 3625.29 1616.41C3625.29 1616.41 3534.71 1583.16 3521.84 1565.07C3502.69 1538.16 3533.73 1455.11 3509.69 1429.83C3485.67 1404.55 3445.19 1393.69 3425.36 1430.48Z" fill="#ED7D2B"/>
<path d="M3433.44 1789.01C3440.41 1800.85 3448.49 1811.96 3456.83 1822.47C3482.56 1854.96 3510.57 1881.75 3515.45 1907.07C3516.41 1912.11 3517.96 1917.55 3519.97 1923.27C3522.01 1929.07 3524.53 1935.17 3527.44 1941.48C3538.36 1965.2 3554.69 1991.77 3571 2015.93C3599.19 2057.71 3625.69 2092.56 3625.69 2092.56L3674.29 2090.48C3672.35 2085.61 3651.15 2027.95 3622.79 1957.47C3611.27 1928.85 3599.03 1898.43 3587.21 1869.08C3585.64 1865.16 3584.07 1861.25 3582.51 1857.39C3578.89 1848.4 3575.33 1839.56 3571.87 1830.96C3545.24 1764.79 3524.03 1712.09 3524.03 1712.09C3524.03 1712.09 3417.59 1671.77 3406.53 1697.89C3397.43 1719.44 3404.85 1740.53 3433.44 1789.01" fill="#233862"/>
<path d="M3627.2 2083.72C3627.2 2083.72 3629.69 2123.83 3637.45 2124.4C3638.48 2124.48 3676.81 2124.48 3676.81 2124.48L3725.73 2124.2C3725.73 2124.2 3725.41 2112.4 3711.12 2109.91C3696.81 2107.43 3672.88 2097.37 3664.21 2078.47C3655.09 2058.59 3627.2 2083.72 3627.2 2083.72" fill="#163560"/>
<path d="M3454.49 1957.57C3454.49 1957.57 3418.16 1974.76 3420.51 1982.19C3420.83 1983.17 3435.04 2018.76 3435.04 2018.76L3453.47 2064.08C3453.47 2064.08 3464.29 2059.41 3461.31 2045.21C3458.31 2031 3458.76 2005.04 3473.09 1989.99C3488.17 1974.15 3454.49 1957.57 3454.49 1957.57Z" fill="#163560"/>
<path d="M3467.44 1997.6C3467.44 1997.6 3447.04 1976.96 3443.32 1963.29C3443.32 1963.29 3513.49 1895.09 3538.57 1878.53C3567.37 1859.53 3586.07 1859.43 3581.45 1854.76C3566.31 1839.51 3439.12 1795.01 3418.41 1762.8C3411.28 1751.69 3407.24 1741.16 3405.04 1731.96C3400.35 1712.29 3404.05 1698.72 3404.05 1698.72L3562.27 1694.15C3562.27 1694.15 3679.89 1816.16 3679.23 1862.08C3678.49 1911.72 3467.44 1997.6 3467.44 1997.6Z" fill="#2B478B"/>
<path d="M3518.97 1419.76C3486.96 1428.03 3433.91 1398.37 3433.91 1398.37C3433.91 1398.37 3454.51 1384.53 3462.15 1354.11C3462.53 1352.59 3462.88 1351.01 3463.19 1349.4C3466.55 1348.68 3472.87 1347.35 3479.63 1345.91L3504.08 1367.81C3504.08 1367.81 3503.52 1376.91 3500.45 1392.53C3499.93 1395.27 3499.32 1398.19 3498.61 1401.31C3511.73 1409.44 3518.97 1419.76 3518.97 1419.76" fill="#FFB27D"/>
<path d="M3400.01 1552.43C3404.6 1614.08 3398.57 1707.85 3403.77 1724.09C3408.27 1738.11 3459.4 1729.77 3479.81 1725.09C3487.37 1723.36 3496.52 1720.89 3505.97 1717.97C3532.33 1709.8 3561.07 1698.15 3564.15 1689.49C3564.27 1689.16 3564.37 1688.83 3564.43 1688.49C3564.72 1687.24 3564.65 1686.07 3564.37 1684.87C3563.35 1680.47 3559.39 1675.69 3558.92 1664.77C3558.4 1652.57 3558.48 1638.21 3558.03 1622.77C3558 1621.03 3557.97 1619.13 3557.79 1617.4L3557.77 1616.77C3557.77 1616.44 3557.76 1616.12 3557.75 1615.79C3557.31 1598.56 3556.41 1580.45 3555.36 1562.51C3554.71 1551.23 3553.93 1540.05 3553.05 1529.36C3550.75 1501.73 3547.65 1477.17 3543.55 1461.65C3536.85 1436.33 3522.07 1419.83 3508.63 1407.72L3498.89 1399.39C3488.04 1401.75 3475.2 1400.17 3463.59 1394.68C3451.03 1388.71 3446.68 1384.44 3444.49 1386.05C3415.48 1408.44 3394.61 1477.04 3400.01 1552.43" fill="#F99746"/>
<path d="M3505.97 1717.97C3532.33 1709.8 3561.07 1698.15 3564.15 1689.49C3564.27 1689.16 3564.37 1688.83 3564.43 1688.49C3564.41 1687.29 3564.4 1686.08 3564.37 1684.87C3563.35 1680.47 3559.39 1675.69 3558.92 1664.77C3558.4 1652.57 3558.48 1638.21 3558.03 1622.77C3558 1621.03 3557.97 1619.13 3557.79 1617.4L3557.77 1616.77C3557.77 1616.44 3557.76 1616.12 3557.75 1615.79L3451.17 1480C3451.17 1480 3379.53 1629.19 3505.97 1717.97Z" fill="#ED7D2B"/>
<path d="M3504.08 1367.81C3504.08 1367.81 3503.52 1376.91 3500.45 1392.53C3476.59 1384.83 3465.76 1363.25 3462.15 1354.11C3462.53 1352.59 3462.88 1351.01 3463.19 1349.4C3466.55 1348.68 3472.87 1347.35 3479.63 1345.91L3504.08 1367.81" fill="#EA9963"/>
<path d="M3507.28 1381.6C3507.28 1381.6 3455.23 1372.91 3461.13 1340.57C3467.04 1308.24 3464.31 1285.33 3497.8 1289.52C3531.28 1293.69 3535.47 1307.21 3536.12 1318.48C3536.77 1329.76 3520.99 1383.03 3507.28 1381.6" fill="#FFB27D"/>
<path d="M3712.2 1658.28L3716.8 1659.77L3755.85 1539.56L3751.27 1538.07L3712.2 1658.28Z" fill="#4A75CB"/>
<path d="M3584.36 1649L3716.96 1651.84L3716.8 1659.77L3584.19 1656.93L3584.36 1649Z" fill="#4A75CB"/>
<path d="M3586.84 1663.27C3586.84 1663.27 3629.45 1674.51 3645.43 1673.32C3661.41 1672.15 3674.69 1664.55 3676.71 1660.57C3678.72 1656.61 3682.95 1649.57 3672.07 1650.88C3661.19 1652.17 3646.33 1654.48 3645.88 1652.4C3645.41 1650.31 3654.75 1650.51 3654.75 1650.51C3654.75 1650.51 3657.56 1646.4 3654.01 1646.25C3650.47 1646.11 3640.11 1643.29 3636.25 1645.23C3632.41 1647.15 3628.85 1654.24 3626.05 1653.95C3623.24 1653.65 3590.39 1639.16 3590.39 1639.16L3586.84 1663.27Z" fill="#FFB27D"/>
<path d="M3435.93 1437.47C3435.93 1437.47 3440.97 1609.24 3478.69 1628.76C3497.31 1638.4 3581.36 1664.87 3606.59 1669.39C3606.59 1669.39 3613.37 1665.03 3614.13 1644.31C3614.13 1644.31 3527.77 1601.27 3516.97 1581.87C3500.91 1553 3540.92 1473.89 3519.83 1446.12C3498.72 1418.35 3459.69 1403.08 3435.93 1437.47Z" fill="#F99746"/>
<path d="M3462.15 1354.11C3462.15 1354.11 3461.55 1343.01 3468.39 1336.67C3468.39 1336.67 3466.01 1325.53 3470.41 1323.71C3474.81 1321.87 3475.73 1331.23 3477.75 1329.76C3479.76 1328.29 3488.75 1321.32 3492.6 1311.05C3496.45 1300.79 3531.69 1313.23 3535.8 1315.07C3539.91 1316.92 3553.11 1310.13 3555.67 1304.64C3555.67 1304.64 3548.33 1298.77 3545.04 1294.36C3541.73 1289.96 3518.63 1260.27 3486.36 1268.69C3454.09 1277.13 3449.69 1292.53 3451.52 1305.73C3453.36 1318.93 3448.93 1349.68 3462.15 1354.11" fill="#2B478B"/>
<path d="M2465.99 1471.64C2462.44 1481.16 2456.31 1492.21 2449.87 1494.96C2442.56 1498.07 2439.52 1502.47 2439.52 1502.47L2433.61 1499.05L2426.57 1494.96C2426.57 1494.96 2426.75 1494.17 2427.08 1492.89C2427.43 1491.63 2427.96 1489.87 2428.67 1487.91C2428.67 1487.91 2430.83 1485.13 2429.51 1481.64C2428.19 1478.16 2428.44 1472.77 2430.71 1469.48C2432.96 1466.2 2435.15 1458.12 2436.51 1458.36C2439.8 1458.92 2434.88 1470.04 2436.29 1472.11C2437.57 1473.96 2439.16 1473.32 2439.45 1473.19C2439.48 1473.17 2439.49 1473.16 2439.52 1473.15C2448.76 1469.09 2459.96 1447.19 2464.92 1450.15C2466.77 1451.25 2467.49 1467.59 2465.99 1471.64" fill="#FFB27D"/>
<path d="M2434.01 1484.89L2445.59 1493.03C2446.41 1493.6 2447.55 1493.4 2448.12 1492.59L2477.77 1450.4C2478.35 1449.59 2478.15 1448.44 2477.33 1447.87L2465.76 1439.73C2464.93 1439.16 2463.8 1439.36 2463.23 1440.17L2433.57 1482.36C2433 1483.19 2433.2 1484.32 2434.01 1484.89Z" fill="#2B478B"/>
<path d="M2444.61 1492.35L2451.4 1497.11C2452.03 1497.55 2452.89 1497.4 2453.32 1496.77L2483.48 1453.88C2483.91 1453.25 2483.76 1452.39 2483.13 1451.95L2476.35 1447.19C2475.73 1446.75 2474.87 1446.89 2474.43 1447.52L2444.28 1490.41C2443.84 1491.04 2443.99 1491.91 2444.61 1492.35" fill="#233862"/>
<path d="M2267.97 1424.36C2267.97 1424.36 2326.87 1527.08 2348.24 1545.99L2426.57 1487.57C2426.57 1487.57 2437.95 1491.05 2442.92 1502.47C2442.92 1502.47 2395.35 1599.4 2348.51 1603.51C2301.67 1607.61 2235.92 1487.33 2235.92 1487.33L2267.97 1424.36" fill="#233862"/>
<path d="M2134.71 2123.01H2100.67C2096.39 2120.69 2092.57 2115.37 2091.36 2107.43C2089.71 2096.47 2077.41 2090.49 2074.76 2081.52C2072.11 2072.56 2085.72 2059.93 2085.72 2059.93L2088 2057L2090.37 2053.95L2112.95 2059.27C2112.95 2059.27 2113.51 2064.65 2113.85 2071.51C2114.09 2076.44 2114.23 2082.16 2113.95 2087.17C2113.28 2099.12 2117.29 2112 2127.92 2114.33C2135.77 2116.04 2135.43 2120.71 2134.71 2123.01Z" fill="#233862"/>
<path d="M2332.19 2123.01H2254.36C2250.63 2118.45 2252 2101.6 2252.57 2096.09C2252.68 2094.99 2252.76 2094.33 2252.76 2094.33C2252.76 2094.33 2279.33 2073.08 2282.99 2089.36C2283.11 2089.87 2283.24 2090.37 2283.39 2090.87C2287.99 2106.08 2308.61 2113 2320.52 2114.93C2328.27 2116.19 2331.12 2120.21 2332.19 2123.01Z" fill="#233862"/>
<path d="M2317.36 1688.64C2317.36 1688.64 2313.32 1738.99 2308.59 1799.49C2302.13 1881.71 2294.39 1982.68 2293.61 2001.81C2292.29 2035.03 2286.97 2088.16 2286.97 2088.16C2286.97 2088.16 2274.36 2100.79 2249.11 2095.47C2249.11 2095.47 2226.61 2019.61 2220.19 1939.36C2220.09 1938.05 2219.99 1936.72 2219.89 1935.4C2213.91 1853.69 2204.61 1681.67 2204.61 1681.67L2317.36 1688.64" fill="#F99746"/>
<path d="M2317.36 1688.64C2317.36 1688.64 2313.32 1738.99 2308.59 1799.49L2220.19 1939.36C2220.09 1938.05 2219.99 1936.72 2219.89 1935.4C2213.91 1853.69 2204.61 1681.67 2204.61 1681.67L2317.36 1688.64Z" fill="#ED7D2B"/>
<path d="M2298.93 1694.61C2298.93 1694.61 2226.2 1876.95 2178.37 1962.63C2130.56 2048.31 2115.61 2072.23 2115.61 2072.23C2115.61 2072.23 2088.21 2061.27 2085.72 2053.79C2085.72 2053.79 2104 1888.37 2136.03 1848.05C2154.13 1825.27 2175.39 1756.89 2176.39 1732.97C2177.39 1709.07 2182.85 1661.73 2182.85 1661.73L2298.93 1694.61" fill="#F99746"/>
<path d="M2280.83 1428.83C2252.4 1437.79 2203.23 1413.59 2203.23 1413.59C2203.23 1413.59 2229.43 1393.92 2228.05 1353.03L2250.04 1370.73L2264.96 1382.77C2264.96 1382.77 2264.91 1389.85 2263.27 1402.29C2262.84 1405.56 2262.31 1409.2 2261.63 1413.19C2273.83 1419.88 2280.83 1428.83 2280.83 1428.83" fill="#FFB27D"/>
<path d="M2264.96 1382.77C2264.96 1382.77 2264.91 1389.85 2263.27 1402.29C2246.73 1399.45 2227.96 1372.72 2227.96 1372.72C2236.39 1370.28 2243.76 1369.85 2250.04 1370.73L2264.96 1382.77Z" fill="#ED975D"/>
<path d="M2273.65 1382.09C2273.65 1382.09 2226.71 1389.89 2222.31 1360.59C2217.89 1331.28 2208.87 1312.55 2238.65 1306.32C2268.44 1300.11 2275.96 1310.41 2279.81 1319.84C2283.67 1329.25 2285.75 1379.31 2273.65 1382.09Z" fill="#FFB27D"/>
<path d="M2320.49 1692.83C2319.64 1693.55 2318.64 1693.97 2317.51 1693.97C2306.84 1693.83 2275.71 1699.76 2249.37 1697.05C2227.17 1694.92 2207.52 1688.35 2186.43 1678.88C2183.63 1677.63 2177.17 1674.19 2177.32 1671.05C2177.41 1667.63 2177.75 1662.65 2178.17 1656.39C2179.67 1634.6 2182.28 1597.13 2179.73 1553.92C2179.28 1545.87 2179.04 1537.89 2179.01 1530.03C2178.8 1471.45 2190.41 1419.93 2213.75 1402.49C2215.75 1401.07 2227.99 1407.04 2239.23 1412.59C2249.61 1417.72 2260.01 1418.28 2269.83 1416.29L2279.64 1424.97C2291.6 1436.08 2304.69 1451.16 2310.39 1474.08C2315.23 1493.57 2318.07 1528.73 2319.64 1565.16C2320.35 1581.68 2320.92 1598.33 2321.07 1614.13V1614.69C2321.2 1616.25 2321.2 1617.97 2321.2 1619.53C2321.77 1660.09 2321.2 1692.25 2320.49 1692.83" fill="#2B478B"/>
<path d="M2178.17 1656.39C2179.67 1634.6 2182.28 1597.13 2179.73 1553.92C2179.28 1545.87 2179.04 1537.89 2179.01 1530.03C2188.73 1506.44 2196.68 1489.33 2196.68 1489.33H2221.19C2221.19 1489.33 2239.16 1612.07 2178.17 1656.39" fill="#233862"/>
<path d="M2052.64 1795.47L2157.16 1810.36C2170.77 1812.31 2183.48 1802.76 2185.43 1789.16L2191.88 1743.87C2193.81 1730.25 2184.27 1717.55 2170.67 1715.6L2066.15 1700.71C2052.55 1698.77 2039.83 1708.32 2037.89 1721.92L2031.44 1767.21C2029.49 1780.81 2039.04 1793.53 2052.64 1795.47Z" fill="#233862"/>
<path d="M2094.93 1694.72C2095.12 1693.35 2096.2 1692.32 2097.49 1692.11C2097.8 1692.05 2098.11 1692.05 2098.43 1692.09L2103.07 1692.75L2120.27 1695.21L2129.64 1696.55C2131.33 1696.79 2132.51 1698.36 2132.27 1700.04L2130.87 1709.81L2093.53 1704.48L2094.93 1694.72ZM2176.57 1729.11C2173.64 1721.75 2167.29 1715.95 2159.25 1713.97C2159.24 1713.97 2159.24 1713.97 2159.23 1713.97C2158.44 1713.79 2157.64 1713.61 2156.81 1713.51L2136 1710.55L2137.4 1700.77C2137.71 1698.59 2137.15 1696.41 2135.83 1694.64C2134.49 1692.87 2132.55 1691.72 2130.37 1691.41L2124.95 1690.64L2103.09 1687.52L2099.15 1686.96C2094.64 1686.32 2090.44 1689.47 2089.8 1693.99L2088.4 1703.76L2052.48 1698.64C2038.83 1696.69 2026.07 1706.27 2024.12 1719.92L2017.59 1765.75C2015.64 1779.4 2025.23 1792.16 2038.88 1794.11L2143.21 1808.97C2145.05 1809.24 2146.87 1809.29 2148.65 1809.15C2148.67 1809.15 2148.67 1809.15 2148.67 1809.15C2151.52 1808.93 2154.27 1808.23 2156.81 1807.09C2164.48 1803.71 2170.31 1796.56 2171.57 1787.68L2178.11 1741.87C2178.73 1737.4 2178.15 1733.04 2176.57 1729.11" fill="#2B478B"/>
<path d="M2132.12 1660.6C2132.12 1660.6 2126.64 1667.91 2126.41 1670.84C2124.95 1690.64 2133.99 1693.37 2110.56 1704.37C2110.56 1704.37 2100.56 1708.19 2100.4 1700.43C2100.23 1692.67 2107.33 1692.53 2106.04 1681.67C2104.53 1669.13 2104.69 1669.01 2112.92 1662.47L2118.36 1653.45L2132.12 1660.6Z" fill="#FFB27D"/>
<path d="M2118.17 1666.2C2126.99 1667.92 2136.56 1667.23 2136.56 1667.23C2136.56 1667.23 2162.76 1586.29 2166.13 1578.91C2169.51 1571.51 2243.95 1484 2243.95 1484L2212.93 1406.39C2212.93 1406.39 2132.41 1540.89 2124.24 1559.79C2110.72 1591.03 2106.04 1661.05 2106.04 1661.05C2106.04 1661.05 2111.24 1664.85 2118.17 1666.2Z" fill="#2B478B"/>
<path d="M2222.27 1357.76C2222.27 1357.76 2227.08 1356.96 2226.31 1350.32C2225.52 1343.68 2225.53 1335.01 2230.93 1336.63C2236.33 1338.24 2236.6 1342.56 2238.81 1340.04C2241.03 1337.52 2241.07 1326.89 2257.12 1326.15C2273.17 1325.41 2279.69 1331 2287.16 1327.72C2294.63 1324.44 2295.03 1313.13 2295.03 1313.13C2295.03 1313.13 2292.89 1317.17 2289.69 1318.45C2289.69 1318.45 2302.15 1301.43 2287.72 1289.75C2273.31 1278.07 2258.6 1285.71 2250.27 1286.21C2231.88 1287.32 2220 1288.43 2214 1300.51C2207.99 1312.59 2210.47 1346.13 2222.27 1357.76" fill="#2B478B"/>
<path d="M2123.47 1669.31C2123.47 1669.31 2128.75 1674.81 2129.08 1677.11C2130.16 1684.47 2132.61 1687.65 2131.39 1688.45C2128.83 1690.11 2125.44 1684.67 2123.81 1679.77C2122.2 1674.89 2123.47 1669.31 2123.47 1669.31Z" fill="#FFB27D"/>
<path d="M4103.57 2132.83H315.348C312.912 2132.83 310.919 2130.83 310.919 2128.39V2126.57C310.919 2124.15 312.912 2122.15 315.348 2122.15H4103.57C4106.01 2122.15 4108 2124.15 4108 2126.57V2128.39C4108 2130.83 4106.01 2132.83 4103.57 2132.83Z" fill="#2E3552"/>
<path d="M1238.42 1170.71C1254.05 1199.72 1274.73 1214.28 1274.73 1214.28H1360.8C1360.8 1214.28 1226.49 1148.57 1238.42 1170.71Z" fill="#233862"/>
<path d="M1298.36 1393.55C1300.53 1396.17 1300.74 1399.04 1299.55 1402.08C1299.54 1402.09 1299.54 1402.11 1299.52 1402.12C1297.32 1407.72 1290.38 1413.85 1282.35 1419.96C1281.32 1420.75 1280.41 1421.45 1279.61 1422.12C1279.4 1422.29 1279.19 1422.47 1278.99 1422.64C1278.83 1422.77 1278.67 1422.92 1278.52 1423.04C1271 1429.6 1273.72 1431.23 1260.18 1444.57C1244.73 1459.8 1234.39 1459.8 1231.48 1458.29C1229.03 1457.01 1234.31 1448.87 1240.17 1439.69C1240.45 1439.25 1240.73 1438.81 1241.02 1438.36C1241.8 1437.15 1242.57 1435.91 1243.35 1434.68C1250.22 1423.65 1248.68 1418.35 1247.57 1401.63C1246.68 1388.03 1228.55 1325.31 1228.55 1325.31L1257.46 1321.13C1257.46 1321.13 1264.78 1370.89 1274.12 1378.77C1279.12 1382.97 1284.83 1383.19 1289.65 1386.33C1290 1386.55 1290.33 1386.77 1290.66 1387C1293.4 1388.93 1296.19 1390.91 1298.36 1393.55Z" fill="#FFB27D"/>
<path d="M1298.36 1393.55C1300.53 1396.17 1300.74 1399.04 1299.55 1402.08C1299.54 1402.09 1299.54 1402.11 1299.52 1402.12C1296.86 1407.71 1290.09 1413.81 1282.32 1419.89C1281.31 1420.69 1280.41 1421.43 1279.61 1422.12C1279.4 1422.29 1279.19 1422.47 1278.99 1422.64C1278.83 1422.77 1278.67 1422.92 1278.52 1423.04C1271 1429.6 1273.72 1431.23 1260.18 1444.57C1244.73 1459.8 1234.39 1459.8 1231.48 1458.29C1229.03 1457.01 1234.31 1448.87 1240.17 1439.69C1243.12 1438.71 1256.85 1433.56 1267.47 1420.71C1276.83 1409.41 1283.26 1394.75 1289.65 1386.33C1290 1386.55 1290.33 1386.77 1290.66 1387C1293.4 1388.93 1296.19 1390.91 1298.36 1393.55Z" fill="#233862"/>
<path d="M1066.79 1369.25C1064.78 1378.08 1052.15 1376.25 1038.1 1372.41C1024.05 1368.57 1027.3 1372.77 1007.23 1370C987.152 1367.21 981.257 1359.55 980.724 1356.53C980.248 1353.87 990.221 1353.2 1000.93 1352.25C1002.27 1352.15 1003.62 1352.01 1004.98 1351.88C1017.07 1350.71 1026.1 1343.17 1037.22 1337.08C1047.75 1331.32 1063.89 1307.09 1063.89 1307.09L1091.44 1310.04C1091.44 1310.04 1076.35 1331.65 1070.49 1341.07C1067.04 1346.6 1067.01 1354.05 1067.27 1359.81C1067.39 1362.93 1067.51 1366.13 1066.79 1369.25" fill="#FFB27D"/>
<path d="M1038.1 1372.41C1024.05 1368.57 1027.3 1372.77 1007.23 1370C987.152 1367.21 981.257 1359.55 980.724 1356.53C980.248 1353.87 990.221 1353.2 1000.93 1352.25L1001.02 1352.47C1001.02 1352.47 1012.86 1361.36 1029.61 1362.21C1043.26 1362.92 1057.84 1359.4 1067.27 1359.81C1067.39 1362.93 1067.51 1366.13 1066.79 1369.25C1064.78 1378.08 1052.15 1376.25 1038.1 1372.41" fill="#233862"/>
<path d="M1177.42 1195.57L1201.34 1265.73L1232.57 1357.35C1232.57 1357.35 1241.69 1358.48 1250.52 1356.2C1258.65 1354.08 1268.06 1348.24 1268.06 1348.24C1268.06 1348.24 1261.36 1250.61 1245.43 1194.23C1241.34 1179.76 1236.65 1168.01 1231.29 1161.33C1205.1 1128.61 1177.42 1195.57 1177.42 1195.57" fill="#233862"/>
<path d="M1206.67 1085.97C1223.73 1080.99 1271.77 1089.31 1319.96 1100.11L1330.56 1083.65L1435.44 1078.33C1435.44 1078.33 1467.88 1155.85 1447.65 1204.13C1444.68 1211.23 1439.43 1214.37 1430 1214.28C1430 1214.28 1429.24 1214.28 1428.13 1214.28C1428.13 1214.28 1365.83 1214.83 1345.61 1214.28C1293.56 1212.85 1236.41 1174.47 1228.93 1172.76C1216.69 1169.96 1211.1 1194.44 1198.1 1219.93C1185.09 1245.44 1079.34 1331.19 1079.34 1331.19C1079.34 1331.19 1063.46 1330.92 1056.96 1328.28C1049.98 1325.44 1047.49 1321.93 1047.49 1321.93C1047.49 1321.93 1168.2 1097.24 1206.67 1085.97" fill="#2B478B"/>
<path d="M1335.11 939.547C1371.81 961.08 1446.25 1005.68 1446.65 1005.41C1446.65 1005.41 1474.16 1016.64 1490.2 1006.6C1516.96 989.867 1532.32 943.294 1485.37 901.574C1461.96 880.76 1445.07 875.387 1443.36 843.134C1442.43 825.64 1420.13 767.36 1380.33 771.614C1377 771.96 1373.65 772.2 1370.32 772C1365.69 771.72 1358.03 772.187 1350.05 776.64C1327.25 789.4 1279.45 930.08 1335.11 939.547" fill="#233862"/>
<path d="M1366.81 922.934C1366.65 923.04 1384.97 929.854 1397.49 924.707C1409.27 919.894 1418.61 900.987 1418.44 900.96C1413.15 900.574 1407.47 895.787 1403.81 865.307L1401.55 866.054L1363.27 878.654C1363.27 878.654 1365.68 890.894 1367.15 902.521C1368.37 912.281 1368.92 921.614 1366.81 922.934Z" fill="#FFB27D"/>
<path d="M1363.27 878.654C1363.27 878.654 1365.68 890.894 1367.15 902.521C1389.01 899.187 1398.16 877.734 1401.55 866.054L1363.27 878.654Z" fill="#ED975D"/>
<path d="M1357.29 890.573C1357.29 890.573 1409.33 885.026 1405.39 852.666C1401.43 820.306 1405.49 797.8 1372.09 799.973C1338.69 802.146 1333.76 815.28 1332.45 826.4C1331.14 837.52 1343.65 891.173 1357.29 890.573Z" fill="#FFB27D"/>
<path d="M1334.83 808.787C1334.83 808.787 1367.24 838.307 1389.76 841.227C1412.27 844.147 1421.01 837.134 1421.01 837.134C1421.01 837.134 1408.01 825.72 1400.48 807.667C1398.27 802.347 1393.37 798.6 1387.65 797.947C1371.57 796.12 1341.03 794.654 1334.83 808.787" fill="#233862"/>
<path d="M1355.64 806.788C1355.64 806.788 1344.24 817.227 1340.53 825.094C1336.95 832.694 1335.43 851.041 1337.92 858.414C1337.92 858.414 1321.54 824.307 1331.78 808.227C1342.64 791.174 1355.64 806.788 1355.64 806.788Z" fill="#233862"/>
<path d="M1321.07 998.134C1319.78 1103.15 1319.24 1081.17 1330.45 1091.45C1333.15 1093.92 1340.89 1095.56 1351.11 1096.52C1383.24 1099.53 1439.96 1095.77 1442.28 1089.88C1450.27 1069.51 1445.2 1062.96 1452.24 1031.63C1452.99 1028.29 1453.88 1024.68 1454.92 1020.76C1460.68 999.254 1465.91 992.027 1448.53 956.761C1432.77 924.814 1416.21 898.787 1414.63 899.667C1370.08 924.494 1367.15 902.521 1367.15 902.521C1367.15 902.521 1321.7 946.907 1321.07 998.134" fill="white"/>
<path d="M1201.34 1265.73L1232.57 1357.35C1232.57 1357.35 1241.69 1358.48 1250.52 1356.2C1258.65 1354.08 1268.06 1348.24 1268.06 1348.24C1268.06 1348.24 1261.36 1250.61 1245.43 1194.23L1201.34 1265.73Z" fill="#2B478B"/>
<path d="M1367.15 902.521C1367.15 902.521 1321.83 908.934 1316 928.214C1310.17 947.494 1275.89 1060.81 1275.89 1060.81C1275.89 1060.81 1298.71 1065.56 1309.59 1055.25C1320.48 1044.95 1349.13 957.974 1349.13 957.974L1367.15 902.521" fill="white"/>
<path d="M1351.11 1096.52C1383.24 1099.53 1439.96 1095.77 1442.28 1089.88C1450.27 1069.51 1445.2 1062.96 1452.24 1031.63L1437.91 987.48C1437.91 987.48 1439.15 1036.24 1424.45 1048.65C1409.76 1061.07 1365 1071.76 1357.72 1082.28C1354.21 1087.32 1351.87 1092.4 1351.11 1096.52Z" fill="#EBF3FF"/>
<path d="M1388.55 1077.05C1388.55 1077.05 1356.99 1069.12 1351.79 1071.8C1346.59 1074.47 1333.77 1084.4 1332.11 1087.92C1330.45 1091.45 1343.6 1085.52 1347.84 1084.51C1350.6 1083.84 1357.72 1086.55 1361.25 1087.83C1376.11 1093.23 1385.36 1090.91 1385.36 1090.91L1388.55 1077.05Z" fill="#FFB27D"/>
<path d="M1414.65 899.641C1414.65 899.641 1457.23 903.427 1471.43 924.414C1491.41 953.961 1529.27 1078.59 1505.2 1094.41C1478.08 1112.24 1383.99 1095.97 1383.99 1095.97C1383.99 1095.97 1381.24 1081.19 1385.81 1074.2C1390.39 1067.21 1461.77 1057.67 1465.15 1054.48C1468.52 1051.28 1425.88 989.387 1426.15 979.547C1426.41 969.707 1414.65 899.641 1414.65 899.641" fill="white"/>
<path d="M1350 1080.59C1350 1080.59 1343.12 1088.99 1340.91 1089.96C1338.69 1090.92 1337.29 1090.63 1337.29 1090.63L1342 1082.68L1350 1080.59" fill="#FFB27D"/>
<path d="M1351.79 1071.8L1332.18 1080.67C1332.18 1080.67 1332.97 1082.03 1335.35 1081.99C1337.73 1081.95 1343.8 1079.91 1343.8 1079.91L1351.79 1071.8" fill="#FFB27D"/>
<path d="M1340.55 1103.11L1187.53 1098.93L1144.62 983.214L1297.4 987.374L1340.55 1103.11" fill="#F99746"/>
<path d="M1185.86 1094.43L1387.92 1099.93L1387.8 1104.39L1187.53 1098.93L1185.86 1094.43" fill="#ED7D2B"/>
<path d="M1227.72 1042.75C1226.67 1038.69 1229.09 1035.49 1233.11 1035.61C1237.13 1035.72 1241.24 1039.09 1242.29 1043.15C1243.33 1047.21 1240.92 1050.4 1236.89 1050.29C1232.87 1050.19 1228.76 1046.81 1227.72 1042.75Z" fill="white"/>
</g>
<defs>
<clipPath id="clip0_202_2">
<rect width="4266.67" height="2666.67" fill="white"/>
</clipPath>
</defs>
</svg>
