<svg width="32" height="23" viewBox="0 0 32 23" fill="none" xmlns="http://www.w3.org/2000/svg">
<path d="M31.3925 8.33C30.6025 8.66 29.8025 8.89 28.9825 9.02C28.4125 9.12 27.8325 9.17 27.2525 9.17C27.1625 9.17 27.0725 9.17 26.9825 9.16C25.8025 9.14 24.6325 8.91 23.5025 8.48C21.0725 9.4 18.4325 9.4 16.0025 8.48C13.5725 9.4 10.9325 9.4 8.50249 8.48C7.37249 8.91 6.19249 9.14 5.02249 9.16C4.35249 9.19 3.68249 9.14 3.02249 9.02C2.20249 8.89 1.39249 8.66 0.612491 8.33C0.162491 8.14 -0.0775093 7.66 0.0224907 7.19L2.15249 0.780003C2.26249 0.330003 2.66249 0 3.13249 0H28.8725C29.3425 0 29.7425 0.330003 29.8425 0.780003L31.9725 7.19C32.0825 7.66 31.8325 8.14 31.3925 8.33Z" fill="black"/>
<path d="M27.2495 11.1697C27.1245 11.1697 26.9995 11.1677 26.8735 11.1577C25.9105 11.1357 24.9525 10.9977 24.0125 10.7457C21.3345 11.3757 18.5235 11.5017 15.9175 10.6207C13.4985 11.3557 10.9165 11.3497 8.50153 10.5957C7.37453 10.9497 6.21853 11.1397 5.05453 11.1597C4.41353 11.1877 3.72053 11.1357 3.01953 11.0317V21.3997C3.01953 21.9517 3.46753 22.3997 4.01953 22.3997H10.4995C11.0515 22.3997 11.4995 21.9517 11.4995 21.3997V16.3997C11.4995 15.8477 11.9475 15.3997 12.4995 15.3997H19.4995C20.0515 15.3997 20.4995 15.8477 20.4995 16.3997V21.3997C20.4995 21.9517 20.9475 22.3997 21.4995 22.3997H27.9795C28.5295 22.3997 28.9795 21.9497 28.9795 21.3997V11.0357C28.4215 11.1177 27.8385 11.1697 27.2495 11.1697Z" fill="black"/>
</svg>
