<svg width="29" height="33" viewBox="0 0 29 33" fill="none" xmlns="http://www.w3.org/2000/svg">
<path d="M28.6459 25.8248L24.3067 21.5195C23.7643 20.9771 22.8829 20.9771 22.3405 21.5195C21.7981 22.0619 21.7981 22.9433 22.3405 23.4857L24.2728 25.418H9.01773C6.71252 25.418 4.84801 23.5535 4.84801 21.1805C4.84801 18.8753 6.71252 17.0108 9.01773 17.0108H17.1199C20.9845 17.0108 24.1033 13.892 24.1033 10.0274C24.1033 6.16276 20.9845 3.04395 17.1199 3.04395H12.8484C12.0687 3.04395 11.4585 3.65415 11.4585 4.43385C11.4585 5.21355 12.1026 5.82376 12.8484 5.82376H17.1538C19.459 5.82376 21.3235 7.68826 21.3235 9.99347C21.3235 12.2987 19.459 14.1632 17.1538 14.1632H9.01773C5.15311 14.1632 2.0343 17.282 2.0343 21.1805C2.0343 25.0451 5.15311 28.1639 9.01773 28.1639H24.2389L22.3066 30.0962C21.7642 30.6386 21.7642 31.5201 22.3066 32.0625C22.5778 32.3337 22.9507 32.4693 23.2897 32.4693C23.6626 32.4693 24.0016 32.3337 24.2728 32.0625L28.5781 27.7571C28.8493 27.4859 28.9849 27.1469 28.9849 26.774C29.0527 26.435 28.8832 26.096 28.6459 25.8248Z" fill="black"/>
<path d="M8.88214 4.46785C8.88214 2.19654 7.05153 0.332031 4.74632 0.332031C2.44112 0.332031 0.644409 2.16264 0.644409 4.46785C0.644409 6.73915 2.47502 8.60366 4.78022 8.60366C7.08543 8.60366 8.88214 6.73915 8.88214 4.46785Z" fill="black"/>
</svg>
