<svg width="12" height="12" viewBox="0 0 12 12" fill="none" xmlns="http://www.w3.org/2000/svg">
<path d="M11.6035 0.0102101L9.99149 0.303294C9.97817 0.223362 9.9382 0.14343 9.87159 0.07682C9.79166 0.0102101 9.69841 -0.0164339 9.60515 0.0102101L6.67432 0.54309L6.23469 0.103464C6.15476 0.023532 6.03486 -0.0164339 5.92828 0.0102101L0.26644 1.34241C0.106576 1.38238 0 1.51559 0 1.67546V10.3348C0 10.4946 0.119898 10.6278 0.279762 10.6678L7.60686 12C7.62018 12 7.64682 12 7.66014 12C7.74008 12 7.80668 11.9734 7.87329 11.9201C7.9399 11.8668 7.97987 11.7868 7.99319 11.6936L9.60515 12C9.61848 12 9.64512 12 9.65844 12C9.73837 12 9.80498 11.9734 9.87159 11.9201C9.9382 11.8668 9.97817 11.7868 9.99149 11.6936L11.6035 12C11.6168 12 11.6434 12 11.6567 12C11.7367 12 11.8033 11.9734 11.8699 11.9201C11.9498 11.8535 11.9898 11.7602 11.9898 11.667V0.34326C11.9898 0.250006 11.9498 0.156752 11.8699 0.090142C11.79 0.023532 11.6967 -0.00311193 11.6035 0.0102101ZM5.99489 0.809529L7.19387 2.00851H5.99489V0.809529ZM7.32709 11.2673L0.666099 10.055V1.9419L5.3288 0.849495V2.35488C5.3288 2.54139 5.47534 2.68793 5.66185 2.68793H7.32709V11.2673ZM9.32539 11.2673L7.99319 11.0275V2.00851C7.99319 1.91525 7.95323 1.83532 7.89994 1.76871L7.24716 1.11594L9.32539 0.742919V11.2673ZM11.3237 11.2673L9.99149 11.0275V0.982715L11.3237 0.742919V11.2673Z" fill="black"/>
<path d="M5.32887 6.00513C5.32887 4.89941 4.4363 4.00684 3.33057 4.00684C2.22485 4.00684 1.33228 4.89941 1.33228 6.00513C1.33228 7.11086 2.22485 8.00343 3.33057 8.00343C3.75688 8.00343 4.15654 7.87021 4.48959 7.63042L6.10155 9.24238C6.16816 9.30899 6.24809 9.33563 6.34134 9.33563C6.4346 9.33563 6.51453 9.30899 6.58114 9.24238C6.71436 9.10916 6.71436 8.89601 6.58114 8.77611L4.95586 7.16415C5.19565 6.8311 5.32887 6.43144 5.32887 6.00513ZM3.33057 7.33733C2.59786 7.33733 1.99837 6.73784 1.99837 6.00513C1.99837 5.27242 2.59786 4.67294 3.33057 4.67294C4.06328 4.67294 4.66277 5.27242 4.66277 6.00513C4.66277 6.73784 4.06328 7.33733 3.33057 7.33733Z" fill="black"/>
</svg>
