<svg width="551" height="597" viewBox="0 0 551 597" fill="none" xmlns="http://www.w3.org/2000/svg">
<g clip-path="url(#clip0_104:2)">
<path d="M34.5159 483.555L39.5019 486.403C41.0982 487.318 43.6847 487.316 45.279 486.396L275.693 353.375C277.288 352.455 277.286 350.965 275.689 350.049L270.738 347.225C269.141 346.309 266.554 346.312 264.96 347.232L34.5128 480.229C32.9186 481.149 32.9195 482.639 34.5159 483.555" fill="#DADBD8"/>
<path d="M416.888 520.189C389.426 535.246 344.906 535.246 317.445 520.189C289.985 505.136 289.985 480.724 317.445 465.667C344.906 450.613 389.426 450.613 416.888 465.667C444.348 480.724 444.348 505.136 416.888 520.189Z" fill="#DADBD8"/>
<path d="M486.766 417.863C465.581 429.48 431.233 429.48 410.048 417.863C388.861 406.249 388.861 387.416 410.048 375.8C431.233 364.185 465.581 364.185 486.766 375.8C507.952 387.416 507.952 406.249 486.766 417.863Z" fill="#DADBD8"/>
<path d="M40.7279 480.198L39.7148 479.613C38.0967 478.679 36.7847 476.405 36.7847 474.536L36.7852 132.865C36.7852 130.996 38.0971 128.723 39.7153 127.789L259.872 0.693266C261.49 -0.240067 264.114 -0.240067 265.733 0.693266L266.745 1.27862C268.364 2.21328 269.676 4.48526 269.676 6.35459V348.027C269.676 349.896 268.364 352.168 266.745 353.103L46.5893 480.198C44.9705 481.132 42.3461 481.132 40.7279 480.198Z" fill="#66AFE9"/>
<path d="M269.51 5.1333C269.438 4.85997 269.346 4.58398 269.234 4.31331C269.346 4.58398 269.44 4.85863 269.51 5.1333ZM266.764 1.28929C266.757 1.28529 266.752 1.28128 266.745 1.27861L266.689 1.24665L266.746 1.27861C266.752 1.28261 266.758 1.28529 266.764 1.28929ZM265.005 0.358627C264.421 0.146627 263.766 0.0266344 263.101 -3.22461e-05C263.766 0.0266344 264.422 0.146627 265.005 0.358627Z" fill="white"/>
<path d="M44.5118 133.943L37.6509 129.983C38.1727 129.061 38.9091 128.263 39.7227 127.788L259.87 0.695953C260.684 0.227953 261.746 -0.00671387 262.808 -0.00671387C262.905 -0.00671387 263.004 -0.00401526 263.101 -1.52588e-05C263.766 0.0266514 264.421 0.146658 265.005 0.358658C265.264 0.453324 265.509 0.565287 265.733 0.695953L266.689 1.24667L266.745 1.27864C266.752 1.28131 266.757 1.28532 266.764 1.28932C267.8 1.89999 268.718 3.06267 269.234 4.31334C269.346 4.58401 269.438 4.86 269.51 5.13333C269.574 5.38533 269.621 5.63597 269.648 5.88397C269.51 4.84664 268.896 4.25995 268.052 4.25995C267.657 4.25995 267.214 4.38664 266.746 4.65598L46.5837 131.763C45.7701 132.223 45.0487 133.036 44.5118 133.943Z" fill="#4F7FA6"/>
<path d="M38.1195 478.146C38.0749 478.088 38.031 478.027 37.9878 477.965C38.031 478.027 38.0749 478.087 38.1201 478.146H38.1195Z" fill="#D5D7D4"/>
<path d="M40.3087 479.956L39.7078 479.615C39.1218 479.275 38.5764 478.757 38.1196 478.146H38.1202C38.5791 478.756 39.127 479.273 39.715 479.613L40.3087 479.956" fill="#C0C1BF"/>
<path d="M43.6435 480.895C42.5904 480.895 41.5378 480.663 40.7358 480.198L40.3086 479.956L39.7148 479.613C39.1268 479.273 38.579 478.756 38.12 478.147C38.0748 478.087 38.031 478.027 37.9878 477.965C37.2623 476.928 36.7915 475.659 36.7915 474.535V132.868C36.7915 131.932 37.1134 130.888 37.6508 129.983L44.5118 133.943C43.9899 134.863 43.6519 135.907 43.6519 136.828V478.51C43.6519 479.829 44.3118 480.596 45.2691 480.596C45.5248 480.596 45.8014 480.541 46.0924 480.428C45.3675 480.739 44.5055 480.895 43.6435 480.895Z" fill="#4F7FA6"/>
<path d="M69.6191 356.627L68.606 356.043C66.9878 355.108 65.6758 352.835 65.6758 350.967V289.555C65.6758 287.685 66.9883 285.413 68.6071 284.479L268.484 168.973C270.102 168.039 272.726 168.039 274.345 168.973L275.357 169.557C276.976 170.492 278.288 172.765 278.288 174.633L278.286 236.047C278.286 237.915 276.974 240.188 275.356 241.123L75.48 356.628C73.8618 357.561 71.2372 357.561 69.6191 356.627Z" fill="#E7E8E5"/>
<path d="M278.258 174.163C278.06 172.644 276.832 172.091 275.358 172.935L75.4749 288.453C74.6613 288.913 73.94 289.727 73.4025 290.632L66.542 286.672C67.0639 285.752 67.8004 284.953 68.6139 284.477L268.481 168.975C270.109 168.039 272.733 168.039 274.345 168.975L275.358 169.559C276.832 170.417 278.074 172.399 278.258 174.163" fill="#FAFAF9"/>
<path d="M74.9837 356.857C73.3723 357.548 71.0853 357.472 69.6269 356.628L68.5988 356.044C66.9868 355.108 65.6821 352.836 65.6821 350.964V289.557C65.6821 288.621 66.0045 287.577 66.542 286.672L73.4029 290.632C72.8805 291.553 72.5431 292.597 72.5431 293.517V354.939C72.5431 356.612 73.6025 357.395 74.9837 356.857" fill="#DADBD8"/>
<path d="M103.742 284.329C115.143 277.748 124.383 282.868 124.382 295.768C124.381 308.667 115.13 324.352 103.718 330.803C92.3064 337.253 83.0553 332.127 83.061 319.36C83.0673 306.592 92.3422 290.912 103.742 284.329Z" fill="#66AFE9"/>
<path d="M69.6191 439.851L68.606 439.267C66.9878 438.332 65.6758 436.06 65.6758 434.191V372.779C65.6758 370.909 66.9883 368.637 68.6071 367.703L268.484 252.197C270.102 251.263 272.726 251.263 274.345 252.197L275.357 252.781C276.976 253.716 278.288 255.989 278.288 257.859L278.286 319.271C278.286 321.139 276.974 323.412 275.356 324.347L75.48 439.852C73.8618 440.785 71.2372 440.785 69.6191 439.851Z" fill="#E7E8E5"/>
<path d="M278.258 257.387C278.06 255.868 276.832 255.315 275.358 256.159L75.4749 371.677C74.6613 372.137 73.94 372.951 73.4025 373.856L66.542 369.896C67.0639 368.976 67.8004 368.177 68.6139 367.701L268.481 252.2C270.109 251.263 272.733 251.263 274.345 252.2L275.358 252.783C276.832 253.643 278.074 255.623 278.258 257.387" fill="#FAFAF9"/>
<path d="M74.9837 440.081C73.3723 440.772 71.0853 440.696 69.6269 439.852L68.5988 439.268C66.9868 438.332 65.6821 436.06 65.6821 434.188V372.783C65.6821 371.845 66.0045 370.803 66.542 369.896L73.4029 373.856C72.8805 374.777 72.5431 375.821 72.5431 376.741V438.164C72.5431 439.836 73.6025 440.619 74.9837 440.081" fill="#DADBD8"/>
<path d="M103.742 367.553C115.143 360.972 124.383 366.092 124.382 378.992C124.381 391.891 115.13 407.576 103.718 414.027C92.3064 420.477 83.0553 415.351 83.061 402.584C83.0673 389.816 92.3422 374.136 103.742 367.553Z" fill="#66AFE9"/>
<path d="M69.6191 217.447L68.606 216.863C66.9878 215.928 65.6758 213.656 65.6758 211.787V150.375C65.6758 148.505 66.9883 146.233 68.6071 145.299L268.484 29.7933C270.102 28.86 272.726 28.86 274.345 29.7933L275.357 30.3774C276.976 31.312 278.288 33.5853 278.288 35.4546L278.286 96.8667C278.286 98.7347 276.974 101.008 275.356 101.943L75.48 217.448C73.8618 218.383 71.2372 218.381 69.6191 217.447Z" fill="#E7E8E5"/>
<path d="M278.258 34.9826C278.06 33.4639 276.832 32.9106 275.358 33.7559L75.4749 149.273C74.6613 149.733 73.94 150.547 73.4029 151.452L66.542 147.492C67.0639 146.572 67.8004 145.773 68.6139 145.297L268.481 29.7959C270.109 28.8586 272.733 28.8586 274.345 29.7959L275.358 30.3786C276.832 31.2386 278.074 33.2173 278.258 34.9826Z" fill="#FAFAF9"/>
<path d="M74.9837 217.677C73.3723 218.368 71.0853 218.292 69.6269 217.448L68.5988 216.864C66.9868 215.928 65.6821 213.656 65.6821 211.784V150.379C65.6821 149.441 66.0045 148.399 66.542 147.492L73.4029 151.452C72.8805 152.373 72.5431 153.417 72.5431 154.337V215.76C72.5431 217.432 73.6025 218.215 74.9837 217.677" fill="#DADBD8"/>
<path d="M103.742 145.149C115.143 138.568 124.383 143.688 124.382 156.588C124.381 169.487 115.13 185.172 103.718 191.623C92.3064 198.073 83.0553 192.947 83.061 180.18C83.0673 167.412 92.3422 151.732 103.742 145.149Z" fill="#66AFE9"/>
<path d="M83.6668 295.417L82.6543 294.833C81.036 293.899 79.7236 291.627 79.7236 289.757L79.7242 228.345C79.7242 226.477 81.036 224.204 82.6548 223.269L282.532 107.764C284.15 106.829 286.774 106.829 288.393 107.764L289.405 108.348C291.024 109.283 292.336 111.556 292.336 113.425V174.837C292.336 176.705 291.022 178.979 289.404 179.913L89.5283 295.419C87.9095 296.353 85.2856 296.352 83.6668 295.417" fill="#263E47"/>
<path d="M292.306 112.953C292.108 111.435 290.88 110.881 289.406 111.725L89.5226 227.244C88.7096 227.704 87.9877 228.517 87.4508 229.423L80.5898 225.463C81.1117 224.543 81.8486 223.744 82.6622 223.268L282.53 107.765C284.157 106.829 286.781 106.829 288.393 107.765L289.406 108.349C290.88 109.208 292.122 111.189 292.306 112.953" fill="#33535F"/>
<path d="M89.0315 295.648C87.4201 296.339 85.1331 296.263 83.6753 295.419L82.6467 294.835C81.0353 293.899 79.7305 291.627 79.7305 289.755V228.348C79.7305 227.412 80.0529 226.368 80.5899 225.463L87.4509 229.423C86.929 230.344 86.5915 231.388 86.5915 232.308V293.731C86.5915 295.403 87.6503 296.185 89.0315 295.648" fill="#17282F"/>
<path d="M117.791 223.12C129.191 216.539 138.432 221.659 138.431 234.559C138.431 247.457 129.178 263.143 117.767 269.593C106.355 276.044 97.1036 270.917 97.1099 258.151C97.1161 245.383 106.391 229.703 117.791 223.12" fill="#F3F2F1"/>
<path d="M118.199 260.224C117.229 260.784 116.304 260.832 115.668 260.349L106.601 253.489C105.389 252.576 105.541 250.045 106.941 247.84C108.339 245.628 110.458 244.588 111.664 245.505L117.983 250.284L135.533 212.565C136.629 210.211 138.725 208.633 140.215 209.035C141.707 209.437 142.027 211.675 140.932 214.027L120.899 257.087C120.295 258.385 119.351 259.509 118.332 260.145L118.199 260.224Z" fill="#26B6A6"/>
<path d="M292.286 204.157L286.49 200.812L286.492 200.827C283.97 199.377 280.889 200.811 279.26 201.812L275.644 199.725C271.254 197.075 265.154 202.617 263.789 203.949L262.225 203.047L262.226 203.049C257.572 200.244 249.117 207.751 249.117 207.751V179.815L252.79 178.035L246.945 174.655L246.932 174.648L246.892 174.624L246.89 174.628C245.548 173.88 243.709 174 241.68 175.172C237.572 177.543 234.241 183.311 234.241 188.055V252.813C228.896 248.848 223.21 246.413 218.224 247.301C213.728 248.1 209.71 251.931 208.544 253.987C206.084 258.323 210.142 261.044 215.372 267.024C220.553 272.951 225.124 280.088 229.845 284.491C234.566 288.895 237.988 290.04 237.988 290.04V298.481L243.732 301.799L281.693 273.248V264.807C281.693 264.807 287.117 243.185 288.849 234.149C290.517 225.447 292.05 211.575 289.185 204.371L292.286 204.159V204.157" fill="#26B6A6"/>
<path d="M252.119 295.491C251.032 288.316 249.469 278.587 249.469 278.587L220.752 262.008L208.176 254.747C207.925 255.357 207.809 255.94 207.809 256.511C207.813 259.472 210.976 262.08 214.915 266.507C210.977 262.083 207.815 259.476 207.807 256.516C207.805 255.713 208.035 254.884 208.544 253.987C209.711 251.931 213.728 248.1 218.224 247.301C218.916 247.177 219.621 247.119 220.337 247.119C224.781 247.119 229.637 249.399 234.241 252.813V188.055C234.241 183.311 237.572 177.543 241.68 175.172C242.872 174.484 243.997 174.159 244.996 174.159C245.697 174.159 246.336 174.319 246.891 174.628L246.892 174.624L246.932 174.648L246.945 174.655L252.791 178.035L249.117 179.815V207.751C249.117 207.751 255.119 202.421 259.793 202.421C260.667 202.421 261.493 202.608 262.227 203.049L262.225 203.047L263.789 203.949C264.897 202.869 269.121 199.016 273.02 199.016C273.927 199.016 274.816 199.225 275.644 199.725L279.26 201.812C280.393 201.116 282.228 200.211 284.088 200.211C284.903 200.211 285.723 200.385 286.492 200.827L286.491 200.812L292.287 204.157V204.159L289.185 204.371L290.801 204.26L287.233 204.097L281.268 200.812C280.493 201.116 279.795 201.484 279.26 201.812L281.124 202.896L285.031 208.519L289.481 205.236C289.387 204.949 289.297 204.655 289.192 204.387C290.351 207.312 290.788 211.332 290.785 215.659C290.783 221.992 289.84 228.983 288.849 234.149C287.117 243.185 281.693 264.807 281.693 264.807V273.248L276.269 277.327C274.117 274.829 272.829 272.973 271.449 272.973C271.088 272.973 270.72 273.1 270.329 273.376C268.923 274.367 269.825 276.344 271.915 279.199C272.16 279.533 272.38 279.833 272.579 280.103L252.119 295.491V295.491ZM234.241 255.983L239.985 256.129V191.371L234.241 188.055V255.983ZM254.861 211.068L261.504 208.629L260.536 207.237L254.861 203.917V203.851L254.839 203.903L254.861 203.917V211.068ZM263.789 203.949L267.789 206.263L269.252 207.547L273.435 204.365L267.672 200.88C265.844 202.024 264.377 203.376 263.789 203.949V203.949ZM215.372 267.024C215.361 267.012 215.352 267.001 215.343 266.991C215.352 267.001 215.361 267.012 215.372 267.024ZM215.325 266.971C215.321 266.967 215.317 266.961 215.313 266.957C215.317 266.961 215.321 266.967 215.325 266.971ZM215.291 266.931C215.288 266.929 215.287 266.927 215.284 266.924C215.287 266.927 215.288 266.928 215.291 266.931ZM215.261 266.897C215.259 266.896 215.257 266.893 215.255 266.892C215.257 266.893 215.259 266.896 215.261 266.897ZM215.231 266.864C215.229 266.861 215.228 266.86 215.227 266.859C215.228 266.86 215.229 266.863 215.231 266.864ZM215.204 266.832C215.201 266.831 215.199 266.827 215.196 266.824C215.199 266.828 215.201 266.829 215.204 266.832ZM215.172 266.797C215.171 266.796 215.171 266.795 215.169 266.793C215.169 266.795 215.172 266.796 215.172 266.797ZM215.145 266.765C215.143 266.764 215.141 266.761 215.139 266.759C215.14 266.761 215.143 266.764 215.145 266.765ZM215.117 266.735C215.113 266.731 215.111 266.728 215.108 266.724C215.111 266.728 215.115 266.731 215.117 266.735ZM215.089 266.703C215.085 266.699 215.081 266.695 215.077 266.691C215.081 266.695 215.085 266.699 215.089 266.703ZM215.06 266.671C215.056 266.665 215.052 266.661 215.048 266.656C215.052 266.661 215.056 266.665 215.06 266.671ZM215.031 266.637C215.027 266.632 215.023 266.628 215.019 266.623C215.023 266.627 215.027 266.632 215.031 266.637ZM215.003 266.605C214.997 266.599 214.992 266.593 214.987 266.587C214.992 266.593 214.997 266.599 215.003 266.605ZM214.973 266.572C214.965 266.563 214.957 266.555 214.949 266.545C214.957 266.555 214.965 266.563 214.973 266.572ZM214.945 266.54C214.936 266.531 214.928 266.521 214.92 266.512C214.928 266.521 214.936 266.531 214.945 266.54Z" fill="#4F7FA6"/>
<path d="M249.469 278.587L220.752 262.008L208.176 254.747C206.576 258.659 210.454 261.401 215.372 267.024C220.553 272.951 225.124 280.088 229.845 284.491C234.566 288.895 237.988 290.04 237.988 290.04V298.481L243.732 301.799L252.118 295.491C251.032 288.316 249.469 278.587 249.469 278.587" fill="#26B6A6"/>
<path d="M239.985 191.371L234.241 188.055V255.983L239.985 256.129V191.371Z" fill="#4F7FA6"/>
<path d="M285.03 208.519L289.481 205.236C289.384 204.944 289.294 204.644 289.185 204.371L290.801 204.26L287.233 204.097L281.268 200.812C280.493 201.116 279.794 201.484 279.26 201.812L281.124 202.896L285.03 208.519" fill="#26B6A6"/>
<path d="M269.252 207.547L273.434 204.365L267.672 200.88C265.844 202.024 264.377 203.376 263.789 203.949L267.789 206.263L269.252 207.547" fill="#26B6A6"/>
<path d="M260.536 207.237L254.838 203.903L254.861 203.851V211.068L261.504 208.629L260.536 207.237Z" fill="#26B6A6"/>
<path d="M243.732 301.799L237.988 298.481V290.04C237.988 290.04 234.566 288.895 229.845 284.491C229.412 284.087 228.98 283.66 228.548 283.212C227.034 281.644 225.53 279.829 224.008 277.9C222.758 276.316 221.497 274.656 220.209 272.991C218.644 270.964 217.038 268.931 215.372 267.024C211.224 262.28 207.813 259.587 207.809 256.511C207.809 255.94 207.925 255.357 208.176 254.747L220.752 262.008L249.469 278.587C249.469 278.587 251.032 288.316 252.118 295.491L243.732 301.799Z" fill="#4F7FA6"/>
<path d="M240.744 256.075L235 255.928V188L240.744 191.316V256.075Z" fill="#4F7FA6"/>
<path d="M285.03 208.519L281.124 202.896L279.26 201.812C279.794 201.484 280.493 201.116 281.268 200.812L287.233 204.097L290.801 204.26L289.185 204.371C289.294 204.644 289.384 204.944 289.481 205.236L285.03 208.519" fill="#4F7FA6"/>
<path d="M269.252 207.547L267.789 206.263L263.789 203.949C264.377 203.376 265.844 202.024 267.672 200.88L273.434 204.365L269.252 207.547Z" fill="#4F7FA6"/>
<path d="M254.861 211.068V203.917L260.536 207.237L261.504 208.629L254.861 211.068Z" fill="#4F7FA6"/>
<path d="M254.861 203.917L254.838 203.903L254.861 203.851V203.917Z" fill="#19B19D"/>
<path d="M243.732 301.799V293.357C243.732 293.357 240.31 292.211 235.589 287.808C230.869 283.404 226.297 276.267 221.116 270.34C215.888 264.361 211.828 261.64 214.288 257.303C215.454 255.247 219.472 251.417 223.968 250.617C228.956 249.731 234.64 252.165 239.985 256.129V191.371C239.985 186.628 243.316 180.86 247.424 178.488C251.532 176.116 254.861 178.039 254.861 182.783V211.068C254.861 211.068 265.11 201.965 269.252 207.547C269.252 207.547 279.321 196.999 283.866 205.909C283.866 205.909 291.26 199.937 294.593 206.867C297.926 213.796 296.325 228.429 294.593 237.465C292.861 246.501 287.437 268.124 287.437 268.124V276.565L243.732 301.799Z" fill="#66AFE9"/>
<path d="M254.861 223.213C254.861 223.213 255.794 210.308 260.536 207.237L260.366 207.287C257.349 208.861 254.861 211.068 254.861 211.068V210.824C254.809 210.987 254.861 211.068 254.861 211.068V223.213Z" fill="#33535F"/>
<path d="M269.252 207.547V219.353C269.252 219.353 270.563 207.213 273.284 204.279C270.965 205.756 269.263 207.536 269.252 207.547" fill="#33535F"/>
<path d="M283.868 205.908V217.757C283.868 217.757 284.589 205.82 287.16 204.057C285.292 204.761 283.877 205.9 283.868 205.908Z" fill="#33535F"/>
<path d="M241.64 167.016C240.717 167.548 239.969 167.232 239.969 166.309V156.94C239.969 156.017 240.717 154.837 241.64 154.305C242.563 153.772 243.311 154.088 243.311 155.011V164.38C243.311 165.303 242.563 166.483 241.64 167.016" fill="#E7E8E5"/>
<path d="M227.644 181.791C226.992 182.92 225.933 183.531 225.281 183.155L219.86 180.024C219.208 179.648 219.208 178.427 219.86 177.297C220.513 176.167 221.57 175.556 222.222 175.933L227.644 179.063C228.296 179.44 228.296 180.661 227.644 181.791Z" fill="#E7E8E5"/>
<path d="M221.846 201.165V201.433C221.846 202.425 221.042 203.692 220.052 204.265L212.633 208.548C211.642 209.12 210.838 208.78 210.838 207.789V207.521C210.838 206.529 211.642 205.263 212.633 204.689L220.052 200.407C221.042 199.835 221.846 200.175 221.846 201.165Z" fill="#E7E8E5"/>
<path d="M261.435 178.577V178.309C261.435 177.319 262.237 176.051 263.229 175.479L270.647 171.196C271.639 170.624 272.441 170.963 272.441 171.955V172.223C272.441 173.213 271.639 174.481 270.647 175.053L263.229 179.336C262.237 179.908 261.435 179.569 261.435 178.577Z" fill="#E7E8E5"/>
<path d="M255.637 165.629C254.984 165.252 254.984 164.031 255.637 162.901L261.057 153.512C261.71 152.381 262.768 151.771 263.42 152.148C264.072 152.524 264.072 153.745 263.42 154.876L257.998 164.265C257.346 165.395 256.289 166.005 255.637 165.629Z" fill="#E7E8E5"/>
<path d="M466.557 385.377V383.86C465.959 385.64 463.183 393.301 458.973 397.141C455.627 400.195 451.061 403.72 449.9 407.123C448.692 410.663 456.253 411.851 459.38 411.297C463.013 410.655 467.713 408.593 470.272 405.449C472.071 403.24 473.216 400.62 474.5 398.883C475.784 397.144 478.745 395.204 479.44 393.193C479.821 392.088 479.368 389.668 478.832 387.623C478.34 385.747 477.807 383.684 477.167 383.86C477.165 384.089 477.167 385.017 477.167 385.017C476.396 385.871 474.265 386.719 471.863 386.811C470.309 386.869 466.544 386.561 466.557 385.377" fill="#17282F"/>
<path d="M455.944 399.827C456.981 398.9 458.026 397.996 458.973 397.131C461.914 394.448 464.156 389.899 465.444 386.795C466.178 385.021 466.557 383.129 466.557 381.211V375.164H477.166V385.007V385.008V385.271L477.113 385.297C476.602 387.503 471.734 393.367 468.968 397.191C467.113 399.755 463.589 403.016 459.38 403.577C455.39 404.111 453.35 402.852 455.944 399.827Z" fill="#F6879F"/>
<path d="M425.173 374.919V373.401C424.574 375.181 421.798 382.843 417.589 386.683C414.242 389.735 409.677 393.261 408.516 396.664C407.308 400.203 414.869 401.392 417.996 400.839C421.629 400.196 426.329 398.135 428.886 394.991C430.686 392.781 431.832 390.161 433.116 388.424C434.4 386.685 437.361 384.745 438.056 382.733C438.437 381.629 437.984 379.209 437.448 377.164C436.956 375.288 436.422 373.225 435.782 373.401C435.781 373.631 435.782 374.559 435.782 374.559C435.012 375.412 432.881 376.259 430.478 376.351C428.925 376.411 425.16 376.103 425.173 374.919" fill="#17282F"/>
<path d="M414.56 389.368C415.597 388.441 416.643 387.536 417.589 386.672C420.531 383.989 422.772 379.44 424.06 376.335C424.795 374.563 425.173 372.671 425.173 370.752V364.705H435.783V374.548V374.549V374.812L435.729 374.839C435.219 377.044 430.351 382.908 427.584 386.732C425.729 389.296 422.205 392.557 417.996 393.119C414.007 393.652 411.967 392.393 414.56 389.368" fill="#F6879F"/>
<path d="M475.056 220.491C483.281 238.456 474.758 301.74 474.758 301.74C475.006 304.655 478.338 310.392 479.581 323.223C481.048 338.383 477.278 376.449 477.278 376.449C477.278 376.449 472.366 379.663 466.557 376.876C466.557 376.876 456.445 319.544 454.544 304.471C452.885 291.315 449.7 262.389 449.7 262.389L440.648 304.399C440.648 304.399 442.97 311.768 443.514 317.383C444.373 326.249 435.782 367.531 435.782 367.531C435.782 367.531 432.122 368.873 425.173 367.851C425.173 367.851 422.134 313.068 421.333 302.387C419.988 284.449 424.752 228.48 428.042 217.863L475.056 220.491" fill="#263E47"/>
<path d="M449.7 262.389L447.029 245.704C447.029 245.704 435.732 243.364 430.608 238.547C430.608 238.547 435.983 245.233 443.968 247.424L446.967 260.271L441.724 299.168L449.7 262.389" fill="#17282F"/>
<path d="M442.989 157.589C442.989 157.589 435.023 156.42 429.491 163.637C425.243 169.18 408.993 190.34 408.993 190.34C408.993 190.34 385.043 178.353 383.864 176.932C382.685 175.511 383.348 172.639 383.672 171.056C383.997 169.476 384.533 165.963 384.885 164.975C385.5 163.253 382.952 163.717 381.451 165.328C379.913 166.977 379.283 170.085 378.532 170.627C377.784 171.168 372.085 164.613 369.319 161.451C366.552 158.288 365.256 156.075 363.401 157.38C362.067 158.321 362.924 160.197 364.907 162.908C366.889 165.617 367.179 165.909 367.467 166.497C367.705 166.983 366.973 167.371 366.683 167.629C366.147 168.111 365.193 168.897 365.125 169.648C365.089 170.057 365.164 170.48 365.051 170.876C364.792 171.777 363.676 172.2 363.361 173.084C363.133 173.723 363.385 174.439 363.256 175.105C363.173 175.535 362.937 175.923 362.86 176.353C362.709 177.197 363.195 178.023 363.747 178.68C365.689 180.991 368.345 181.876 370.892 183.285C373.009 184.456 375.196 184.969 377.633 186.053C380.072 187.137 408.368 206.752 412.845 204.28C417.321 201.809 440.444 174.913 440.444 174.913C447.113 163.861 442.989 157.589 442.989 157.589" fill="#F6879F"/>
<path d="M460.546 158.079C471.092 158.804 471.832 163.897 474.47 169.467C476.478 173.707 476.501 178.624 474.969 183.059L467.62 204.316C467.62 204.316 471.061 212.633 475.056 220.491C456.614 230.784 433.588 225.373 428.042 217.863C427.808 216.269 429.233 203.815 430.11 195.679C426.862 187.531 426.005 182.367 427.376 176.98C429.92 166.984 439.794 157.244 444.164 157.599L460.546 158.079" fill="#F3F2F1"/>
<path d="M450.409 149.339H454.501C466.405 149.339 476.055 139.689 476.055 127.785C476.055 115.817 466.353 106.115 454.385 106.115H450.525C438.557 106.115 428.856 115.817 428.856 127.785C428.856 139.689 438.505 149.339 450.409 149.339" fill="#17282F"/>
<path d="M487.597 160.7C480.564 160.7 474.862 154.997 474.862 147.965V120.696C481.896 120.696 487.597 126.397 487.597 133.431V160.7Z" fill="#17282F"/>
<path d="M477.196 115.86L474.004 120.989C475.419 121.936 477.281 121.555 478.163 120.137C479.044 118.721 478.612 116.805 477.196 115.86Z" fill="#17282F"/>
<path d="M436.608 115.66C434.114 117.132 431.034 123.403 431.338 136.547C431.596 147.685 435.206 150.437 437.02 151.231C438.833 152.024 442.329 151.541 445.729 150.975V157.66C445.729 157.66 441.03 163.116 441.326 166.183C441.622 169.248 448.11 169.972 452.506 166.977C456.902 163.983 459.721 159.424 459.721 159.424V143.264C459.721 143.264 462.016 146.329 465.77 143.836C469.524 141.344 469.666 135.173 467.484 132.959C465.302 130.743 460.598 131.444 459.721 134.505C459.721 134.505 454.3 134.703 447.081 130.737C439.861 126.772 437.088 119.979 436.608 115.66Z" fill="#F6879F"/>
<path d="M445.022 133.748C444.982 134.551 445.576 135.231 446.349 135.267C447.121 135.304 447.781 134.683 447.821 133.88C447.861 133.077 447.268 132.397 446.494 132.36C445.722 132.324 445.062 132.944 445.022 133.748" fill="#17282F"/>
<path d="M443.401 143.191L440.148 144.228C440.419 145.159 441.365 145.681 442.264 145.395C443.163 145.109 443.672 144.121 443.401 143.191Z" fill="#F47089"/>
<path d="M433.537 129.447L436.372 127.481C435.854 126.672 434.801 126.456 434.018 126.999C433.236 127.541 433.02 128.637 433.537 129.447" fill="#17282F"/>
<path d="M434.19 132.735C434.15 133.537 434.744 134.217 435.517 134.255C436.289 134.291 436.949 133.671 436.989 132.868C437.029 132.065 436.436 131.384 435.662 131.348C434.89 131.311 434.23 131.932 434.19 132.735Z" fill="#17282F"/>
<path d="M441.033 131.932L440.81 140.365L436.372 138.991L441.033 131.932Z" fill="#F47089"/>
<path d="M445.729 150.975C449.312 150.504 456.681 148.388 457.83 145.473C457.83 145.473 457.448 147.305 455.245 149.192C453.044 151.079 445.729 153.205 445.729 153.205V150.975" fill="#F47089"/>
<path d="M472.683 221.719C472.688 221.716 472.695 221.713 472.7 221.711C472.695 221.713 472.689 221.716 472.683 221.719ZM472.727 221.697C472.769 221.677 472.813 221.656 472.855 221.636C472.812 221.656 472.769 221.677 472.727 221.697ZM472.856 221.635C473.595 221.277 474.329 220.896 475.056 220.491C474.329 220.896 473.596 221.277 472.856 221.635Z" fill="#21363E"/>
<path d="M475.056 220.491C475.048 220.476 475.04 220.46 475.032 220.444C475.04 220.46 475.048 220.476 475.056 220.491ZM467.652 204.393C467.652 204.392 467.652 204.392 467.65 204.391C467.652 204.392 467.652 204.392 467.652 204.393ZM474.982 183.017C474.984 183.016 474.984 183.015 474.984 183.013C474.984 183.015 474.984 183.016 474.982 183.017Z" fill="#E0E0DE"/>
<path d="M452.403 226.173C446.043 226.173 440.168 224.968 435.653 223.101C438.635 223.564 441.532 223.765 444.275 223.765C448.605 223.765 452.549 223.261 455.831 222.485C461.888 221.051 465.731 214.924 464.131 208.908C464.069 208.68 464.007 208.484 463.943 208.328C463.004 206.071 461.211 205.836 460.504 205.836C460.319 205.836 460.208 205.852 460.208 205.852C462.599 204.267 464.257 201.793 464.817 198.981L467.06 185.657C467.06 185.657 467.559 182.713 466.491 179.195L473.903 170.623C473.903 170.623 474.435 170.992 475.272 171.575C476.423 175.272 476.256 179.308 474.984 183.013C474.984 183.015 474.984 183.016 474.983 183.017C474.979 183.031 474.973 183.044 474.969 183.059L467.62 204.316C467.62 204.316 467.631 204.341 467.651 204.391C467.652 204.392 467.652 204.392 467.652 204.393C468.007 205.243 471.271 213.04 475.032 220.444C475.04 220.46 475.048 220.476 475.056 220.491C474.329 220.896 473.595 221.277 472.856 221.635L472.855 221.636C472.813 221.656 472.769 221.677 472.727 221.697C472.717 221.701 472.708 221.707 472.7 221.711C472.695 221.713 472.688 221.716 472.683 221.719C466.053 224.888 458.969 226.173 452.403 226.173" fill="#D5D7D4"/>
<path d="M493.929 210.997C484.356 171.861 477.276 158.809 465.645 158.961C462.25 163.02 463.188 175.279 468.554 182.719C468.554 182.719 480.518 207.959 482.426 216.932C484.104 224.815 486.004 234.733 485.884 241.509C485.862 242.709 485.366 243.851 484.553 244.733C482.369 247.1 482.36 249.008 480.945 251.627C479.836 253.677 478.624 254.444 478.97 254.905C479.414 255.497 480.817 256.271 482.561 255.171C483.438 254.616 484.009 253.967 485.284 252.559C485.284 252.559 484.936 255.733 483.125 259.82C480.669 265.357 481.266 268.181 488.741 266.209C493.425 264.975 496.366 261.072 497.068 249.815C497.269 246.572 497.576 241.456 497.192 237.356C496.192 226.679 495.47 217.296 493.929 210.997" fill="#F6879F"/>
<path d="M398.942 322.877C399.966 284.789 396.914 275.661 386.773 268.684L382.845 290.753C382.845 290.753 387.465 316.763 386.969 325.423C386.533 333.033 385.793 342.553 383.993 348.705C383.674 349.795 382.938 350.712 381.976 351.315C379.393 352.929 378.352 354.587 376.408 356.624C374.885 358.217 373.589 358.615 373.789 359.121C374.046 359.773 375.133 360.828 376.998 360.259C377.937 359.972 379.15 359.237 380.662 358.272C380.662 358.272 379.582 361.445 376.91 364.72C373.29 369.159 373.13 371.885 380.441 371.949C385.022 371.991 388.677 369.165 392.125 359.071C393.117 356.163 394.672 351.572 395.344 347.736C397.094 337.747 398.777 329.008 398.942 322.877" fill="#C35363"/>
<path d="M378.241 265.791C383.081 265.089 389.661 266.104 393.911 273.705C398.161 281.305 399.203 294.381 399.687 307.383C399.687 307.383 391.244 314.443 381.119 310.971L378.241 265.791" fill="#26B6A6"/>
<path d="M392.833 310.967C392.785 305.699 392.703 300.737 392.565 297.108C392.148 286.056 392.001 277.877 390.94 274.651C389.54 270.391 384.512 265.791 379.14 265.791C378.843 265.791 378.544 265.805 378.244 265.835L378.241 265.791C379.043 265.675 379.892 265.607 380.769 265.607C385.196 265.607 390.364 267.363 393.911 273.705C398.161 281.305 399.203 294.381 399.687 307.383C399.687 307.383 396.996 309.632 392.833 310.967Z" fill="#F3F2F1"/>
<path d="M392.481 475.277C393.25 475.569 393.444 477.034 393.561 479.944C393.649 482.146 394.12 485.991 391.541 486.758C388.961 487.527 385.182 487.134 383.528 485.058C381.465 482.467 380.069 480.186 377.125 477.024C374.569 474.281 371.806 471.722 370.774 467.875C369.842 464.4 370.618 462.892 372.99 461.881C376.252 460.491 381.374 465.032 383.929 465.746C386.13 466.363 391.713 474.987 392.481 475.277" fill="#17282F"/>
<path d="M392.481 472.582V476.157C392.481 476.157 388.765 479.012 383.45 476.401C383.294 476.056 382.513 471.288 382.513 471.288L392.481 472.582Z" fill="#C35363"/>
<path d="M363.538 495.875C363.538 495.875 364.564 498.982 365.117 501.7C365.556 503.861 366.185 507.472 365.429 509.097C364.672 510.723 361.72 511.772 357.145 511.737C354.181 511.715 349.562 513.727 346.401 515.491C343.134 517.313 336.342 518.04 332.888 517.633C328.817 517.156 324.598 514.794 323.941 513.109C323.282 511.424 324.157 509.672 333.752 505.584C333.838 505.546 347.089 501.239 351.73 496.116L363.538 495.875" fill="#17282F"/>
<path d="M363.538 492.011C363.538 492.011 363.525 494.663 363.538 496.179C363.552 497.694 361.762 499.952 357.128 499.787C353.874 499.67 351.602 498.796 351.73 496.116V492.252L363.538 492.011Z" fill="#C35363"/>
<path d="M394.807 425.155C393.171 413.477 390.585 406.541 390.585 406.541C390.585 406.541 391.861 390.483 392.475 375.256C393.135 358.811 392.438 338.137 392.752 334.035C392.752 334.035 339.683 323.296 338.736 342.308C337.789 361.32 340.83 409.715 341.458 418.067C342.085 426.42 343.529 433.805 345.254 447.343C346.957 460.703 351.73 492.252 351.73 492.252C357.793 495.529 363.539 492.011 363.539 492.011C363.539 492.011 367.273 453.996 366.881 444.36C366.403 432.592 363.228 423.325 363.228 423.325C363.228 423.325 364.233 407.648 365.122 394.013C366.01 380.377 366.952 373.828 367.157 367.896L368.3 367.331C368.3 367.331 369.464 390.855 370.09 399.207C370.718 407.559 372.046 415.567 374.464 431.08C376.558 444.537 382.802 473.012 382.802 473.012C388.864 476.289 392.481 472.583 392.481 472.583C392.481 472.583 396.443 436.832 394.807 425.155" fill="#263E47"/>
<path d="M367.157 367.896C367.157 367.896 380.032 361.552 386.475 355.831C386.475 355.831 380.492 364.26 372.639 367.997C372.639 367.997 369.845 397.22 369.86 396.64L368.247 367.853L367.157 367.896" fill="#17282F"/>
<path d="M355.7 259.769L358.84 277.053L374.452 275.913L371.173 256.32L355.7 259.769Z" fill="#C35363"/>
<path d="M390.94 274.651C389.394 269.951 383.433 264.836 377.466 265.944C366.505 267.98 357.812 270.157 351.338 272.469C345.877 274.42 340.901 279.14 340.449 297.108C340.449 297.108 338.618 338.992 338.586 347.093C352.302 352.52 366.568 352.353 374.452 350.631C390.865 347.044 392.845 340.236 392.845 340.236C392.845 340.236 393.057 310.116 392.565 297.108C392.148 286.056 392.001 277.877 390.94 274.651Z" fill="#F3F2F1"/>
<path d="M343.653 238.747C343.653 238.747 339.695 245.059 340.176 245.659C340.656 246.26 343.685 246.743 343.685 246.743L343.653 238.747" fill="#C35363"/>
<path d="M354.648 221.284C346.392 223.22 344.08 226.92 343.594 240.116C343.088 253.903 344.592 258.199 346.443 260.013C347.692 261.236 354.482 261.309 357.884 260.288C362.142 259.011 371.746 255.361 376.125 248.333C381.276 240.065 382.429 228.989 376.616 224.588C368.436 218.393 358.008 220.496 354.648 221.284" fill="#C35363"/>
<path d="M355.874 260.715C358.677 258.461 358.425 257.009 358.425 257.009C356.416 258.885 348.98 260.493 346.442 260.013C347.477 261.027 352.31 261.248 355.874 260.715" fill="#AA3B4B"/>
<path d="M343.685 224.716C346.108 228.864 351.366 230.847 351.366 230.847C352.949 232.651 352.077 239.684 354.864 240.8C354.864 240.8 356.061 235.681 360.365 236.224C364.697 236.772 365.404 242.263 362.758 245.667C360.112 249.072 357.548 247.848 357.548 247.848C357.548 247.848 357.845 255.119 361.16 259.165C361.16 259.165 364.856 260.271 371.568 258.68C375.694 257.703 381.442 252.388 383.784 246.844C388.736 235.116 388.865 224.66 381.382 221.696C380.461 216.364 376.194 214.061 371.368 213.065C360.977 210.924 354.28 217.408 346.281 216.845C341.702 216.523 340.846 219.856 343.685 224.716" fill="#17282F"/>
<path d="M381.55 223.484L386.449 220.447C385.61 219.093 383.833 218.677 382.481 219.516C381.129 220.356 380.713 222.132 381.55 223.484" fill="#17282F"/>
<path d="M351.765 272.396C351.765 272.396 344.006 273.831 339.95 279.968C335.894 286.104 318.357 308.097 318.357 308.097C318.357 308.097 293.126 295.469 291.885 293.973C290.644 292.476 291.342 289.449 291.684 287.783C292.025 286.117 292.589 282.417 292.961 281.377C293.609 279.563 290.924 280.052 289.342 281.748C287.722 283.485 287.058 286.76 286.268 287.331C285.48 287.9 279.477 280.996 276.562 277.664C273.649 274.332 272.282 272 270.329 273.376C268.922 274.367 269.825 276.344 271.914 279.199C274.004 282.053 274.308 282.361 274.612 282.98C274.862 283.491 274.092 283.9 273.786 284.173C273.221 284.68 272.216 285.508 272.145 286.299C272.106 286.731 272.185 287.176 272.066 287.592C271.794 288.543 270.618 288.988 270.286 289.919C270.046 290.592 270.312 291.345 270.176 292.048C270.089 292.5 269.84 292.909 269.758 293.363C269.6 294.252 270.11 295.123 270.693 295.813C272.74 298.248 275.537 299.18 278.22 300.665C280.45 301.9 282.753 302.44 285.322 303.581C287.89 304.723 318.137 327.077 322.853 324.475C327.569 321.871 351.765 293.603 351.765 293.603C358.792 281.961 351.765 272.396 351.765 272.396" fill="#C35363"/>
<path d="M354.469 271.484C351.132 271.868 346.457 271.249 339.921 278.269C333.384 285.289 325.212 297.199 325.212 297.199C325.212 297.199 327.481 308.583 339.84 310.971C339.84 310.971 351.287 299.244 354.469 292.788C357.653 286.331 358.399 275.841 354.469 271.484" fill="#26B6A6"/>
<path d="M339.84 310.971C338.867 310.783 337.957 310.539 337.105 310.249C329.68 307.724 326.716 301.717 325.688 298.819C325.336 297.827 325.212 297.199 325.212 297.199C325.212 297.199 333.384 285.289 339.921 278.269C346.457 271.249 351.132 271.868 354.469 271.484C356.335 273.552 357.147 277.001 357.144 280.745C357.141 284.889 356.141 289.395 354.469 292.788C351.365 299.083 340.407 310.388 339.861 310.949C339.848 310.964 339.84 310.971 339.84 310.971" fill="#F3F2F1"/>
</g>
<defs>
<clipPath id="clip0_104:2">
<rect width="550.187" height="596.853" fill="white"/>
</clipPath>
</defs>
</svg>
